<?xml version="1.0" encoding="UTF-8" standalone="no"?>
<!DOCTYPE svg PUBLIC "-//W3C//DTD SVG 1.1//EN"
 "http://www.w3.org/Graphics/SVG/1.1/DTD/svg11.dtd">
<!-- Generated by graphviz version 2.43.0 (0)
 -->
<!-- Title: VeterinaryClinic Pages: 1 -->
<svg width="2590pt" height="1288pt"
 viewBox="0.00 0.00 2589.66 1287.50" xmlns="http://www.w3.org/2000/svg" xmlns:xlink="http://www.w3.org/1999/xlink">
<g id="graph0" class="graph" transform="scale(1 1) rotate(0) translate(4 1283.5)">
<title>VeterinaryClinic</title>
<polygon fill="white" stroke="transparent" points="-4,4 -4,-1283.5 2585.66,-1283.5 2585.66,4 -4,4"/>
<text text-anchor="middle" x="1290.83" y="-7.8" font-family="Times,serif" font-size="14.00">Daniel&#39;s Veterinary Clinic</text>
<g id="clust1" class="cluster">
<title>cluster_StartVetVisit</title>
<polygon fill="none" stroke="black" points="129.81,-699 129.81,-1225 2573.66,-1225 2573.66,-699 129.81,-699"/>
<text text-anchor="middle" x="1351.74" y="-1209.8" font-family="Times,serif" font-size="14.00">Start Vet Visit</text>
<text text-anchor="middle" x="1351.74" y="-1194.8" font-family="Times,serif" font-size="14.00">I Am Able To Start Getting Help From The Vet</text>
</g>
<g id="clust2" class="cluster">
<title>cluster_VisitVet</title>
<polygon fill="none" stroke="black" points="741.31,-329 741.31,-691 1009.69,-691 1009.69,-329 741.31,-329"/>
<text text-anchor="middle" x="875.5" y="-675.8" font-family="Times,serif" font-size="14.00">Visit Vet</text>
<text text-anchor="middle" x="875.5" y="-660.8" font-family="Times,serif" font-size="14.00">The Vet Is Helping Me With My Pet</text>
</g>
<g id="clust3" class="cluster">
<title>cluster_CompleteVetVisit</title>
<polygon fill="none" stroke="black" points="639.21,-31 639.21,-321 1111.79,-321 1111.79,-31 639.21,-31"/>
<text text-anchor="middle" x="875.5" y="-305.8" font-family="Times,serif" font-size="14.00">Complete Vet Visit</text>
<text text-anchor="middle" x="875.5" y="-290.8" font-family="Times,serif" font-size="14.00">I Am Prepared To Continue My Relationship With The Clinic/Vet</text>
</g>
<g id="clust4" class="cluster">
<title>cluster_VeterinaryClinicAdministration</title>
<polygon fill="none" stroke="black" points="66.12,-256 66.12,-526 427.88,-526 427.88,-256 66.12,-256"/>
<text text-anchor="middle" x="247" y="-510.8" font-family="Times,serif" font-size="14.00">Veterinary Clinic Administration</text>
<text text-anchor="middle" x="247" y="-495.8" font-family="Times,serif" font-size="14.00">We Are Able To Treat Patients</text>
</g>
<!-- ProcessAreaStartVetVisit -->
<!-- ProcessAreaVisitVet -->
<!-- ProcessAreaStartVetVisit&#45;&gt;ProcessAreaVisitVet -->
<g id="edge20" class="edge">
<title>ProcessAreaStartVetVisit&#45;&gt;ProcessAreaVisitVet</title>
<path fill="none" stroke="red" stroke-width="6" stroke-dasharray="1,5" d="M414.06,-699C512.84,-683.54 636.87,-664.12 731.24,-649.35"/>
<polygon fill="red" stroke="red" stroke-width="6" points="732.24,-654.51 741.31,-647.77 730.62,-644.13 732.24,-654.51"/>
<polygon fill="none" stroke="red" points="512,-780.5 512,-805.5 622,-805.5 622,-780.5 512,-780.5"/>
<text text-anchor="start" x="530.5" y="-790.3" font-family="Handlee" font-weight="bold" font-size="14.00" fill="red">REQUIRED</text>
<polygon fill="none" stroke="red" points="512,-755.5 512,-780.5 622,-780.5 622,-755.5 512,-755.5"/>
<text text-anchor="start" x="551.5" y="-764.3" font-family="Handlee" font-size="14.00" fill="red">Email</text>
<polygon fill="none" stroke="red" points="512,-730.5 512,-755.5 622,-755.5 622,-730.5 512,-730.5"/>
<text text-anchor="start" x="536.5" y="-739.3" font-family="Handlee" font-size="14.00" fill="red">AuthToken</text>
<polygon fill="none" stroke="red" points="512,-705.5 512,-730.5 622,-730.5 622,-705.5 512,-705.5"/>
<text text-anchor="start" x="546.5" y="-714.3" font-family="Handlee" font-size="14.00" fill="red">Doctor</text>
<polygon fill="none" stroke="red" points="512,-680.5 512,-705.5 622,-705.5 622,-680.5 512,-680.5"/>
<text text-anchor="start" x="517" y="-689.3" font-family="Handlee" font-size="14.00" fill="red">AppointmentTime</text>
</g>
<!-- doYouKnowMeInput -->
<g id="node2" class="node">
<title>doYouKnowMeInput</title>
<polygon fill="none" stroke="black" points="211.5,-1083.5 211.5,-1152.5 282.5,-1152.5 282.5,-1083.5 211.5,-1083.5"/>
<text text-anchor="middle" x="247" y="-1137.3" font-family="Handlee" font-size="14.00">Email</text>
<polyline fill="none" stroke="black" points="211.5,-1129.5 282.5,-1129.5 "/>
<text text-anchor="middle" x="247" y="-1114.3" font-family="Handlee" font-size="14.00">[OTP]</text>
<polyline fill="none" stroke="black" points="211.5,-1106.5 282.5,-1106.5 "/>
<text text-anchor="middle" x="247" y="-1091.3" font-family="Handlee" font-size="14.00">[STUFF]</text>
</g>
<!-- doYouKnowMe -->
<g id="node5" class="node">
<title>doYouKnowMe</title>
<ellipse fill="none" stroke="black" cx="875" cy="-1087" rx="50.41" ry="26.74"/>
<text text-anchor="middle" x="875" y="-1090.8" font-family="Handlee" font-size="14.00">Do you</text>
<text text-anchor="middle" x="875" y="-1075.8" font-family="Handlee" font-size="14.00">know me?</text>
</g>
<!-- doYouKnowMeInput&#45;&gt;doYouKnowMe -->
<g id="edge2" class="edge">
<title>doYouKnowMeInput&#45;&gt;doYouKnowMe</title>
<path fill="none" stroke="black" d="M282.55,-1116.29C384.74,-1111.23 686.43,-1096.29 814.95,-1089.92"/>
<polygon fill="black" stroke="black" points="815.18,-1093.42 825,-1089.43 814.84,-1086.43 815.18,-1093.42"/>
</g>
<!-- doYouKnowMeOutput -->
<g id="node3" class="node">
<title>doYouKnowMeOutput</title>
<polygon fill="none" stroke="black" points="1263.5,-1041 1263.5,-1133 1386.5,-1133 1386.5,-1041 1263.5,-1041"/>
<text text-anchor="middle" x="1281.5" y="-1117.8" font-family="Handlee" font-size="14.00">Yes</text>
<polyline fill="none" stroke="black" points="1299.5,-1110 1299.5,-1133 "/>
<text text-anchor="middle" x="1316.5" y="-1117.8" font-family="Handlee" font-size="14.00">No</text>
<polyline fill="none" stroke="black" points="1333.5,-1110 1333.5,-1133 "/>
<text text-anchor="middle" x="1360" y="-1117.8" font-family="Handlee" font-size="14.00">Maybe</text>
<polyline fill="none" stroke="black" points="1263.5,-1110 1386.5,-1110 "/>
<text text-anchor="middle" x="1325" y="-1094.8" font-family="Handlee" font-size="14.00">Email</text>
<polyline fill="none" stroke="black" points="1263.5,-1087 1386.5,-1087 "/>
<text text-anchor="middle" x="1325" y="-1071.8" font-family="Handlee" font-size="14.00">[OTP]</text>
<polyline fill="none" stroke="black" points="1263.5,-1064 1386.5,-1064 "/>
<text text-anchor="middle" x="1325" y="-1048.8" font-family="Handlee" font-size="14.00">[STUFF]</text>
</g>
<!-- knownEMails -->
<g id="node4" class="node">
<title>knownEMails</title>
<polygon fill="none" stroke="black" points="199.5,-1018 199.5,-1064 294.5,-1064 294.5,-1018 199.5,-1018"/>
<text text-anchor="middle" x="247" y="-1048.8" font-family="Handlee" font-size="14.00">Known Emails</text>
<polyline fill="none" stroke="black" points="199.5,-1041 294.5,-1041 "/>
<text text-anchor="middle" x="247" y="-1025.8" font-family="Handlee" font-size="14.00">Email</text>
</g>
<!-- knownEMails&#45;&gt;doYouKnowMe -->
<g id="edge1" class="edge">
<title>knownEMails&#45;&gt;doYouKnowMe</title>
<path fill="none" stroke="black" d="M294.54,-1044.42C406.57,-1052.65 691.13,-1073.56 814.95,-1082.66"/>
<polygon fill="black" stroke="black" points="814.77,-1086.16 825,-1083.4 815.29,-1079.18 814.77,-1086.16"/>
</g>
<!-- doYouKnowMe&#45;&gt;doYouKnowMeOutput -->
<g id="edge3" class="edge">
<title>doYouKnowMe&#45;&gt;doYouKnowMeOutput</title>
<path fill="none" stroke="black" d="M925.23,-1087C1004.75,-1087 1161.81,-1087 1253.3,-1087"/>
<polygon fill="black" stroke="black" points="1253.3,-1090.5 1263.3,-1087 1253.3,-1083.5 1253.3,-1090.5"/>
</g>
<!-- otpWaitList -->
<g id="node6" class="node">
<title>otpWaitList</title>
<polygon fill="none" stroke="black" points="1747,-1059.5 1747,-1158.5 1822,-1158.5 1822,-1059.5 1747,-1059.5"/>
<text text-anchor="middle" x="1784.5" y="-1143.3" font-family="Handlee" font-size="14.00">One&#45;Time</text>
<text text-anchor="middle" x="1784.5" y="-1128.3" font-family="Handlee" font-size="14.00">Password</text>
<text text-anchor="middle" x="1784.5" y="-1113.3" font-family="Handlee" font-size="14.00">Waitlist</text>
<polyline fill="none" stroke="black" points="1747,-1105.5 1822,-1105.5 "/>
<text text-anchor="middle" x="1784.5" y="-1090.3" font-family="Handlee" font-size="14.00">Email</text>
<polyline fill="none" stroke="black" points="1747,-1082.5 1822,-1082.5 "/>
<text text-anchor="middle" x="1784.5" y="-1067.3" font-family="Handlee" font-size="14.00">Token</text>
</g>
<!-- doYouKnowMe&#45;&gt;otpWaitList -->
<g id="edge4" class="edge">
<title>doYouKnowMe&#45;&gt;otpWaitList</title>
<path fill="none" stroke="black" d="M930.13,-1101.53C984.66,-1115.37 1071.46,-1135.2 1148,-1143 1304.52,-1158.95 1344.95,-1152.45 1502,-1143 1585.03,-1138 1681.1,-1124.79 1736.82,-1116.38"/>
<polygon fill="black" stroke="black" points="930.89,-1098.11 920.33,-1099.02 929.15,-1104.9 930.89,-1098.11"/>
<polygon fill="black" stroke="black" points="1737.38,-1119.84 1746.74,-1114.87 1736.33,-1112.92 1737.38,-1119.84"/>
</g>
<!-- areYouSureItsMe -->
<g id="node9" class="node">
<title>areYouSureItsMe</title>
<ellipse fill="none" stroke="black" cx="1325" cy="-996" rx="62.87" ry="26.74"/>
<text text-anchor="middle" x="1325" y="-999.8" font-family="Handlee" font-size="14.00">Are you sure</text>
<text text-anchor="middle" x="1325" y="-984.8" font-family="Handlee" font-size="14.00">it&#39;s me?</text>
</g>
<!-- doYouKnowMe&#45;&gt;areYouSureItsMe -->
<g id="edge17" class="edge">
<title>doYouKnowMe&#45;&gt;areYouSureItsMe</title>
<path fill="none" stroke="red" stroke-width="3" stroke-dasharray="1,5" d="M925.18,-1083.97C977.42,-1079.51 1061.73,-1068.7 1130,-1043 1138.77,-1039.7 1139.28,-1035.44 1148,-1032 1181.66,-1018.74 1220.95,-1010.11 1253.86,-1004.63"/>
<polygon fill="red" stroke="red" stroke-width="3" points="1254.54,-1008.07 1263.86,-1003.03 1253.43,-1001.15 1254.54,-1008.07"/>
</g>
<!-- whatTimesAreOpenForAnAppointment -->
<g id="node15" class="node">
<title>whatTimesAreOpenForAnAppointment</title>
<ellipse fill="none" stroke="black" cx="2139.83" cy="-918" rx="72.66" ry="37.45"/>
<text text-anchor="middle" x="2139.83" y="-929.3" font-family="Handlee" font-size="14.00">What times are</text>
<text text-anchor="middle" x="2139.83" y="-914.3" font-family="Handlee" font-size="14.00">open for an</text>
<text text-anchor="middle" x="2139.83" y="-899.3" font-family="Handlee" font-size="14.00">appointment?</text>
</g>
<!-- doYouKnowMe&#45;&gt;whatTimesAreOpenForAnAppointment -->
<g id="edge18" class="edge">
<title>doYouKnowMe&#45;&gt;whatTimesAreOpenForAnAppointment</title>
<path fill="none" stroke="red" stroke-width="3" stroke-dasharray="1,5" d="M913.47,-1104.54C1067.13,-1173.62 1658.34,-1411.56 2030,-1168 2098.35,-1123.21 2124.01,-1025.14 2133.47,-966.02"/>
<polygon fill="red" stroke="red" stroke-width="3" points="2136.98,-966.22 2135.01,-955.81 2130.06,-965.18 2136.98,-966.22"/>
</g>
<!-- canYouFitMeInForThisAppointment -->
<g id="node19" class="node">
<title>canYouFitMeInForThisAppointment</title>
<ellipse fill="none" stroke="black" cx="1325" cy="-904" rx="69.09" ry="37.45"/>
<text text-anchor="middle" x="1325" y="-915.3" font-family="Handlee" font-size="14.00">Can you fit me</text>
<text text-anchor="middle" x="1325" y="-900.3" font-family="Handlee" font-size="14.00">in for this</text>
<text text-anchor="middle" x="1325" y="-885.3" font-family="Handlee" font-size="14.00">appoointment?</text>
</g>
<!-- doYouKnowMe&#45;&gt;canYouFitMeInForThisAppointment -->
<g id="edge16" class="edge">
<title>doYouKnowMe&#45;&gt;canYouFitMeInForThisAppointment</title>
<path fill="none" stroke="red" stroke-width="3" stroke-dasharray="1,5" d="M925.18,-1089.65C976.99,-1089.85 1058.35,-1082.45 1111.79,-1040 1142.35,-1015.73 1118.84,-985.94 1148,-960 1175.37,-935.66 1213.35,-921.89 1247.03,-914.11"/>
<polygon fill="red" stroke="red" stroke-width="3" points="1247.83,-917.51 1256.86,-911.97 1246.35,-910.67 1247.83,-917.51"/>
</g>
<!-- areYouSureItsMeInput -->
<g id="node7" class="node">
<title>areYouSureItsMeInput</title>
<polygon fill="none" stroke="black" points="839.5,-961.5 839.5,-1030.5 910.5,-1030.5 910.5,-961.5 839.5,-961.5"/>
<text text-anchor="middle" x="875" y="-1015.3" font-family="Handlee" font-size="14.00">Email</text>
<polyline fill="none" stroke="black" points="839.5,-1007.5 910.5,-1007.5 "/>
<text text-anchor="middle" x="875" y="-992.3" font-family="Handlee" font-size="14.00">OTP</text>
<polyline fill="none" stroke="black" points="839.5,-984.5 910.5,-984.5 "/>
<text text-anchor="middle" x="875" y="-969.3" font-family="Handlee" font-size="14.00">[STUFF]</text>
</g>
<!-- areYouSureItsMeInput&#45;&gt;areYouSureItsMe -->
<g id="edge6" class="edge">
<title>areYouSureItsMeInput&#45;&gt;areYouSureItsMe</title>
<path fill="none" stroke="black" d="M910.78,-996C983.75,-996 1154.14,-996 1251.8,-996"/>
<polygon fill="black" stroke="black" points="1251.89,-999.5 1261.89,-996 1251.89,-992.5 1251.89,-999.5"/>
</g>
<!-- areYouSureItsMeOutput -->
<g id="node8" class="node">
<title>areYouSureItsMeOutput</title>
<polygon fill="none" stroke="black" points="1746,-971.5 1746,-1040.5 1823,-1040.5 1823,-971.5 1746,-971.5"/>
<text text-anchor="middle" x="1765.5" y="-1025.3" font-family="Handlee" font-size="14.00">Yes</text>
<polyline fill="none" stroke="black" points="1785,-1017.5 1785,-1040.5 "/>
<text text-anchor="middle" x="1804" y="-1025.3" font-family="Handlee" font-size="14.00">No</text>
<polyline fill="none" stroke="black" points="1746,-1017.5 1823,-1017.5 "/>
<text text-anchor="middle" x="1784.5" y="-1002.3" font-family="Handlee" font-size="14.00">TempToken</text>
<polyline fill="none" stroke="black" points="1746,-994.5 1823,-994.5 "/>
<text text-anchor="middle" x="1784.5" y="-979.3" font-family="Handlee" font-size="14.00">[STUFF]</text>
</g>
<!-- areYouSureItsMe&#45;&gt;otpWaitList -->
<g id="edge5" class="edge">
<title>areYouSureItsMe&#45;&gt;otpWaitList</title>
<path fill="none" stroke="black" d="M1395.22,-1006.02C1428.09,-1011.82 1467.61,-1020.32 1502,-1032 1519.32,-1037.88 1521.79,-1043.82 1539,-1050 1606.09,-1074.09 1687.04,-1091.45 1736.9,-1100.87"/>
<polygon fill="black" stroke="black" points="1395.69,-1002.55 1385.24,-1004.31 1394.51,-1009.45 1395.69,-1002.55"/>
<polygon fill="black" stroke="black" points="1736.27,-1104.31 1746.74,-1102.7 1737.55,-1097.43 1736.27,-1104.31"/>
</g>
<!-- areYouSureItsMe&#45;&gt;areYouSureItsMeOutput -->
<g id="edge7" class="edge">
<title>areYouSureItsMe&#45;&gt;areYouSureItsMeOutput</title>
<path fill="none" stroke="black" d="M1388.18,-997.36C1480.61,-999.38 1652.28,-1003.13 1735.63,-1004.95"/>
<polygon fill="black" stroke="black" points="1735.75,-1008.46 1745.82,-1005.18 1735.9,-1001.46 1735.75,-1008.46"/>
</g>
<!-- canISeeTheDoctorNowInput -->
<g id="node10" class="node">
<title>canISeeTheDoctorNowInput</title>
<polygon fill="none" stroke="black" points="208.5,-796.5 208.5,-865.5 285.5,-865.5 285.5,-796.5 208.5,-796.5"/>
<text text-anchor="middle" x="247" y="-850.3" font-family="Handlee" font-size="14.00">EMail</text>
<polyline fill="none" stroke="black" points="208.5,-842.5 285.5,-842.5 "/>
<text text-anchor="middle" x="247" y="-827.3" font-family="Handlee" font-size="14.00">TempToken</text>
<polyline fill="none" stroke="black" points="208.5,-819.5 285.5,-819.5 "/>
<text text-anchor="middle" x="247" y="-804.3" font-family="Handlee" font-size="14.00">[STUFF]</text>
</g>
<!-- canISeeTheDoctorNow -->
<g id="node12" class="node">
<title>canISeeTheDoctorNow</title>
<ellipse fill="none" stroke="black" cx="875" cy="-831" rx="83.38" ry="26.74"/>
<text text-anchor="middle" x="875" y="-834.8" font-family="Handlee" font-size="14.00">Can I See</text>
<text text-anchor="middle" x="875" y="-819.8" font-family="Handlee" font-size="14.00">The Doctor Now?</text>
</g>
<!-- canISeeTheDoctorNowInput&#45;&gt;canISeeTheDoctorNow -->
<g id="edge8" class="edge">
<title>canISeeTheDoctorNowInput&#45;&gt;canISeeTheDoctorNow</title>
<path fill="none" stroke="black" d="M285.75,-831C382.46,-831 641.3,-831 781.2,-831"/>
<polygon fill="black" stroke="black" points="781.48,-834.5 791.48,-831 781.48,-827.5 781.48,-834.5"/>
</g>
<!-- canISeeTheDoctorNowOutput -->
<g id="node11" class="node">
<title>canISeeTheDoctorNowOutput</title>
<polygon fill="none" stroke="black" points="1148,-756 1148,-848 1502,-848 1502,-756 1148,-756"/>
<text text-anchor="middle" x="1166" y="-832.8" font-family="Handlee" font-size="14.00">Yes</text>
<polyline fill="none" stroke="black" points="1184,-825 1184,-848 "/>
<text text-anchor="middle" x="1239" y="-832.8" font-family="Handlee" font-size="14.00">No Appointment</text>
<polyline fill="none" stroke="black" points="1294,-825 1294,-848 "/>
<text text-anchor="middle" x="1349" y="-832.8" font-family="Handlee" font-size="14.00">No Our Problem</text>
<polyline fill="none" stroke="black" points="1404,-825 1404,-848 "/>
<text text-anchor="middle" x="1453" y="-832.8" font-family="Handlee" font-size="14.00">Who Are You?</text>
<polyline fill="none" stroke="black" points="1148,-825 1502,-825 "/>
<text text-anchor="middle" x="1325" y="-809.8" font-family="Handlee" font-size="14.00">EMail</text>
<polyline fill="none" stroke="black" points="1148,-802 1502,-802 "/>
<text text-anchor="middle" x="1325" y="-786.8" font-family="Handlee" font-size="14.00">TempToken</text>
<polyline fill="none" stroke="black" points="1148,-779 1502,-779 "/>
<text text-anchor="middle" x="1325" y="-763.8" font-family="Handlee" font-size="14.00">[STUFF]</text>
</g>
<!-- canISeeTheDoctorNow&#45;&gt;areYouSureItsMe -->
<g id="edge19" class="edge">
<title>canISeeTheDoctorNow&#45;&gt;areYouSureItsMe</title>
<path fill="none" stroke="red" stroke-width="3" stroke-dasharray="1,5" d="M958.4,-829.48C1007.39,-832.56 1068.26,-843.81 1111.79,-877 1140.59,-898.96 1119.91,-927.14 1148,-950 1177.32,-973.86 1217.69,-985.46 1252.38,-991.05"/>
<polygon fill="red" stroke="red" stroke-width="3" points="1252.06,-994.54 1262.47,-992.54 1253.08,-987.62 1252.06,-994.54"/>
</g>
<!-- canISeeTheDoctorNow&#45;&gt;canISeeTheDoctorNowOutput -->
<g id="edge9" class="edge">
<title>canISeeTheDoctorNow&#45;&gt;canISeeTheDoctorNowOutput</title>
<path fill="none" stroke="black" d="M956.87,-825.77C1007.35,-822.5 1074.51,-818.15 1137.59,-814.07"/>
<polygon fill="black" stroke="black" points="1137.92,-817.55 1147.67,-813.41 1137.47,-810.57 1137.92,-817.55"/>
</g>
<!-- docSchedule -->
<g id="node13" class="node">
<title>docSchedule</title>
<polygon fill="none" stroke="black" points="1539,-707 1539,-753 2030,-753 2030,-707 1539,-707"/>
<text text-anchor="middle" x="1784.5" y="-737.8" font-family="Handlee" font-size="14.00">Doctors&#39; Schedules</text>
<polyline fill="none" stroke="black" points="1539,-730 2030,-730 "/>
<text text-anchor="middle" x="1605" y="-714.8" font-family="Handlee" font-size="14.00">TimespanUnavailable</text>
<polyline fill="none" stroke="black" points="1671,-707 1671,-730 "/>
<text text-anchor="middle" x="1699.5" y="-714.8" font-family="Handlee" font-size="14.00">Doctor</text>
<polyline fill="none" stroke="black" points="1728,-707 1728,-730 "/>
<text text-anchor="middle" x="1788.5" y="-714.8" font-family="Handlee" font-size="14.00">ReasonUnavailable</text>
<polyline fill="none" stroke="black" points="1849,-707 1849,-730 "/>
<text text-anchor="middle" x="1872.5" y="-714.8" font-family="Handlee" font-size="14.00">Email</text>
<polyline fill="none" stroke="black" points="1896,-707 1896,-730 "/>
<text text-anchor="middle" x="1963" y="-714.8" font-family="Handlee" font-size="14.00">ConfirmationNumber</text>
</g>
<!-- docSchedule&#45;&gt;whatTimesAreOpenForAnAppointment -->
<g id="edge12" class="edge">
<title>docSchedule&#45;&gt;whatTimesAreOpenForAnAppointment</title>
<path fill="none" stroke="black" d="M2011.52,-753.1C2017.88,-756.09 2024.05,-759.38 2030,-763 2071.52,-788.25 2101.37,-836.01 2119.19,-871.87"/>
<polygon fill="black" stroke="black" points="2116.18,-873.68 2123.68,-881.17 2122.49,-870.64 2116.18,-873.68"/>
</g>
<!-- whatTimesAreOpenForAnAppointmentInput -->
<g id="node14" class="node">
<title>whatTimesAreOpenForAnAppointmentInput</title>
<polygon fill="none" stroke="black" points="1628,-883.5 1628,-952.5 1941,-952.5 1941,-883.5 1628,-883.5"/>
<text text-anchor="middle" x="1651.5" y="-914.3" font-family="Handlee" font-size="14.00">Email</text>
<polyline fill="none" stroke="black" points="1675,-883.5 1675,-952.5 "/>
<text text-anchor="middle" x="1700" y="-914.3" font-family="Handlee" font-size="14.00">Token</text>
<polyline fill="none" stroke="black" points="1725,-883.5 1725,-952.5 "/>
<text text-anchor="middle" x="1768" y="-914.3" font-family="Handlee" font-size="14.00">[StartDate]</text>
<polyline fill="none" stroke="black" points="1811,-883.5 1811,-952.5 "/>
<text text-anchor="middle" x="1840.5" y="-937.3" font-family="Handlee" font-size="14.00">[DAY</text>
<polyline fill="none" stroke="black" points="1811,-929.5 1870,-929.5 "/>
<text text-anchor="middle" x="1840.5" y="-914.3" font-family="Handlee" font-size="14.00">Week</text>
<polyline fill="none" stroke="black" points="1811,-906.5 1870,-906.5 "/>
<text text-anchor="middle" x="1840.5" y="-891.3" font-family="Handlee" font-size="14.00">Month]</text>
<polyline fill="none" stroke="black" points="1870,-883.5 1870,-952.5 "/>
<text text-anchor="middle" x="1905.5" y="-914.3" font-family="Handlee" font-size="14.00">[STUFF]</text>
</g>
<!-- whatTimesAreOpenForAnAppointmentInput&#45;&gt;whatTimesAreOpenForAnAppointment -->
<g id="edge10" class="edge">
<title>whatTimesAreOpenForAnAppointmentInput&#45;&gt;whatTimesAreOpenForAnAppointment</title>
<path fill="none" stroke="black" d="M1941.25,-918C1980.82,-918 2021.8,-918 2056.12,-918"/>
<polygon fill="black" stroke="black" points="2056.55,-921.5 2066.55,-918 2056.55,-914.5 2056.55,-921.5"/>
</g>
<!-- whatTimesAreOpenForAnAppointmentOutput -->
<g id="node16" class="node">
<title>whatTimesAreOpenForAnAppointmentOutput</title>
<polygon fill="none" stroke="black" points="2249.66,-900 2249.66,-936 2565.66,-936 2565.66,-900 2249.66,-900"/>
<text text-anchor="middle" x="2273.16" y="-914.3" font-family="Handlee" font-size="14.00">Email</text>
<polyline fill="none" stroke="black" points="2296.66,-900 2296.66,-936 "/>
<text text-anchor="middle" x="2321.66" y="-914.3" font-family="Handlee" font-size="14.00">Token</text>
<polyline fill="none" stroke="black" points="2346.66,-900 2346.66,-936 "/>
<text text-anchor="middle" x="2375.16" y="-914.3" font-family="Handlee" font-size="14.00">Doctor</text>
<polyline fill="none" stroke="black" points="2403.66,-900 2403.66,-936 "/>
<text text-anchor="middle" x="2427.16" y="-914.3" font-family="Handlee" font-size="14.00">Start</text>
<polyline fill="none" stroke="black" points="2450.66,-900 2450.66,-936 "/>
<text text-anchor="middle" x="2472.66" y="-914.3" font-family="Handlee" font-size="14.00">Stop</text>
<polyline fill="none" stroke="black" points="2494.66,-900 2494.66,-936 "/>
<text text-anchor="middle" x="2530.16" y="-914.3" font-family="Handlee" font-size="14.00">[STUFF]</text>
</g>
<!-- whatTimesAreOpenForAnAppointment&#45;&gt;whatTimesAreOpenForAnAppointmentOutput -->
<g id="edge11" class="edge">
<title>whatTimesAreOpenForAnAppointment&#45;&gt;whatTimesAreOpenForAnAppointmentOutput</title>
<path fill="none" stroke="black" d="M2212.77,-918C2221.3,-918 2230.25,-918 2239.44,-918"/>
<polygon fill="black" stroke="black" points="2239.49,-921.5 2249.49,-918 2239.49,-914.5 2239.49,-921.5"/>
</g>
<!-- canYouFitMeInForThisAppointmentInput -->
<g id="node17" class="node">
<title>canYouFitMeInForThisAppointmentInput</title>
<polygon fill="none" stroke="black" points="717,-886 717,-922 1033,-922 1033,-886 717,-886"/>
<text text-anchor="middle" x="740.5" y="-900.3" font-family="Handlee" font-size="14.00">Email</text>
<polyline fill="none" stroke="black" points="764,-886 764,-922 "/>
<text text-anchor="middle" x="789" y="-900.3" font-family="Handlee" font-size="14.00">Token</text>
<polyline fill="none" stroke="black" points="814,-886 814,-922 "/>
<text text-anchor="middle" x="842.5" y="-900.3" font-family="Handlee" font-size="14.00">Doctor</text>
<polyline fill="none" stroke="black" points="871,-886 871,-922 "/>
<text text-anchor="middle" x="894.5" y="-900.3" font-family="Handlee" font-size="14.00">Start</text>
<polyline fill="none" stroke="black" points="918,-886 918,-922 "/>
<text text-anchor="middle" x="940" y="-900.3" font-family="Handlee" font-size="14.00">Stop</text>
<polyline fill="none" stroke="black" points="962,-886 962,-922 "/>
<text text-anchor="middle" x="997.5" y="-900.3" font-family="Handlee" font-size="14.00">[STUFF]</text>
</g>
<!-- canYouFitMeInForThisAppointmentInput&#45;&gt;canYouFitMeInForThisAppointment -->
<g id="edge13" class="edge">
<title>canYouFitMeInForThisAppointmentInput&#45;&gt;canYouFitMeInForThisAppointment</title>
<path fill="none" stroke="black" d="M1033,-904C1104.74,-904 1186.58,-904 1245.15,-904"/>
<polygon fill="black" stroke="black" points="1245.45,-907.5 1255.45,-904 1245.45,-900.5 1245.45,-907.5"/>
</g>
<!-- canYouFitMeInForThisAppointmentOutput -->
<g id="node18" class="node">
<title>canYouFitMeInForThisAppointmentOutput</title>
<polygon fill="none" stroke="black" points="1731,-772 1731,-864 1838,-864 1838,-772 1731,-772"/>
<text text-anchor="middle" x="1758" y="-848.8" font-family="Handlee" font-size="14.00">Yes</text>
<polyline fill="none" stroke="black" points="1785,-841 1785,-864 "/>
<text text-anchor="middle" x="1811.5" y="-848.8" font-family="Handlee" font-size="14.00">No</text>
<polyline fill="none" stroke="black" points="1731,-841 1838,-841 "/>
<text text-anchor="middle" x="1784.5" y="-825.8" font-family="Handlee" font-size="14.00">Token</text>
<polyline fill="none" stroke="black" points="1731,-818 1838,-818 "/>
<text text-anchor="middle" x="1784.5" y="-802.8" font-family="Handlee" font-size="14.00">Confirmation ID</text>
<polyline fill="none" stroke="black" points="1731,-795 1838,-795 "/>
<text text-anchor="middle" x="1784.5" y="-779.8" font-family="Handlee" font-size="14.00">[STUFF]</text>
</g>
<!-- canYouFitMeInForThisAppointment&#45;&gt;docSchedule -->
<g id="edge15" class="edge">
<title>canYouFitMeInForThisAppointment&#45;&gt;docSchedule</title>
<path fill="none" stroke="black" d="M1394.36,-900.76C1430.21,-895.74 1472.64,-884.15 1502,-858 1535.84,-827.87 1503.39,-791.02 1539,-763 1540.85,-761.55 1542.73,-760.14 1544.64,-758.78"/>
<polygon fill="black" stroke="black" points="1546.8,-761.55 1553.2,-753.11 1542.93,-755.71 1546.8,-761.55"/>
</g>
<!-- canYouFitMeInForThisAppointment&#45;&gt;canYouFitMeInForThisAppointmentOutput -->
<g id="edge14" class="edge">
<title>canYouFitMeInForThisAppointment&#45;&gt;canYouFitMeInForThisAppointmentOutput</title>
<path fill="none" stroke="black" d="M1390.58,-891.86C1478.36,-875.36 1634.31,-846.04 1721,-829.75"/>
<polygon fill="black" stroke="black" points="1721.78,-833.16 1730.97,-827.88 1720.49,-826.28 1721.78,-833.16"/>
</g>
<!-- getBillingInfo -->
<g id="node21" class="node">
<title>getBillingInfo</title>
<ellipse fill="none" stroke="black" cx="875" cy="-564" rx="84.29" ry="26.74"/>
<text text-anchor="middle" x="875" y="-567.8" font-family="Handlee" font-size="14.00">What&#39;s your billing</text>
<text text-anchor="middle" x="875" y="-552.8" font-family="Handlee" font-size="14.00">information?</text>
</g>
<!-- recommendTest -->
<g id="node22" class="node">
<title>recommendTest</title>
<ellipse fill="none" stroke="black" cx="875" cy="-501" rx="72.59" ry="18"/>
<text text-anchor="middle" x="875" y="-497.3" font-family="Handlee" font-size="14.00">Recommend Test</text>
</g>
<!-- initialAssessment -->
<g id="node23" class="node">
<title>initialAssessment</title>
<ellipse fill="none" stroke="black" cx="875" cy="-447" rx="76.89" ry="18"/>
<text text-anchor="middle" x="875" y="-443.3" font-family="Handlee" font-size="14.00">Initial Assessment</text>
</g>
<!-- getVisitCompletionPaperwork -->
<g id="node24" class="node">
<title>getVisitCompletionPaperwork</title>
<ellipse fill="none" stroke="black" cx="875" cy="-374" rx="88.28" ry="37.45"/>
<text text-anchor="middle" x="875" y="-385.3" font-family="Handlee" font-size="14.00">Can you give me</text>
<text text-anchor="middle" x="875" y="-370.3" font-family="Handlee" font-size="14.00">the visit completion</text>
<text text-anchor="middle" x="875" y="-355.3" font-family="Handlee" font-size="14.00">paperwork?</text>
</g>
<!-- ProcessAreaCompleteVetVisit -->
<!-- getBill -->
<g id="node26" class="node">
<title>getBill</title>
<ellipse fill="none" stroke="black" cx="875" cy="-203" rx="39.79" ry="18"/>
<text text-anchor="middle" x="875" y="-199.3" font-family="Handlee" font-size="14.00">Get Bill</text>
</g>
<!-- payBill -->
<g id="node27" class="node">
<title>payBill</title>
<ellipse fill="none" stroke="black" cx="875" cy="-149" rx="38.19" ry="18"/>
<text text-anchor="middle" x="875" y="-145.3" font-family="Handlee" font-size="14.00">Pay Bill</text>
</g>
<!-- createFollowupAppointments -->
<g id="node28" class="node">
<title>createFollowupAppointments</title>
<ellipse fill="none" stroke="black" cx="875" cy="-76" rx="65.11" ry="37.45"/>
<text text-anchor="middle" x="875" y="-87.3" font-family="Handlee" font-size="14.00">Create</text>
<text text-anchor="middle" x="875" y="-72.3" font-family="Handlee" font-size="14.00">follow&#45;up</text>
<text text-anchor="middle" x="875" y="-57.3" font-family="Handlee" font-size="14.00">appointments</text>
</g>
<!-- ProcessAreaVeterinaryClinicAdministration -->
<!-- ProcessAreaVeterinaryClinicAdministration&#45;&gt;ProcessAreaVisitVet -->
<g id="edge22" class="edge">
<title>ProcessAreaVeterinaryClinicAdministration&#45;&gt;ProcessAreaVisitVet</title>
<path fill="none" stroke="red" stroke-width="6" stroke-dasharray="1,5" d="M403.75,-526C474.51,-552.71 559.97,-581.71 639.21,-600 668.62,-606.79 700.5,-611.9 731.02,-615.75"/>
<polygon fill="red" stroke="red" stroke-width="6" points="730.75,-621 741.31,-617 732.02,-610.58 730.75,-621"/>
</g>
<!-- ProcessAreaVeterinaryClinicAdministration&#45;&gt;ProcessAreaCompleteVetVisit -->
<g id="edge21" class="edge">
<title>ProcessAreaVeterinaryClinicAdministration&#45;&gt;ProcessAreaCompleteVetVisit</title>
<path fill="none" stroke="red" stroke-width="6" stroke-dasharray="1,5" d="M427.88,-453.68C450.6,-449.33 473.17,-443.29 494,-435 566.29,-406.23 566.91,-364.71 638.34,-325.74"/>
<polygon fill="red" stroke="red" stroke-width="6" points="640.98,-330.28 647.41,-321 636.12,-320.98 640.98,-330.28"/>
</g>
<!-- changeAvailabilityTime -->
<g id="node30" class="node">
<title>changeAvailabilityTime</title>
<ellipse fill="none" stroke="black" cx="247" cy="-399" rx="111.03" ry="26.74"/>
<text text-anchor="middle" x="247" y="-402.8" font-family="Handlee" font-size="14.00">Can I change whether I&#39;m</text>
<text text-anchor="middle" x="247" y="-387.8" font-family="Handlee" font-size="14.00">Working at this time?</text>
</g>
<!-- hirePerson -->
<g id="node31" class="node">
<title>hirePerson</title>
<ellipse fill="none" stroke="black" cx="247" cy="-336" rx="92.88" ry="18"/>
<text text-anchor="middle" x="247" y="-332.3" font-family="Handlee" font-size="14.00">Can I hire this person?</text>
</g>
<!-- firePerson -->
<g id="node32" class="node">
<title>firePerson</title>
<ellipse fill="none" stroke="black" cx="247" cy="-282" rx="74.19" ry="18"/>
<text text-anchor="middle" x="247" y="-278.3" font-family="Handlee" font-size="14.00">I fire this person?</text>
</g>
<!-- systemLog -->
<g id="node33" class="node">
<title>systemLog</title>
<polygon fill="none" stroke="black" points="0,-1233 0,-1279 494,-1279 494,-1233 0,-1233"/>
<text text-anchor="middle" x="247" y="-1263.8" font-family="Handlee" font-size="14.00">System Log</text>
<polyline fill="none" stroke="black" points="0,-1256 494,-1256 "/>
<text text-anchor="middle" x="35.5" y="-1240.8" font-family="Handlee" font-size="14.00">DateTime</text>
<polyline fill="none" stroke="black" points="71,-1233 71,-1256 "/>
<text text-anchor="middle" x="132" y="-1240.8" font-family="Handlee" font-size="14.00">MicroserviceName</text>
<polyline fill="none" stroke="black" points="193,-1233 193,-1256 "/>
<text text-anchor="middle" x="236" y="-1240.8" font-family="Handlee" font-size="14.00">StatusCode</text>
<polyline fill="none" stroke="black" points="279,-1233 279,-1256 "/>
<text text-anchor="middle" x="319.5" y="-1240.8" font-family="Handlee" font-size="14.00">CallerEmail</text>
<polyline fill="none" stroke="black" points="360,-1233 360,-1256 "/>
<text text-anchor="middle" x="404" y="-1240.8" font-family="Handlee" font-size="14.00">ServerName</text>
<polyline fill="none" stroke="black" points="448,-1233 448,-1256 "/>
<text text-anchor="middle" x="471" y="-1240.8" font-family="Handlee" font-size="14.00">Note</text>
</g>
</g>
</svg>
