<?xml version="1.0" encoding="UTF-8" standalone="no"?>
<!DOCTYPE svg PUBLIC "-//W3C//DTD SVG 1.1//EN"
 "http://www.w3.org/Graphics/SVG/1.1/DTD/svg11.dtd">
<!-- Generated by graphviz version 2.43.0 (0)
 -->
<!-- Title: VeterinaryClinic Pages: 1 -->
<svg width="1879pt" height="1298pt"
 viewBox="0.00 0.00 1879.00 1297.50" xmlns="http://www.w3.org/2000/svg" xmlns:xlink="http://www.w3.org/1999/xlink">
<g id="graph0" class="graph" transform="scale(1 1) rotate(0) translate(4 1293.5)">
<title>VeterinaryClinic</title>
<polygon fill="white" stroke="transparent" points="-4,4 -4,-1293.5 1875,-1293.5 1875,4 -4,4"/>
<text text-anchor="middle" x="935.5" y="-7.8" font-family="Times,serif" font-size="14.00">Daniel&#39;s Veterinary Clinic</text>
<g id="clust1" class="cluster">
<title>cluster_StartVetVisit</title>
<polygon fill="none" stroke="black" points="129.81,-699 129.81,-1235 1863,-1235 1863,-699 129.81,-699"/>
<text text-anchor="middle" x="996.4" y="-1219.8" font-family="Times,serif" font-size="14.00">Start Vet Visit</text>
<text text-anchor="middle" x="996.4" y="-1204.8" font-family="Times,serif" font-size="14.00">I Am Able To Start Getting Help From The Vet</text>
</g>
<g id="clust2" class="cluster">
<title>cluster_VisitVet</title>
<polygon fill="none" stroke="black" points="741.31,-329 741.31,-691 1009.69,-691 1009.69,-329 741.31,-329"/>
<text text-anchor="middle" x="875.5" y="-675.8" font-family="Times,serif" font-size="14.00">Visit Vet</text>
<text text-anchor="middle" x="875.5" y="-660.8" font-family="Times,serif" font-size="14.00">The Vet Is Helping Me With My Pet</text>
</g>
<g id="clust3" class="cluster">
<title>cluster_CompleteVetVisit</title>
<polygon fill="none" stroke="black" points="639.21,-31 639.21,-321 1111.79,-321 1111.79,-31 639.21,-31"/>
<text text-anchor="middle" x="875.5" y="-305.8" font-family="Times,serif" font-size="14.00">Complete Vet Visit</text>
<text text-anchor="middle" x="875.5" y="-290.8" font-family="Times,serif" font-size="14.00">I Am Prepared To Continue My Relationship With The Clinic/Vet</text>
</g>
<g id="clust4" class="cluster">
<title>cluster_VeterinaryClinicAdministration</title>
<polygon fill="none" stroke="black" points="66.12,-269 66.12,-539 427.88,-539 427.88,-269 66.12,-269"/>
<text text-anchor="middle" x="247" y="-523.8" font-family="Times,serif" font-size="14.00">Veterinary Clinic Administration</text>
<text text-anchor="middle" x="247" y="-508.8" font-family="Times,serif" font-size="14.00">We Are Able To Treat Patients</text>
</g>
<!-- ProcessAreaStartVetVisit -->
<!-- ProcessAreaVisitVet -->
<!-- ProcessAreaStartVetVisit&#45;&gt;ProcessAreaVisitVet -->
<g id="edge19" class="edge">
<title>ProcessAreaStartVetVisit&#45;&gt;ProcessAreaVisitVet</title>
<path fill="none" stroke="red" stroke-width="7" stroke-dasharray="1,5" d="M414.06,-699C512.84,-683.54 636.87,-664.12 731.24,-649.35"/>
<polygon fill="red" stroke="red" stroke-width="7" points="732.38,-655.37 741.31,-647.77 730.48,-643.27 732.38,-655.37"/>
<polygon fill="none" stroke="red" points="512,-780.5 512,-805.5 622,-805.5 622,-780.5 512,-780.5"/>
<text text-anchor="start" x="530.5" y="-789.3" font-family="Handlee" font-size="14.00" fill="red">REQUIRED</text>
<polygon fill="none" stroke="red" points="512,-755.5 512,-780.5 622,-780.5 622,-755.5 512,-755.5"/>
<text text-anchor="start" x="551.5" y="-764.3" font-family="Handlee" font-size="14.00" fill="red">Email</text>
<polygon fill="none" stroke="red" points="512,-730.5 512,-755.5 622,-755.5 622,-730.5 512,-730.5"/>
<text text-anchor="start" x="536.5" y="-739.3" font-family="Handlee" font-size="14.00" fill="red">AuthToken</text>
<polygon fill="none" stroke="red" points="512,-705.5 512,-730.5 622,-730.5 622,-705.5 512,-705.5"/>
<text text-anchor="start" x="546.5" y="-714.3" font-family="Handlee" font-size="14.00" fill="red">Doctor</text>
<polygon fill="none" stroke="red" points="512,-680.5 512,-705.5 622,-705.5 622,-680.5 512,-680.5"/>
<text text-anchor="start" x="517" y="-689.3" font-family="Handlee" font-size="14.00" fill="red">AppointmentTime</text>
</g>
<!-- doYouKnowMeInput -->
<g id="node2" class="node">
<title>doYouKnowMeInput</title>
<polygon fill="none" stroke="black" points="211.5,-983.5 211.5,-1052.5 282.5,-1052.5 282.5,-983.5 211.5,-983.5"/>
<text text-anchor="middle" x="247" y="-1037.3" font-family="Handlee" font-size="14.00">Email</text>
<polyline fill="none" stroke="black" points="211.5,-1029.5 282.5,-1029.5 "/>
<text text-anchor="middle" x="247" y="-1014.3" font-family="Handlee" font-size="14.00">[OTP]</text>
<polyline fill="none" stroke="black" points="211.5,-1006.5 282.5,-1006.5 "/>
<text text-anchor="middle" x="247" y="-991.3" font-family="Handlee" font-size="14.00">[STUFF]</text>
</g>
<!-- doYouKnowMe -->
<g id="node5" class="node">
<title>doYouKnowMe</title>
<ellipse fill="none" stroke="black" cx="875" cy="-1042" rx="50.41" ry="26.74"/>
<text text-anchor="middle" x="875" y="-1045.8" font-family="Handlee" font-size="14.00">Do you</text>
<text text-anchor="middle" x="875" y="-1030.8" font-family="Handlee" font-size="14.00">know me?</text>
</g>
<!-- doYouKnowMeInput&#45;&gt;doYouKnowMe -->
<g id="edge2" class="edge">
<title>doYouKnowMeInput&#45;&gt;doYouKnowMe</title>
<path fill="none" stroke="black" d="M282.55,-1019.32C384.62,-1023.24 685.7,-1034.78 814.47,-1039.72"/>
<polygon fill="black" stroke="black" points="814.42,-1043.22 824.55,-1040.1 814.69,-1036.22 814.42,-1043.22"/>
</g>
<!-- doYouKnowMeOutput -->
<g id="node3" class="node">
<title>doYouKnowMeOutput</title>
<polygon fill="none" stroke="black" points="1263.5,-1096 1263.5,-1188 1386.5,-1188 1386.5,-1096 1263.5,-1096"/>
<text text-anchor="middle" x="1281.5" y="-1172.8" font-family="Handlee" font-size="14.00">Yes</text>
<polyline fill="none" stroke="black" points="1299.5,-1165 1299.5,-1188 "/>
<text text-anchor="middle" x="1316.5" y="-1172.8" font-family="Handlee" font-size="14.00">No</text>
<polyline fill="none" stroke="black" points="1333.5,-1165 1333.5,-1188 "/>
<text text-anchor="middle" x="1360" y="-1172.8" font-family="Handlee" font-size="14.00">Maybe</text>
<polyline fill="none" stroke="black" points="1263.5,-1165 1386.5,-1165 "/>
<text text-anchor="middle" x="1325" y="-1149.8" font-family="Handlee" font-size="14.00">Email</text>
<polyline fill="none" stroke="black" points="1263.5,-1142 1386.5,-1142 "/>
<text text-anchor="middle" x="1325" y="-1126.8" font-family="Handlee" font-size="14.00">[OTP]</text>
<polyline fill="none" stroke="black" points="1263.5,-1119 1386.5,-1119 "/>
<text text-anchor="middle" x="1325" y="-1103.8" font-family="Handlee" font-size="14.00">[STUFF]</text>
</g>
<!-- knownEMails -->
<g id="node4" class="node">
<title>knownEMails</title>
<polygon fill="none" stroke="black" points="196.11,-1071 297.89,-1071 334.14,-1107 159.86,-1107 196.11,-1071"/>
<text text-anchor="middle" x="247" y="-1085.3" font-family="Handlee" font-size="14.00">Known Emails</text>
</g>
<!-- knownEMails&#45;&gt;doYouKnowMe -->
<g id="edge1" class="edge">
<title>knownEMails&#45;&gt;doYouKnowMe</title>
<path fill="none" stroke="black" d="M311.47,-1084.23C432.91,-1075.12 696.58,-1055.32 814.7,-1046.45"/>
<polygon fill="black" stroke="black" points="815.27,-1049.92 824.98,-1045.68 814.75,-1042.94 815.27,-1049.92"/>
</g>
<!-- doYouKnowMe&#45;&gt;doYouKnowMeOutput -->
<g id="edge3" class="edge">
<title>doYouKnowMe&#45;&gt;doYouKnowMeOutput</title>
<path fill="none" stroke="black" d="M924.24,-1047.34C972.16,-1053.12 1047.57,-1063.49 1111.79,-1078 1159.74,-1088.83 1212.69,-1104.79 1253.7,-1118.07"/>
<polygon fill="black" stroke="black" points="1252.73,-1121.43 1263.32,-1121.2 1254.9,-1114.78 1252.73,-1121.43"/>
</g>
<!-- otpWaitList -->
<g id="node6" class="node">
<title>otpWaitList</title>
<polygon fill="none" stroke="black" points="1646.11,-1067 1747.89,-1067 1784.14,-1103 1609.86,-1103 1646.11,-1067"/>
<text text-anchor="middle" x="1697" y="-1081.3" font-family="Handlee" font-size="14.00">OTP Waitlist</text>
</g>
<!-- doYouKnowMe&#45;&gt;otpWaitList -->
<g id="edge4" class="edge">
<title>doYouKnowMe&#45;&gt;otpWaitList</title>
<path fill="none" stroke="black" d="M934.85,-1048.11C989.9,-1053.6 1074.43,-1061.48 1148,-1066 1315.59,-1076.29 1512.37,-1081.42 1618.58,-1083.62"/>
<polygon fill="black" stroke="black" points="934.88,-1044.59 924.58,-1047.07 934.18,-1051.56 934.88,-1044.59"/>
<polygon fill="black" stroke="black" points="1618.81,-1087.12 1628.88,-1083.83 1618.95,-1080.12 1618.81,-1087.12"/>
</g>
<!-- areYouSureItsMe -->
<g id="node9" class="node">
<title>areYouSureItsMe</title>
<ellipse fill="none" stroke="black" cx="1325" cy="-1030" rx="62.87" ry="26.74"/>
<text text-anchor="middle" x="1325" y="-1033.8" font-family="Handlee" font-size="14.00">Are you sure</text>
<text text-anchor="middle" x="1325" y="-1018.8" font-family="Handlee" font-size="14.00">it&#39;s me?</text>
</g>
<!-- doYouKnowMe&#45;&gt;areYouSureItsMe -->
<g id="edge16" class="edge">
<title>doYouKnowMe&#45;&gt;areYouSureItsMe</title>
<path fill="none" stroke="red" stroke-dasharray="1,5" d="M925.23,-1040.68C1004.32,-1038.56 1160.08,-1034.39 1251.78,-1031.93"/>
<polygon fill="red" stroke="red" points="1251.91,-1035.43 1261.82,-1031.67 1251.72,-1028.43 1251.91,-1035.43"/>
</g>
<!-- whatTimesAreOpenForAnAppointment -->
<g id="node15" class="node">
<title>whatTimesAreOpenForAnAppointment</title>
<ellipse fill="none" stroke="black" cx="1325" cy="-744" rx="72.66" ry="37.45"/>
<text text-anchor="middle" x="1325" y="-755.3" font-family="Handlee" font-size="14.00">What times are</text>
<text text-anchor="middle" x="1325" y="-740.3" font-family="Handlee" font-size="14.00">open for an</text>
<text text-anchor="middle" x="1325" y="-725.3" font-family="Handlee" font-size="14.00">appointment?</text>
</g>
<!-- doYouKnowMe&#45;&gt;whatTimesAreOpenForAnAppointment -->
<g id="edge17" class="edge">
<title>doYouKnowMe&#45;&gt;whatTimesAreOpenForAnAppointment</title>
<path fill="none" stroke="red" stroke-dasharray="1,5" d="M923.32,-1049.75C976.64,-1055.55 1062.32,-1055.55 1111.79,-1007 1181.26,-938.82 1082.51,-863.02 1148,-791 1171.72,-764.92 1208.15,-752.64 1241.73,-747.09"/>
<polygon fill="red" stroke="red" points="1242.65,-750.49 1252.04,-745.57 1241.64,-743.56 1242.65,-750.49"/>
</g>
<!-- canYouFitMeInForThisAppointment -->
<g id="node19" class="node">
<title>canYouFitMeInForThisAppointment</title>
<ellipse fill="none" stroke="black" cx="1325" cy="-948" rx="69.09" ry="37.45"/>
<text text-anchor="middle" x="1325" y="-959.3" font-family="Handlee" font-size="14.00">Can you fit me</text>
<text text-anchor="middle" x="1325" y="-944.3" font-family="Handlee" font-size="14.00">in for this</text>
<text text-anchor="middle" x="1325" y="-929.3" font-family="Handlee" font-size="14.00">appoointment?</text>
</g>
<!-- doYouKnowMe&#45;&gt;canYouFitMeInForThisAppointment -->
<g id="edge15" class="edge">
<title>doYouKnowMe&#45;&gt;canYouFitMeInForThisAppointment</title>
<path fill="none" stroke="red" stroke-dasharray="1,5" d="M924.87,-1037.59C972.94,-1032.59 1048.17,-1022.98 1111.79,-1007 1128.37,-1002.84 1131.67,-999.06 1148,-994 1181.77,-983.55 1219.65,-973.44 1251.59,-965.38"/>
<polygon fill="red" stroke="red" points="1252.46,-968.77 1261.31,-962.94 1250.75,-961.98 1252.46,-968.77"/>
</g>
<!-- areYouSureItsMeInput -->
<g id="node7" class="node">
<title>areYouSureItsMeInput</title>
<polygon fill="none" stroke="black" points="839.5,-1087.5 839.5,-1156.5 910.5,-1156.5 910.5,-1087.5 839.5,-1087.5"/>
<text text-anchor="middle" x="875" y="-1141.3" font-family="Handlee" font-size="14.00">Email</text>
<polyline fill="none" stroke="black" points="839.5,-1133.5 910.5,-1133.5 "/>
<text text-anchor="middle" x="875" y="-1118.3" font-family="Handlee" font-size="14.00">OTP</text>
<polyline fill="none" stroke="black" points="839.5,-1110.5 910.5,-1110.5 "/>
<text text-anchor="middle" x="875" y="-1095.3" font-family="Handlee" font-size="14.00">[STUFF]</text>
</g>
<!-- areYouSureItsMeInput&#45;&gt;areYouSureItsMe -->
<g id="edge6" class="edge">
<title>areYouSureItsMeInput&#45;&gt;areYouSureItsMe</title>
<path fill="none" stroke="black" d="M910.84,-1115.93C956.92,-1107.79 1040.62,-1092.68 1111.79,-1078 1161.62,-1067.72 1217.76,-1054.97 1259.78,-1045.19"/>
<polygon fill="black" stroke="black" points="1260.66,-1048.58 1269.6,-1042.9 1259.07,-1041.76 1260.66,-1048.58"/>
</g>
<!-- areYouSureItsMeOutput -->
<g id="node8" class="node">
<title>areYouSureItsMeOutput</title>
<polygon fill="none" stroke="black" points="1658.5,-979.5 1658.5,-1048.5 1735.5,-1048.5 1735.5,-979.5 1658.5,-979.5"/>
<text text-anchor="middle" x="1678" y="-1033.3" font-family="Handlee" font-size="14.00">Yes</text>
<polyline fill="none" stroke="black" points="1697.5,-1025.5 1697.5,-1048.5 "/>
<text text-anchor="middle" x="1716.5" y="-1033.3" font-family="Handlee" font-size="14.00">No</text>
<polyline fill="none" stroke="black" points="1658.5,-1025.5 1735.5,-1025.5 "/>
<text text-anchor="middle" x="1697" y="-1010.3" font-family="Handlee" font-size="14.00">TempToken</text>
<polyline fill="none" stroke="black" points="1658.5,-1002.5 1735.5,-1002.5 "/>
<text text-anchor="middle" x="1697" y="-987.3" font-family="Handlee" font-size="14.00">[STUFF]</text>
</g>
<!-- areYouSureItsMe&#45;&gt;otpWaitList -->
<g id="edge5" class="edge">
<title>areYouSureItsMe&#45;&gt;otpWaitList</title>
<path fill="none" stroke="black" d="M1394.61,-1040.2C1460.78,-1050.04 1560.4,-1064.84 1626.78,-1074.71"/>
<polygon fill="black" stroke="black" points="1395.03,-1036.72 1384.63,-1038.71 1394,-1043.65 1395.03,-1036.72"/>
<polygon fill="black" stroke="black" points="1626.32,-1078.18 1636.73,-1076.19 1627.35,-1071.26 1626.32,-1078.18"/>
</g>
<!-- areYouSureItsMe&#45;&gt;areYouSureItsMeOutput -->
<g id="edge7" class="edge">
<title>areYouSureItsMe&#45;&gt;areYouSureItsMeOutput</title>
<path fill="none" stroke="black" d="M1387.93,-1027.32C1461.26,-1024.15 1581.79,-1018.94 1648.27,-1016.06"/>
<polygon fill="black" stroke="black" points="1648.62,-1019.55 1658.46,-1015.62 1648.32,-1012.56 1648.62,-1019.55"/>
</g>
<!-- canISeeTheDoctorNowInput -->
<g id="node10" class="node">
<title>canISeeTheDoctorNowInput</title>
<polygon fill="none" stroke="black" points="208.5,-881.5 208.5,-950.5 285.5,-950.5 285.5,-881.5 208.5,-881.5"/>
<text text-anchor="middle" x="247" y="-935.3" font-family="Handlee" font-size="14.00">EMail</text>
<polyline fill="none" stroke="black" points="208.5,-927.5 285.5,-927.5 "/>
<text text-anchor="middle" x="247" y="-912.3" font-family="Handlee" font-size="14.00">TempToken</text>
<polyline fill="none" stroke="black" points="208.5,-904.5 285.5,-904.5 "/>
<text text-anchor="middle" x="247" y="-889.3" font-family="Handlee" font-size="14.00">[STUFF]</text>
</g>
<!-- canISeeTheDoctorNow -->
<g id="node12" class="node">
<title>canISeeTheDoctorNow</title>
<ellipse fill="none" stroke="black" cx="875" cy="-916" rx="83.38" ry="26.74"/>
<text text-anchor="middle" x="875" y="-919.8" font-family="Handlee" font-size="14.00">Can I See</text>
<text text-anchor="middle" x="875" y="-904.8" font-family="Handlee" font-size="14.00">The Doctor Now?</text>
</g>
<!-- canISeeTheDoctorNowInput&#45;&gt;canISeeTheDoctorNow -->
<g id="edge8" class="edge">
<title>canISeeTheDoctorNowInput&#45;&gt;canISeeTheDoctorNow</title>
<path fill="none" stroke="black" d="M285.75,-916C382.46,-916 641.3,-916 781.2,-916"/>
<polygon fill="black" stroke="black" points="781.48,-919.5 791.48,-916 781.48,-912.5 781.48,-919.5"/>
</g>
<!-- canISeeTheDoctorNowOutput -->
<g id="node11" class="node">
<title>canISeeTheDoctorNowOutput</title>
<polygon fill="none" stroke="black" points="1148,-800 1148,-892 1502,-892 1502,-800 1148,-800"/>
<text text-anchor="middle" x="1166" y="-876.8" font-family="Handlee" font-size="14.00">Yes</text>
<polyline fill="none" stroke="black" points="1184,-869 1184,-892 "/>
<text text-anchor="middle" x="1239" y="-876.8" font-family="Handlee" font-size="14.00">No Appointment</text>
<polyline fill="none" stroke="black" points="1294,-869 1294,-892 "/>
<text text-anchor="middle" x="1349" y="-876.8" font-family="Handlee" font-size="14.00">No Our Problem</text>
<polyline fill="none" stroke="black" points="1404,-869 1404,-892 "/>
<text text-anchor="middle" x="1453" y="-876.8" font-family="Handlee" font-size="14.00">Who Are You?</text>
<polyline fill="none" stroke="black" points="1148,-869 1502,-869 "/>
<text text-anchor="middle" x="1325" y="-853.8" font-family="Handlee" font-size="14.00">EMail</text>
<polyline fill="none" stroke="black" points="1148,-846 1502,-846 "/>
<text text-anchor="middle" x="1325" y="-830.8" font-family="Handlee" font-size="14.00">TempToken</text>
<polyline fill="none" stroke="black" points="1148,-823 1502,-823 "/>
<text text-anchor="middle" x="1325" y="-807.8" font-family="Handlee" font-size="14.00">[STUFF]</text>
</g>
<!-- canISeeTheDoctorNow&#45;&gt;areYouSureItsMe -->
<g id="edge18" class="edge">
<title>canISeeTheDoctorNow&#45;&gt;areYouSureItsMe</title>
<path fill="none" stroke="red" stroke-dasharray="1,5" d="M958.56,-914.72C1006,-917.27 1065.23,-926.24 1111.79,-952 1133.35,-963.93 1126.74,-981.53 1148,-994 1179.33,-1012.38 1218.57,-1021.48 1252.05,-1025.95"/>
<polygon fill="red" stroke="red" points="1251.89,-1029.46 1262.24,-1027.2 1252.74,-1022.51 1251.89,-1029.46"/>
</g>
<!-- canISeeTheDoctorNow&#45;&gt;canISeeTheDoctorNowOutput -->
<g id="edge9" class="edge">
<title>canISeeTheDoctorNow&#45;&gt;canISeeTheDoctorNowOutput</title>
<path fill="none" stroke="black" d="M950.89,-904.71C997.25,-897.69 1057.99,-888.42 1111.79,-880 1120.29,-878.67 1128.99,-877.3 1137.77,-875.92"/>
<polygon fill="black" stroke="black" points="1138.38,-879.36 1147.71,-874.35 1137.29,-872.45 1138.38,-879.36"/>
</g>
<!-- docSchedule -->
<g id="node13" class="node">
<title>docSchedule</title>
<polygon fill="none" stroke="black" points="831.78,-795 918.22,-795 949,-871 801,-871 831.78,-795"/>
<text text-anchor="middle" x="875" y="-836.8" font-family="Handlee" font-size="14.00">Doctors&#39;</text>
<text text-anchor="middle" x="875" y="-821.8" font-family="Handlee" font-size="14.00">Schedules</text>
</g>
<!-- docSchedule&#45;&gt;whatTimesAreOpenForAnAppointment -->
<g id="edge12" class="edge">
<title>docSchedule&#45;&gt;whatTimesAreOpenForAnAppointment</title>
<path fill="none" stroke="black" d="M929.59,-822.35C1008.51,-806.68 1156.37,-777.3 1246.92,-759.31"/>
<polygon fill="black" stroke="black" points="1247.73,-762.72 1256.86,-757.34 1246.37,-755.85 1247.73,-762.72"/>
</g>
<!-- whatTimesAreOpenForAnAppointmentInput -->
<g id="node14" class="node">
<title>whatTimesAreOpenForAnAppointmentInput</title>
<polygon fill="none" stroke="black" points="718.5,-707.5 718.5,-776.5 1031.5,-776.5 1031.5,-707.5 718.5,-707.5"/>
<text text-anchor="middle" x="742" y="-738.3" font-family="Handlee" font-size="14.00">Email</text>
<polyline fill="none" stroke="black" points="765.5,-707.5 765.5,-776.5 "/>
<text text-anchor="middle" x="790.5" y="-738.3" font-family="Handlee" font-size="14.00">Token</text>
<polyline fill="none" stroke="black" points="815.5,-707.5 815.5,-776.5 "/>
<text text-anchor="middle" x="858.5" y="-738.3" font-family="Handlee" font-size="14.00">[StartDate]</text>
<polyline fill="none" stroke="black" points="901.5,-707.5 901.5,-776.5 "/>
<text text-anchor="middle" x="931" y="-761.3" font-family="Handlee" font-size="14.00">[DAY</text>
<polyline fill="none" stroke="black" points="901.5,-753.5 960.5,-753.5 "/>
<text text-anchor="middle" x="931" y="-738.3" font-family="Handlee" font-size="14.00">Week</text>
<polyline fill="none" stroke="black" points="901.5,-730.5 960.5,-730.5 "/>
<text text-anchor="middle" x="931" y="-715.3" font-family="Handlee" font-size="14.00">Month]</text>
<polyline fill="none" stroke="black" points="960.5,-707.5 960.5,-776.5 "/>
<text text-anchor="middle" x="996" y="-738.3" font-family="Handlee" font-size="14.00">[STUFF]</text>
</g>
<!-- whatTimesAreOpenForAnAppointmentInput&#45;&gt;whatTimesAreOpenForAnAppointment -->
<g id="edge10" class="edge">
<title>whatTimesAreOpenForAnAppointmentInput&#45;&gt;whatTimesAreOpenForAnAppointment</title>
<path fill="none" stroke="black" d="M1031.75,-742.7C1102.41,-743.01 1183.08,-743.37 1241.75,-743.63"/>
<polygon fill="black" stroke="black" points="1242.05,-747.13 1252.07,-743.68 1242.08,-740.13 1242.05,-747.13"/>
</g>
<!-- whatTimesAreOpenForAnAppointmentOutput -->
<g id="node16" class="node">
<title>whatTimesAreOpenForAnAppointmentOutput</title>
<polygon fill="none" stroke="black" points="1539,-726 1539,-762 1855,-762 1855,-726 1539,-726"/>
<text text-anchor="middle" x="1562.5" y="-740.3" font-family="Handlee" font-size="14.00">Email</text>
<polyline fill="none" stroke="black" points="1586,-726 1586,-762 "/>
<text text-anchor="middle" x="1611" y="-740.3" font-family="Handlee" font-size="14.00">Token</text>
<polyline fill="none" stroke="black" points="1636,-726 1636,-762 "/>
<text text-anchor="middle" x="1664.5" y="-740.3" font-family="Handlee" font-size="14.00">Doctor</text>
<polyline fill="none" stroke="black" points="1693,-726 1693,-762 "/>
<text text-anchor="middle" x="1716.5" y="-740.3" font-family="Handlee" font-size="14.00">Start</text>
<polyline fill="none" stroke="black" points="1740,-726 1740,-762 "/>
<text text-anchor="middle" x="1762" y="-740.3" font-family="Handlee" font-size="14.00">Stop</text>
<polyline fill="none" stroke="black" points="1784,-726 1784,-762 "/>
<text text-anchor="middle" x="1819.5" y="-740.3" font-family="Handlee" font-size="14.00">[STUFF]</text>
</g>
<!-- whatTimesAreOpenForAnAppointment&#45;&gt;whatTimesAreOpenForAnAppointmentOutput -->
<g id="edge11" class="edge">
<title>whatTimesAreOpenForAnAppointment&#45;&gt;whatTimesAreOpenForAnAppointmentOutput</title>
<path fill="none" stroke="black" d="M1398.22,-744C1435.64,-744 1483.02,-744 1528.91,-744"/>
<polygon fill="black" stroke="black" points="1528.99,-747.5 1538.99,-744 1528.99,-740.5 1528.99,-747.5"/>
</g>
<!-- canYouFitMeInForThisAppointmentInput -->
<g id="node17" class="node">
<title>canYouFitMeInForThisAppointmentInput</title>
<polygon fill="none" stroke="black" points="717,-961 717,-997 1033,-997 1033,-961 717,-961"/>
<text text-anchor="middle" x="740.5" y="-975.3" font-family="Handlee" font-size="14.00">Email</text>
<polyline fill="none" stroke="black" points="764,-961 764,-997 "/>
<text text-anchor="middle" x="789" y="-975.3" font-family="Handlee" font-size="14.00">Token</text>
<polyline fill="none" stroke="black" points="814,-961 814,-997 "/>
<text text-anchor="middle" x="842.5" y="-975.3" font-family="Handlee" font-size="14.00">Doctor</text>
<polyline fill="none" stroke="black" points="871,-961 871,-997 "/>
<text text-anchor="middle" x="894.5" y="-975.3" font-family="Handlee" font-size="14.00">Start</text>
<polyline fill="none" stroke="black" points="918,-961 918,-997 "/>
<text text-anchor="middle" x="940" y="-975.3" font-family="Handlee" font-size="14.00">Stop</text>
<polyline fill="none" stroke="black" points="962,-961 962,-997 "/>
<text text-anchor="middle" x="997.5" y="-975.3" font-family="Handlee" font-size="14.00">[STUFF]</text>
</g>
<!-- canYouFitMeInForThisAppointmentInput&#45;&gt;canYouFitMeInForThisAppointment -->
<g id="edge13" class="edge">
<title>canYouFitMeInForThisAppointmentInput&#45;&gt;canYouFitMeInForThisAppointment</title>
<path fill="none" stroke="black" d="M1033,-968.14C1104.98,-963.16 1187.12,-957.47 1245.74,-953.42"/>
<polygon fill="black" stroke="black" points="1246.3,-956.89 1256.03,-952.7 1245.81,-949.9 1246.3,-956.89"/>
</g>
<!-- canYouFitMeInForThisAppointmentOutput -->
<g id="node18" class="node">
<title>canYouFitMeInForThisAppointmentOutput</title>
<polygon fill="none" stroke="black" points="1643.5,-868 1643.5,-960 1750.5,-960 1750.5,-868 1643.5,-868"/>
<text text-anchor="middle" x="1670.5" y="-944.8" font-family="Handlee" font-size="14.00">Yes</text>
<polyline fill="none" stroke="black" points="1697.5,-937 1697.5,-960 "/>
<text text-anchor="middle" x="1724" y="-944.8" font-family="Handlee" font-size="14.00">No</text>
<polyline fill="none" stroke="black" points="1643.5,-937 1750.5,-937 "/>
<text text-anchor="middle" x="1697" y="-921.8" font-family="Handlee" font-size="14.00">Token</text>
<polyline fill="none" stroke="black" points="1643.5,-914 1750.5,-914 "/>
<text text-anchor="middle" x="1697" y="-898.8" font-family="Handlee" font-size="14.00">Confirmation ID</text>
<polyline fill="none" stroke="black" points="1643.5,-891 1750.5,-891 "/>
<text text-anchor="middle" x="1697" y="-875.8" font-family="Handlee" font-size="14.00">[STUFF]</text>
</g>
<!-- canYouFitMeInForThisAppointment&#45;&gt;canYouFitMeInForThisAppointmentOutput -->
<g id="edge14" class="edge">
<title>canYouFitMeInForThisAppointment&#45;&gt;canYouFitMeInForThisAppointmentOutput</title>
<path fill="none" stroke="black" d="M1393.43,-941.8C1461.69,-935.53 1566.41,-925.91 1633.03,-919.79"/>
<polygon fill="black" stroke="black" points="1633.74,-923.24 1643.38,-918.84 1633.1,-916.27 1633.74,-923.24"/>
</g>
<!-- getBillingInfo -->
<g id="node21" class="node">
<title>getBillingInfo</title>
<ellipse fill="none" stroke="black" cx="875" cy="-564" rx="84.29" ry="26.74"/>
<text text-anchor="middle" x="875" y="-567.8" font-family="Handlee" font-size="14.00">What&#39;s your billing</text>
<text text-anchor="middle" x="875" y="-552.8" font-family="Handlee" font-size="14.00">information?</text>
</g>
<!-- recommendTest -->
<g id="node22" class="node">
<title>recommendTest</title>
<ellipse fill="none" stroke="black" cx="875" cy="-501" rx="72.59" ry="18"/>
<text text-anchor="middle" x="875" y="-497.3" font-family="Handlee" font-size="14.00">Recommend Test</text>
</g>
<!-- initialAssessment -->
<g id="node23" class="node">
<title>initialAssessment</title>
<ellipse fill="none" stroke="black" cx="875" cy="-447" rx="76.89" ry="18"/>
<text text-anchor="middle" x="875" y="-443.3" font-family="Handlee" font-size="14.00">Initial Assessment</text>
</g>
<!-- getVisitCompletionPaperwork -->
<g id="node24" class="node">
<title>getVisitCompletionPaperwork</title>
<ellipse fill="none" stroke="black" cx="875" cy="-374" rx="88.28" ry="37.45"/>
<text text-anchor="middle" x="875" y="-385.3" font-family="Handlee" font-size="14.00">Can you give me</text>
<text text-anchor="middle" x="875" y="-370.3" font-family="Handlee" font-size="14.00">the visit completion</text>
<text text-anchor="middle" x="875" y="-355.3" font-family="Handlee" font-size="14.00">paperwork?</text>
</g>
<!-- ProcessAreaCompleteVetVisit -->
<!-- getBill -->
<g id="node26" class="node">
<title>getBill</title>
<ellipse fill="none" stroke="black" cx="875" cy="-203" rx="39.79" ry="18"/>
<text text-anchor="middle" x="875" y="-199.3" font-family="Handlee" font-size="14.00">Get Bill</text>
</g>
<!-- payBill -->
<g id="node27" class="node">
<title>payBill</title>
<ellipse fill="none" stroke="black" cx="875" cy="-149" rx="38.19" ry="18"/>
<text text-anchor="middle" x="875" y="-145.3" font-family="Handlee" font-size="14.00">Pay Bill</text>
</g>
<!-- createFollowupAppointments -->
<g id="node28" class="node">
<title>createFollowupAppointments</title>
<ellipse fill="none" stroke="black" cx="875" cy="-76" rx="65.11" ry="37.45"/>
<text text-anchor="middle" x="875" y="-87.3" font-family="Handlee" font-size="14.00">Create</text>
<text text-anchor="middle" x="875" y="-72.3" font-family="Handlee" font-size="14.00">follow&#45;up</text>
<text text-anchor="middle" x="875" y="-57.3" font-family="Handlee" font-size="14.00">appointments</text>
</g>
<!-- ProcessAreaVeterinaryClinicAdministration -->
<!-- ProcessAreaVeterinaryClinicAdministration&#45;&gt;ProcessAreaVisitVet -->
<g id="edge21" class="edge">
<title>ProcessAreaVeterinaryClinicAdministration&#45;&gt;ProcessAreaVisitVet</title>
<path fill="none" stroke="red" stroke-width="7" stroke-dasharray="1,5" d="M423.16,-539C489.99,-561.28 567.38,-584.55 639.21,-600 668.67,-606.34 700.55,-611.26 731.03,-615.06"/>
<polygon fill="red" stroke="red" stroke-width="7" points="730.65,-621.18 741.31,-616.3 732.12,-609.02 730.65,-621.18"/>
</g>
<!-- ProcessAreaVeterinaryClinicAdministration&#45;&gt;ProcessAreaCompleteVetVisit -->
<g id="edge20" class="edge">
<title>ProcessAreaVeterinaryClinicAdministration&#45;&gt;ProcessAreaCompleteVetVisit</title>
<path fill="none" stroke="red" stroke-width="7" stroke-dasharray="1,5" d="M427.88,-467.84C450.68,-463.31 473.27,-456.91 494,-448 568.82,-415.83 565.08,-368.64 638.1,-325.92"/>
<polygon fill="red" stroke="red" stroke-width="7" points="641.16,-331.23 646.89,-321 635.18,-320.54 641.16,-331.23"/>
</g>
<!-- changeAvailabilityTime -->
<g id="node30" class="node">
<title>changeAvailabilityTime</title>
<ellipse fill="none" stroke="black" cx="247" cy="-412" rx="111.03" ry="26.74"/>
<text text-anchor="middle" x="247" y="-415.8" font-family="Handlee" font-size="14.00">Can I change whether I&#39;m</text>
<text text-anchor="middle" x="247" y="-400.8" font-family="Handlee" font-size="14.00">Working at this time?</text>
</g>
<!-- hirePerson -->
<g id="node31" class="node">
<title>hirePerson</title>
<ellipse fill="none" stroke="black" cx="247" cy="-349" rx="92.88" ry="18"/>
<text text-anchor="middle" x="247" y="-345.3" font-family="Handlee" font-size="14.00">Can I hire this person?</text>
</g>
<!-- firePerson -->
<g id="node32" class="node">
<title>firePerson</title>
<ellipse fill="none" stroke="black" cx="247" cy="-295" rx="74.19" ry="18"/>
<text text-anchor="middle" x="247" y="-291.3" font-family="Handlee" font-size="14.00">I fire this person?</text>
</g>
<!-- systemLog -->
<g id="node33" class="node">
<title>systemLog</title>
<polygon fill="none" stroke="black" points="0,-1243 0,-1289 494,-1289 494,-1243 0,-1243"/>
<text text-anchor="middle" x="247" y="-1273.8" font-family="Handlee" font-size="14.00">System Log</text>
<polyline fill="none" stroke="black" points="0,-1266 494,-1266 "/>
<text text-anchor="middle" x="35.5" y="-1250.8" font-family="Handlee" font-size="14.00">DateTime</text>
<polyline fill="none" stroke="black" points="71,-1243 71,-1266 "/>
<text text-anchor="middle" x="132" y="-1250.8" font-family="Handlee" font-size="14.00">MicroserviceName</text>
<polyline fill="none" stroke="black" points="193,-1243 193,-1266 "/>
<text text-anchor="middle" x="236" y="-1250.8" font-family="Handlee" font-size="14.00">StatusCode</text>
<polyline fill="none" stroke="black" points="279,-1243 279,-1266 "/>
<text text-anchor="middle" x="319.5" y="-1250.8" font-family="Handlee" font-size="14.00">CallerEmail</text>
<polyline fill="none" stroke="black" points="360,-1243 360,-1266 "/>
<text text-anchor="middle" x="404" y="-1250.8" font-family="Handlee" font-size="14.00">ServerName</text>
<polyline fill="none" stroke="black" points="448,-1243 448,-1266 "/>
<text text-anchor="middle" x="471" y="-1250.8" font-family="Handlee" font-size="14.00">Note</text>
</g>
</g>
</svg>
