<?xml version="1.0" encoding="UTF-8" standalone="no"?>
<!DOCTYPE svg PUBLIC "-//W3C//DTD SVG 1.1//EN"
 "http://www.w3.org/Graphics/SVG/1.1/DTD/svg11.dtd">
<!-- Generated by graphviz version 2.49.3 (20211023.0002)
 -->
<!-- Title: VeterinaryClinic Pages: 1 -->
<svg width="1541pt" height="1100pt"
 viewBox="0.00 0.00 1540.72 1099.50" xmlns="http://www.w3.org/2000/svg" xmlns:xlink="http://www.w3.org/1999/xlink">
<g id="graph0" class="graph" transform="scale(1 1) rotate(0) translate(4 1095.5)">
<title>VeterinaryClinic</title>
<polygon fill="white" stroke="transparent" points="-4,4 -4,-1095.5 1536.72,-1095.5 1536.72,4 -4,4"/>
<text text-anchor="middle" x="766.36" y="-7.8" font-family="Times New Roman,serif" font-size="14.00">Daniel&#39;s Veterinary Clinic</text>
<g id="clust1" class="cluster">
<title>cluster_StartVetVisit</title>
<polygon fill="none" stroke="black" points="101.5,-459 101.5,-1036 1330.75,-1036 1330.75,-459 101.5,-459"/>
<text text-anchor="middle" x="716.12" y="-1020.8" font-family="Times New Roman,serif" font-size="14.00">Start Vet Visit</text>
</g>
<g id="clust2" class="cluster">
<title>cluster_VisitVet</title>
<polygon fill="none" stroke="black" points="1000.77,-158 1000.77,-451 1231.73,-451 1231.73,-158 1000.77,-158"/>
<text text-anchor="middle" x="1116.25" y="-435.8" font-family="Times New Roman,serif" font-size="14.00">Visit Vet</text>
</g>
<g id="clust3" class="cluster">
<title>cluster_CompleteVetVisit</title>
<polygon fill="none" stroke="black" points="1351.75,-31 1351.75,-252 1524.72,-252 1524.72,-31 1351.75,-31"/>
<text text-anchor="middle" x="1438.24" y="-236.8" font-family="Times New Roman,serif" font-size="14.00">Complete Vet Visit</text>
</g>
<!-- doYouKnowMeInput -->
<g id="node1" class="node">
<title>doYouKnowMeInput</title>
<polygon fill="none" stroke="black" points="247.5,-935.5 247.5,-1004.5 319.5,-1004.5 319.5,-935.5 247.5,-935.5"/>
<text text-anchor="middle" x="283.5" y="-989.3" font-family="Handlee" font-size="14.00">Email</text>
<polyline fill="none" stroke="black" points="247.5,-981.5 319.5,-981.5 "/>
<text text-anchor="middle" x="283.5" y="-966.3" font-family="Handlee" font-size="14.00">[OTP]</text>
<polyline fill="none" stroke="black" points="247.5,-958.5 319.5,-958.5 "/>
<text text-anchor="middle" x="283.5" y="-943.3" font-family="Handlee" font-size="14.00">[STUFF]</text>
</g>
<!-- doYouKnowMe -->
<g id="node7" class="node">
<title>doYouKnowMe</title>
<ellipse fill="none" stroke="black" cx="700.87" cy="-923" rx="62.45" ry="26.74"/>
<text text-anchor="middle" x="700.87" y="-926.8" font-family="Handlee" font-size="14.00">Do you</text>
<text text-anchor="middle" x="700.87" y="-911.8" font-family="Handlee" font-size="14.00">know me?</text>
</g>
<!-- doYouKnowMeInput&#45;&gt;doYouKnowMe -->
<g id="edge2" class="edge">
<title>doYouKnowMeInput&#45;&gt;doYouKnowMe</title>
<path fill="none" stroke="black" d="M319.56,-966.03C388.01,-958.29 540.61,-941.02 630.31,-930.87"/>
<polygon fill="black" stroke="black" points="630.85,-934.33 640.39,-929.73 630.06,-927.38 630.85,-934.33"/>
</g>
<!-- doYouKnowMeOutput -->
<g id="node2" class="node">
<title>doYouKnowMeOutput</title>
<polygon fill="none" stroke="black" points="1047.25,-905 1047.25,-997 1185.25,-997 1185.25,-905 1047.25,-905"/>
<text text-anchor="middle" x="1067.75" y="-981.8" font-family="Handlee" font-size="14.00">Yes</text>
<polyline fill="none" stroke="black" points="1088.25,-974 1088.25,-997 "/>
<text text-anchor="middle" x="1105.75" y="-981.8" font-family="Handlee" font-size="14.00">No</text>
<polyline fill="none" stroke="black" points="1123.25,-974 1123.25,-997 "/>
<text text-anchor="middle" x="1154.25" y="-981.8" font-family="Handlee" font-size="14.00">Maybe</text>
<polyline fill="none" stroke="black" points="1047.25,-974 1185.25,-974 "/>
<text text-anchor="middle" x="1116.25" y="-958.8" font-family="Handlee" font-size="14.00">Email</text>
<polyline fill="none" stroke="black" points="1047.25,-951 1185.25,-951 "/>
<text text-anchor="middle" x="1116.25" y="-935.8" font-family="Handlee" font-size="14.00">[OTP]</text>
<polyline fill="none" stroke="black" points="1047.25,-928 1185.25,-928 "/>
<text text-anchor="middle" x="1116.25" y="-912.8" font-family="Handlee" font-size="14.00">[STUFF]</text>
</g>
<!-- knownEMails -->
<g id="node3" class="node">
<title>knownEMails</title>
<polygon fill="none" stroke="black" points="222.92,-881 344.08,-881 387.23,-917 179.77,-917 222.92,-881"/>
<text text-anchor="middle" x="283.5" y="-895.3" font-family="Handlee" font-size="14.00">Known Emails</text>
</g>
<!-- knownEMails&#45;&gt;doYouKnowMe -->
<g id="edge1" class="edge">
<title>knownEMails&#45;&gt;doYouKnowMe</title>
<path fill="none" stroke="black" d="M371.83,-904.05C448.15,-908.46 557.58,-914.78 628.69,-918.89"/>
<polygon fill="black" stroke="black" points="628.71,-922.39 638.89,-919.48 629.11,-915.41 628.71,-922.39"/>
</g>
<!-- otpWaitList -->
<g id="node4" class="node">
<title>otpWaitList</title>
<polygon fill="none" stroke="black" points="1060.37,-850 1172.13,-850 1211.93,-886 1020.56,-886 1060.37,-850"/>
<text text-anchor="middle" x="1116.25" y="-864.3" font-family="Handlee" font-size="14.00">OTP Waitlist</text>
</g>
<!-- areYouSureItsMeInput -->
<g id="node5" class="node">
<title>areYouSureItsMeInput</title>
<polygon fill="none" stroke="black" points="247.5,-793.5 247.5,-862.5 319.5,-862.5 319.5,-793.5 247.5,-793.5"/>
<text text-anchor="middle" x="283.5" y="-847.3" font-family="Handlee" font-size="14.00">Email</text>
<polyline fill="none" stroke="black" points="247.5,-839.5 319.5,-839.5 "/>
<text text-anchor="middle" x="283.5" y="-824.3" font-family="Handlee" font-size="14.00">OTP</text>
<polyline fill="none" stroke="black" points="247.5,-816.5 319.5,-816.5 "/>
<text text-anchor="middle" x="283.5" y="-801.3" font-family="Handlee" font-size="14.00">[STUFF]</text>
</g>
<!-- areYouSureItsMe -->
<g id="node8" class="node">
<title>areYouSureItsMe</title>
<ellipse fill="none" stroke="black" cx="700.87" cy="-828" rx="74.49" ry="26.74"/>
<text text-anchor="middle" x="700.87" y="-831.8" font-family="Handlee" font-size="14.00">Are you sure</text>
<text text-anchor="middle" x="700.87" y="-816.8" font-family="Handlee" font-size="14.00">it&#39;s me?</text>
</g>
<!-- areYouSureItsMeInput&#45;&gt;areYouSureItsMe -->
<g id="edge6" class="edge">
<title>areYouSureItsMeInput&#45;&gt;areYouSureItsMe</title>
<path fill="none" stroke="black" d="M319.56,-828C384.53,-828 525.29,-828 616.15,-828"/>
<polygon fill="black" stroke="black" points="616.42,-831.5 626.42,-828 616.42,-824.5 616.42,-831.5"/>
</g>
<!-- areYouSureItsMeOutput -->
<g id="node6" class="node">
<title>areYouSureItsMeOutput</title>
<polygon fill="none" stroke="black" points="1067.25,-762.5 1067.25,-831.5 1165.25,-831.5 1165.25,-762.5 1067.25,-762.5"/>
<text text-anchor="middle" x="1093.25" y="-816.3" font-family="Handlee" font-size="14.00">Yes</text>
<polyline fill="none" stroke="black" points="1119.25,-808.5 1119.25,-831.5 "/>
<text text-anchor="middle" x="1142.25" y="-816.3" font-family="Handlee" font-size="14.00">No</text>
<polyline fill="none" stroke="black" points="1067.25,-808.5 1165.25,-808.5 "/>
<text text-anchor="middle" x="1116.25" y="-793.3" font-family="Handlee" font-size="14.00">TempToken</text>
<polyline fill="none" stroke="black" points="1067.25,-785.5 1165.25,-785.5 "/>
<text text-anchor="middle" x="1116.25" y="-770.3" font-family="Handlee" font-size="14.00">[STUFF]</text>
</g>
<!-- doYouKnowMe&#45;&gt;doYouKnowMeOutput -->
<g id="edge3" class="edge">
<title>doYouKnowMe&#45;&gt;doYouKnowMeOutput</title>
<path fill="none" stroke="black" d="M762.42,-927.1C835.11,-932.03 957.17,-940.29 1036.96,-945.7"/>
<polygon fill="black" stroke="black" points="1036.75,-949.19 1046.96,-946.37 1037.22,-942.21 1036.75,-949.19"/>
</g>
<!-- doYouKnowMe&#45;&gt;otpWaitList -->
<g id="edge4" class="edge">
<title>doYouKnowMe&#45;&gt;otpWaitList</title>
<path fill="none" stroke="black" d="M770.76,-913.83C838.15,-904.87 941.46,-891.12 1017.37,-881.02"/>
<polygon fill="black" stroke="black" points="770.11,-910.39 760.66,-915.18 771.04,-917.33 770.11,-910.39"/>
<polygon fill="black" stroke="black" points="1017.97,-884.47 1027.42,-879.69 1017.05,-877.53 1017.97,-884.47"/>
</g>
<!-- areYouSureItsMe&#45;&gt;otpWaitList -->
<g id="edge5" class="edge">
<title>areYouSureItsMe&#45;&gt;otpWaitList</title>
<path fill="none" stroke="black" d="M783.1,-835.86C856.84,-843 964.86,-853.45 1037.5,-860.48"/>
<polygon fill="black" stroke="black" points="783.23,-832.36 772.94,-834.88 782.55,-839.32 783.23,-832.36"/>
<polygon fill="black" stroke="black" points="1037.22,-863.97 1047.51,-861.45 1037.89,-857 1037.22,-863.97"/>
</g>
<!-- areYouSureItsMe&#45;&gt;areYouSureItsMeOutput -->
<g id="edge7" class="edge">
<title>areYouSureItsMe&#45;&gt;areYouSureItsMeOutput</title>
<path fill="none" stroke="black" d="M773.88,-822.6C854.18,-816.58 982.54,-806.95 1056.86,-801.38"/>
<polygon fill="black" stroke="black" points="1057.26,-804.86 1066.97,-800.62 1056.74,-797.88 1057.26,-804.86"/>
</g>
<!-- canISeeTheDoctorNowInput -->
<g id="node9" class="node">
<title>canISeeTheDoctorNowInput</title>
<polygon fill="none" stroke="black" points="234.5,-467.5 234.5,-536.5 332.5,-536.5 332.5,-467.5 234.5,-467.5"/>
<text text-anchor="middle" x="283.5" y="-521.3" font-family="Handlee" font-size="14.00">EMail</text>
<polyline fill="none" stroke="black" points="234.5,-513.5 332.5,-513.5 "/>
<text text-anchor="middle" x="283.5" y="-498.3" font-family="Handlee" font-size="14.00">TempToken</text>
<polyline fill="none" stroke="black" points="234.5,-490.5 332.5,-490.5 "/>
<text text-anchor="middle" x="283.5" y="-475.3" font-family="Handlee" font-size="14.00">[STUFF]</text>
</g>
<!-- canISeeTheDoctorNow -->
<g id="node11" class="node">
<title>canISeeTheDoctorNow</title>
<ellipse fill="none" stroke="black" cx="700.87" cy="-505" rx="96.75" ry="26.74"/>
<text text-anchor="middle" x="700.87" y="-508.8" font-family="Handlee" font-size="14.00">Can I See</text>
<text text-anchor="middle" x="700.87" y="-493.8" font-family="Handlee" font-size="14.00">The Doctor Now?</text>
</g>
<!-- canISeeTheDoctorNowInput&#45;&gt;canISeeTheDoctorNow -->
<g id="edge8" class="edge">
<title>canISeeTheDoctorNowInput&#45;&gt;canISeeTheDoctorNow</title>
<path fill="none" stroke="black" d="M332.55,-502.35C396.07,-502.81 509.73,-503.63 593.86,-504.23"/>
<polygon fill="black" stroke="black" points="593.94,-507.73 603.97,-504.31 593.99,-500.74 593.94,-507.73"/>
</g>
<!-- canISeeTheDoctorNowOutput -->
<g id="node10" class="node">
<title>canISeeTheDoctorNowOutput</title>
<polygon fill="none" stroke="black" points="909.75,-468 909.75,-560 1322.75,-560 1322.75,-468 909.75,-468"/>
<text text-anchor="middle" x="930.25" y="-544.8" font-family="Handlee" font-size="14.00">Yes</text>
<polyline fill="none" stroke="black" points="950.75,-537 950.75,-560 "/>
<text text-anchor="middle" x="1015.25" y="-544.8" font-family="Handlee" font-size="14.00">No Appointment</text>
<polyline fill="none" stroke="black" points="1079.75,-537 1079.75,-560 "/>
<text text-anchor="middle" x="1143.25" y="-544.8" font-family="Handlee" font-size="14.00">No Our Problem</text>
<polyline fill="none" stroke="black" points="1206.75,-537 1206.75,-560 "/>
<text text-anchor="middle" x="1264.75" y="-544.8" font-family="Handlee" font-size="14.00">Who Are You?</text>
<polyline fill="none" stroke="black" points="909.75,-537 1322.75,-537 "/>
<text text-anchor="middle" x="1116.25" y="-521.8" font-family="Handlee" font-size="14.00">EMail</text>
<polyline fill="none" stroke="black" points="909.75,-514 1322.75,-514 "/>
<text text-anchor="middle" x="1116.25" y="-498.8" font-family="Handlee" font-size="14.00">TempToken</text>
<polyline fill="none" stroke="black" points="909.75,-491 1322.75,-491 "/>
<text text-anchor="middle" x="1116.25" y="-475.8" font-family="Handlee" font-size="14.00">[STUFF]</text>
</g>
<!-- canISeeTheDoctorNow&#45;&gt;canISeeTheDoctorNowOutput -->
<g id="edge9" class="edge">
<title>canISeeTheDoctorNow&#45;&gt;canISeeTheDoctorNowOutput</title>
<path fill="none" stroke="black" d="M797.49,-507.08C828.22,-507.75 863.62,-508.52 899.38,-509.3"/>
<polygon fill="black" stroke="black" points="899.4,-512.8 909.48,-509.52 899.56,-505.8 899.4,-512.8"/>
</g>
<!-- getBillingInfo -->
<g id="node19" class="node">
<title>getBillingInfo</title>
<ellipse fill="none" stroke="black" cx="1116.25" cy="-393" rx="103.48" ry="26.74"/>
<text text-anchor="middle" x="1116.25" y="-396.8" font-family="Handlee" font-size="14.00">What&#39;s your billing</text>
<text text-anchor="middle" x="1116.25" y="-381.8" font-family="Handlee" font-size="14.00">information?</text>
</g>
<!-- canISeeTheDoctorNow&#45;&gt;getBillingInfo -->
<g id="edge15" class="edge">
<title>canISeeTheDoctorNow&#45;&gt;getBillingInfo</title>
<path fill="none" stroke="red" d="M776.54,-459C789.28,-452.53 802.65,-446.54 815.75,-442 871.56,-422.65 935.94,-410.85 990.67,-403.7"/>
<polygon fill="red" stroke="red" points="991.29,-407.15 1000.77,-402.41 990.41,-400.2 991.29,-407.15"/>
<text text-anchor="start" x="815.75" y="-475.8" font-family="Handlee" font-size="14.00">REQUIRED</text>
<text text-anchor="start" x="815.75" y="-460.8" font-family="Handlee" font-size="14.00">Email</text>
<text text-anchor="start" x="815.75" y="-445.8" font-family="Handlee" font-size="14.00">Token</text>
</g>
<!-- docSchedule -->
<g id="node12" class="node">
<title>docSchedule</title>
<polygon fill="none" stroke="black" points="233.27,-699 333.73,-699 369.5,-775 197.5,-775 233.27,-699"/>
<text text-anchor="middle" x="283.5" y="-740.8" font-family="Handlee" font-size="14.00">Doctors&#39;</text>
<text text-anchor="middle" x="283.5" y="-725.8" font-family="Handlee" font-size="14.00">Schedules</text>
</g>
<!-- whatTimesAreOpenForAnAppointment -->
<g id="node14" class="node">
<title>whatTimesAreOpenForAnAppointment</title>
<ellipse fill="none" stroke="black" cx="700.87" cy="-719" rx="87.86" ry="37.45"/>
<text text-anchor="middle" x="700.87" y="-730.3" font-family="Handlee" font-size="14.00">What times are</text>
<text text-anchor="middle" x="700.87" y="-715.3" font-family="Handlee" font-size="14.00">open for an</text>
<text text-anchor="middle" x="700.87" y="-700.3" font-family="Handlee" font-size="14.00">appointment?</text>
</g>
<!-- docSchedule&#45;&gt;whatTimesAreOpenForAnAppointment -->
<g id="edge12" class="edge">
<title>docSchedule&#45;&gt;whatTimesAreOpenForAnAppointment</title>
<path fill="none" stroke="black" d="M350.32,-734.15C418.4,-731.2 525.46,-726.56 603.16,-723.19"/>
<polygon fill="black" stroke="black" points="603.61,-726.67 613.45,-722.75 603.31,-719.68 603.61,-726.67"/>
</g>
<!-- whatTimesAreOpenForAnAppointmentInput -->
<g id="node13" class="node">
<title>whatTimesAreOpenForAnAppointmentInput</title>
<polygon fill="none" stroke="black" points="110,-611.5 110,-680.5 457,-680.5 457,-611.5 110,-611.5"/>
<text text-anchor="middle" x="137" y="-642.3" font-family="Handlee" font-size="14.00">Email</text>
<polyline fill="none" stroke="black" points="164,-611.5 164,-680.5 "/>
<text text-anchor="middle" x="193.5" y="-642.3" font-family="Handlee" font-size="14.00">Token</text>
<polyline fill="none" stroke="black" points="223,-611.5 223,-680.5 "/>
<text text-anchor="middle" x="271" y="-642.3" font-family="Handlee" font-size="14.00">[StartDate]</text>
<polyline fill="none" stroke="black" points="319,-611.5 319,-680.5 "/>
<text text-anchor="middle" x="352" y="-665.3" font-family="Handlee" font-size="14.00">[DAY</text>
<polyline fill="none" stroke="black" points="319,-657.5 385,-657.5 "/>
<text text-anchor="middle" x="352" y="-642.3" font-family="Handlee" font-size="14.00">Week</text>
<polyline fill="none" stroke="black" points="319,-634.5 385,-634.5 "/>
<text text-anchor="middle" x="352" y="-619.3" font-family="Handlee" font-size="14.00">Month]</text>
<polyline fill="none" stroke="black" points="385,-611.5 385,-680.5 "/>
<text text-anchor="middle" x="421" y="-642.3" font-family="Handlee" font-size="14.00">[STUFF]</text>
</g>
<!-- whatTimesAreOpenForAnAppointmentInput&#45;&gt;whatTimesAreOpenForAnAppointment -->
<g id="edge10" class="edge">
<title>whatTimesAreOpenForAnAppointmentInput&#45;&gt;whatTimesAreOpenForAnAppointment</title>
<path fill="none" stroke="black" d="M457.33,-671.23C493.63,-677 531.63,-683.39 567,-690 581.95,-692.79 597.78,-696.01 613.11,-699.27"/>
<polygon fill="black" stroke="black" points="612.58,-702.74 623.1,-701.42 614.05,-695.9 612.58,-702.74"/>
</g>
<!-- whatTimesAreOpenForAnAppointmentOutput -->
<g id="node15" class="node">
<title>whatTimesAreOpenForAnAppointmentOutput</title>
<polygon fill="none" stroke="black" points="942.25,-701 942.25,-737 1290.25,-737 1290.25,-701 942.25,-701"/>
<text text-anchor="middle" x="969.25" y="-715.3" font-family="Handlee" font-size="14.00">Email</text>
<polyline fill="none" stroke="black" points="996.25,-701 996.25,-737 "/>
<text text-anchor="middle" x="1025.75" y="-715.3" font-family="Handlee" font-size="14.00">Token</text>
<polyline fill="none" stroke="black" points="1055.25,-701 1055.25,-737 "/>
<text text-anchor="middle" x="1086.75" y="-715.3" font-family="Handlee" font-size="14.00">Doctor</text>
<polyline fill="none" stroke="black" points="1118.25,-701 1118.25,-737 "/>
<text text-anchor="middle" x="1144.25" y="-715.3" font-family="Handlee" font-size="14.00">Start</text>
<polyline fill="none" stroke="black" points="1170.25,-701 1170.25,-737 "/>
<text text-anchor="middle" x="1194.25" y="-715.3" font-family="Handlee" font-size="14.00">Stop</text>
<polyline fill="none" stroke="black" points="1218.25,-701 1218.25,-737 "/>
<text text-anchor="middle" x="1254.25" y="-715.3" font-family="Handlee" font-size="14.00">[STUFF]</text>
</g>
<!-- whatTimesAreOpenForAnAppointment&#45;&gt;whatTimesAreOpenForAnAppointmentOutput -->
<g id="edge11" class="edge">
<title>whatTimesAreOpenForAnAppointment&#45;&gt;whatTimesAreOpenForAnAppointmentOutput</title>
<path fill="none" stroke="black" d="M788.78,-719C830.43,-719 881.99,-719 931.74,-719"/>
<polygon fill="black" stroke="black" points="931.99,-722.5 941.99,-719 931.99,-715.5 931.99,-722.5"/>
</g>
<!-- canYouFitMeInForThisAppointmentInput -->
<g id="node16" class="node">
<title>canYouFitMeInForThisAppointmentInput</title>
<polygon fill="none" stroke="black" points="109.5,-556 109.5,-592 457.5,-592 457.5,-556 109.5,-556"/>
<text text-anchor="middle" x="136.5" y="-570.3" font-family="Handlee" font-size="14.00">Email</text>
<polyline fill="none" stroke="black" points="163.5,-556 163.5,-592 "/>
<text text-anchor="middle" x="193" y="-570.3" font-family="Handlee" font-size="14.00">Token</text>
<polyline fill="none" stroke="black" points="222.5,-556 222.5,-592 "/>
<text text-anchor="middle" x="254" y="-570.3" font-family="Handlee" font-size="14.00">Doctor</text>
<polyline fill="none" stroke="black" points="285.5,-556 285.5,-592 "/>
<text text-anchor="middle" x="311.5" y="-570.3" font-family="Handlee" font-size="14.00">Start</text>
<polyline fill="none" stroke="black" points="337.5,-556 337.5,-592 "/>
<text text-anchor="middle" x="361.5" y="-570.3" font-family="Handlee" font-size="14.00">Stop</text>
<polyline fill="none" stroke="black" points="385.5,-556 385.5,-592 "/>
<text text-anchor="middle" x="421.5" y="-570.3" font-family="Handlee" font-size="14.00">[STUFF]</text>
</g>
<!-- canYouFitMeInForThisAppointment -->
<g id="node18" class="node">
<title>canYouFitMeInForThisAppointment</title>
<ellipse fill="none" stroke="black" cx="700.87" cy="-614" rx="84.71" ry="37.45"/>
<text text-anchor="middle" x="700.87" y="-625.3" font-family="Handlee" font-size="14.00">Can you fit me</text>
<text text-anchor="middle" x="700.87" y="-610.3" font-family="Handlee" font-size="14.00">in for this</text>
<text text-anchor="middle" x="700.87" y="-595.3" font-family="Handlee" font-size="14.00">appoointment?</text>
</g>
<!-- canYouFitMeInForThisAppointmentInput&#45;&gt;canYouFitMeInForThisAppointment -->
<g id="edge13" class="edge">
<title>canYouFitMeInForThisAppointmentInput&#45;&gt;canYouFitMeInForThisAppointment</title>
<path fill="none" stroke="black" d="M457.65,-590.67C509.07,-595.63 563.4,-600.86 607.55,-605.11"/>
<polygon fill="black" stroke="black" points="607.38,-608.61 617.67,-606.08 608.05,-601.64 607.38,-608.61"/>
</g>
<!-- canYouFitMeInForThisAppointmentOutput -->
<g id="node17" class="node">
<title>canYouFitMeInForThisAppointmentOutput</title>
<polygon fill="none" stroke="black" points="1053.25,-579 1053.25,-671 1179.25,-671 1179.25,-579 1053.25,-579"/>
<text text-anchor="middle" x="1086.25" y="-655.8" font-family="Handlee" font-size="14.00">Yes</text>
<polyline fill="none" stroke="black" points="1119.25,-648 1119.25,-671 "/>
<text text-anchor="middle" x="1149.25" y="-655.8" font-family="Handlee" font-size="14.00">No</text>
<polyline fill="none" stroke="black" points="1053.25,-648 1179.25,-648 "/>
<text text-anchor="middle" x="1116.25" y="-632.8" font-family="Handlee" font-size="14.00">Token</text>
<polyline fill="none" stroke="black" points="1053.25,-625 1179.25,-625 "/>
<text text-anchor="middle" x="1116.25" y="-609.8" font-family="Handlee" font-size="14.00">Confirmation ID</text>
<polyline fill="none" stroke="black" points="1053.25,-602 1179.25,-602 "/>
<text text-anchor="middle" x="1116.25" y="-586.8" font-family="Handlee" font-size="14.00">[STUFF]</text>
</g>
<!-- canYouFitMeInForThisAppointment&#45;&gt;canYouFitMeInForThisAppointmentOutput -->
<g id="edge14" class="edge">
<title>canYouFitMeInForThisAppointment&#45;&gt;canYouFitMeInForThisAppointmentOutput</title>
<path fill="none" stroke="black" d="M786.02,-616.24C861.51,-618.25 971.13,-621.16 1042.8,-623.07"/>
<polygon fill="black" stroke="black" points="1043,-626.58 1053.09,-623.35 1043.18,-619.58 1043,-626.58"/>
</g>
<!-- recommendTest -->
<g id="node20" class="node">
<title>recommendTest</title>
<ellipse fill="none" stroke="black" cx="1116.25" cy="-330" rx="87.99" ry="18"/>
<text text-anchor="middle" x="1116.25" y="-326.3" font-family="Handlee" font-size="14.00">Recommend Test</text>
</g>
<!-- initialAssessment -->
<g id="node21" class="node">
<title>initialAssessment</title>
<ellipse fill="none" stroke="black" cx="1116.25" cy="-276" rx="91.78" ry="18"/>
<text text-anchor="middle" x="1116.25" y="-272.3" font-family="Handlee" font-size="14.00">Initial Assessment</text>
</g>
<!-- getVisitCompletionPaperwork -->
<g id="node22" class="node">
<title>getVisitCompletionPaperwork</title>
<ellipse fill="none" stroke="black" cx="1116.25" cy="-203" rx="107.46" ry="37.45"/>
<text text-anchor="middle" x="1116.25" y="-214.3" font-family="Handlee" font-size="14.00">Can you give me</text>
<text text-anchor="middle" x="1116.25" y="-199.3" font-family="Handlee" font-size="14.00">the visit completion</text>
<text text-anchor="middle" x="1116.25" y="-184.3" font-family="Handlee" font-size="14.00">paperwork?</text>
</g>
<!-- getBill -->
<g id="node23" class="node">
<title>getBill</title>
<ellipse fill="none" stroke="black" cx="1438.24" cy="-203" rx="44.39" ry="18"/>
<text text-anchor="middle" x="1438.24" y="-199.3" font-family="Handlee" font-size="14.00">Get Bill</text>
</g>
<!-- getVisitCompletionPaperwork&#45;&gt;getBill -->
<g id="edge16" class="edge">
<title>getVisitCompletionPaperwork&#45;&gt;getBill</title>
<path fill="none" stroke="red" d="M1231.72,-203C1267.66,-203 1306.95,-203 1341.45,-203"/>
<polygon fill="red" stroke="red" points="1341.75,-206.5 1351.75,-203 1341.75,-199.5 1341.75,-206.5"/>
</g>
<!-- payBill -->
<g id="node24" class="node">
<title>payBill</title>
<ellipse fill="none" stroke="black" cx="1438.24" cy="-149" rx="44.39" ry="18"/>
<text text-anchor="middle" x="1438.24" y="-145.3" font-family="Handlee" font-size="14.00">Pay Bill</text>
</g>
<!-- createFollowupAppointments -->
<g id="node25" class="node">
<title>createFollowupAppointments</title>
<ellipse fill="none" stroke="black" cx="1438.24" cy="-76" rx="78.48" ry="37.45"/>
<text text-anchor="middle" x="1438.24" y="-87.3" font-family="Handlee" font-size="14.00">Create</text>
<text text-anchor="middle" x="1438.24" y="-72.3" font-family="Handlee" font-size="14.00">follow&#45;up</text>
<text text-anchor="middle" x="1438.24" y="-57.3" font-family="Handlee" font-size="14.00">appointments</text>
</g>
<!-- systemLog -->
<g id="node26" class="node">
<title>systemLog</title>
<polygon fill="none" stroke="black" points="0,-1045 0,-1091 567,-1091 567,-1045 0,-1045"/>
<text text-anchor="middle" x="283.5" y="-1075.8" font-family="Handlee" font-size="14.00">System Log</text>
<polyline fill="none" stroke="black" points="0,-1068 567,-1068 "/>
<text text-anchor="middle" x="42" y="-1052.8" font-family="Handlee" font-size="14.00">DateTime</text>
<polyline fill="none" stroke="black" points="84,-1045 84,-1068 "/>
<text text-anchor="middle" x="154.5" y="-1052.8" font-family="Handlee" font-size="14.00">MicroserviceName</text>
<polyline fill="none" stroke="black" points="225,-1045 225,-1068 "/>
<text text-anchor="middle" x="273" y="-1052.8" font-family="Handlee" font-size="14.00">StatusCode</text>
<polyline fill="none" stroke="black" points="321,-1045 321,-1068 "/>
<text text-anchor="middle" x="368" y="-1052.8" font-family="Handlee" font-size="14.00">CallerEmail</text>
<polyline fill="none" stroke="black" points="415,-1045 415,-1068 "/>
<text text-anchor="middle" x="466" y="-1052.8" font-family="Handlee" font-size="14.00">ServerName</text>
<polyline fill="none" stroke="black" points="517,-1045 517,-1068 "/>
<text text-anchor="middle" x="542" y="-1052.8" font-family="Handlee" font-size="14.00">Note</text>
</g>
</g>
</svg>
