<?xml version="1.0" encoding="UTF-8" standalone="no"?>
<!DOCTYPE svg PUBLIC "-//W3C//DTD SVG 1.1//EN"
 "http://www.w3.org/Graphics/SVG/1.1/DTD/svg11.dtd">
<!-- Generated by graphviz version 2.43.0 (0)
 -->
<!-- Title: VeterinaryClinic Pages: 1 -->
<svg width="2057pt" height="1298pt"
 viewBox="0.00 0.00 2057.00 1297.50" xmlns="http://www.w3.org/2000/svg" xmlns:xlink="http://www.w3.org/1999/xlink">
<g id="graph0" class="graph" transform="scale(1 1) rotate(0) translate(4 1293.5)">
<title>VeterinaryClinic</title>
<polygon fill="white" stroke="transparent" points="-4,4 -4,-1293.5 2053,-1293.5 2053,4 -4,4"/>
<text text-anchor="middle" x="1024.5" y="-7.8" font-family="Times,serif" font-size="14.00">Daniel&#39;s Veterinary Clinic</text>
<g id="clust1" class="cluster">
<title>cluster_StartVetVisit</title>
<polygon fill="none" stroke="black" points="156.26,-699 156.26,-1235 2041,-1235 2041,-699 156.26,-699"/>
<text text-anchor="middle" x="1098.63" y="-1219.8" font-family="Times,serif" font-size="14.00">Start Vet Visit</text>
<text text-anchor="middle" x="1098.63" y="-1204.8" font-family="Times,serif" font-size="14.00">I Am Able To Start Getting Help From The Vet</text>
</g>
<g id="clust2" class="cluster">
<title>cluster_VisitVet</title>
<polygon fill="none" stroke="black" points="839.81,-329 839.81,-691 1108.19,-691 1108.19,-329 839.81,-329"/>
<text text-anchor="middle" x="974" y="-675.8" font-family="Times,serif" font-size="14.00">Visit Vet</text>
<text text-anchor="middle" x="974" y="-660.8" font-family="Times,serif" font-size="14.00">The Vet Is Helping Me With My Pet</text>
</g>
<g id="clust3" class="cluster">
<title>cluster_CompleteVetVisit</title>
<polygon fill="none" stroke="black" points="738.31,-31 738.31,-321 1210.69,-321 1210.69,-31 738.31,-31"/>
<text text-anchor="middle" x="974.5" y="-305.8" font-family="Times,serif" font-size="14.00">Complete Vet Visit</text>
<text text-anchor="middle" x="974.5" y="-290.8" font-family="Times,serif" font-size="14.00">I Am Prepared To Continue My Relationship With The Clinic/Vet</text>
</g>
<g id="clust4" class="cluster">
<title>cluster_VeterinaryClinicAdministration</title>
<polygon fill="none" stroke="black" points="74.37,-269 74.37,-539 494.63,-539 494.63,-269 74.37,-269"/>
<text text-anchor="middle" x="284.5" y="-523.8" font-family="Times,serif" font-size="14.00">Veterinary Clinic Administration</text>
<text text-anchor="middle" x="284.5" y="-508.8" font-family="Times,serif" font-size="14.00">We Are Able To Treat Patients</text>
</g>
<!-- ProcessAreaStartVetVisit -->
<!-- ProcessAreaVisitVet -->
<!-- ProcessAreaStartVetVisit&#45;&gt;ProcessAreaVisitVet -->
<g id="edge19" class="edge">
<title>ProcessAreaStartVetVisit&#45;&gt;ProcessAreaVisitVet</title>
<path fill="none" stroke="red" stroke-width="7" stroke-dasharray="1,5" d="M467.89,-699C581.1,-682.86 724.51,-662.42 829.57,-647.44"/>
<polygon fill="red" stroke="red" stroke-width="7" points="830.78,-653.46 839.81,-645.99 829.05,-641.33 830.78,-653.46"/>
<polygon fill="none" stroke="red" points="587,-780.5 587,-805.5 721,-805.5 721,-780.5 587,-780.5"/>
<text text-anchor="start" x="613.5" y="-790.3" font-family="Handlee" font-weight="bold" font-size="14.00" fill="red">REQUIRED</text>
<polygon fill="none" stroke="red" points="587,-755.5 587,-780.5 721,-780.5 721,-755.5 587,-755.5"/>
<text text-anchor="start" x="634.5" y="-764.3" font-family="Handlee" font-size="14.00" fill="red">Email</text>
<polygon fill="none" stroke="red" points="587,-730.5 587,-755.5 721,-755.5 721,-730.5 587,-730.5"/>
<text text-anchor="start" x="617.5" y="-739.3" font-family="Handlee" font-size="14.00" fill="red">AuthToken</text>
<polygon fill="none" stroke="red" points="587,-705.5 587,-730.5 721,-730.5 721,-705.5 587,-705.5"/>
<text text-anchor="start" x="631" y="-714.3" font-family="Handlee" font-size="14.00" fill="red">Doctor</text>
<polygon fill="none" stroke="red" points="587,-680.5 587,-705.5 721,-705.5 721,-680.5 587,-680.5"/>
<text text-anchor="start" x="592" y="-689.3" font-family="Handlee" font-size="14.00" fill="red">AppointmentTime</text>
</g>
<!-- doYouKnowMeInput -->
<g id="node2" class="node">
<title>doYouKnowMeInput</title>
<polygon fill="none" stroke="black" points="249,-969.5 249,-1038.5 320,-1038.5 320,-969.5 249,-969.5"/>
<text text-anchor="middle" x="284.5" y="-1023.3" font-family="Handlee" font-size="14.00">Email</text>
<polyline fill="none" stroke="black" points="249,-1015.5 320,-1015.5 "/>
<text text-anchor="middle" x="284.5" y="-1000.3" font-family="Handlee" font-size="14.00">[OTP]</text>
<polyline fill="none" stroke="black" points="249,-992.5 320,-992.5 "/>
<text text-anchor="middle" x="284.5" y="-977.3" font-family="Handlee" font-size="14.00">[STUFF]</text>
</g>
<!-- doYouKnowMe -->
<g id="node5" class="node">
<title>doYouKnowMe</title>
<ellipse fill="none" stroke="black" cx="974" cy="-1029" rx="61.54" ry="26.74"/>
<text text-anchor="middle" x="974" y="-1032.8" font-family="Handlee" font-size="14.00">Do you</text>
<text text-anchor="middle" x="974" y="-1017.8" font-family="Handlee" font-size="14.00">know me?</text>
</g>
<!-- doYouKnowMeInput&#45;&gt;doYouKnowMe -->
<g id="edge2" class="edge">
<title>doYouKnowMeInput&#45;&gt;doYouKnowMe</title>
<path fill="none" stroke="black" d="M320.06,-1005.26C427.43,-1009.16 756.65,-1021.13 902.36,-1026.43"/>
<polygon fill="black" stroke="black" points="902.4,-1029.94 912.52,-1026.8 902.66,-1022.94 902.4,-1029.94"/>
</g>
<!-- doYouKnowMeOutput -->
<g id="node3" class="node">
<title>doYouKnowMeOutput</title>
<polygon fill="none" stroke="black" points="1382.5,-1096 1382.5,-1188 1518.5,-1188 1518.5,-1096 1382.5,-1096"/>
<text text-anchor="middle" x="1402" y="-1172.8" font-family="Handlee" font-size="14.00">Yes</text>
<polyline fill="none" stroke="black" points="1421.5,-1165 1421.5,-1188 "/>
<text text-anchor="middle" x="1439" y="-1172.8" font-family="Handlee" font-size="14.00">No</text>
<polyline fill="none" stroke="black" points="1456.5,-1165 1456.5,-1188 "/>
<text text-anchor="middle" x="1487.5" y="-1172.8" font-family="Handlee" font-size="14.00">Maybe</text>
<polyline fill="none" stroke="black" points="1382.5,-1165 1518.5,-1165 "/>
<text text-anchor="middle" x="1450.5" y="-1149.8" font-family="Handlee" font-size="14.00">Email</text>
<polyline fill="none" stroke="black" points="1382.5,-1142 1518.5,-1142 "/>
<text text-anchor="middle" x="1450.5" y="-1126.8" font-family="Handlee" font-size="14.00">[OTP]</text>
<polyline fill="none" stroke="black" points="1382.5,-1119 1518.5,-1119 "/>
<text text-anchor="middle" x="1450.5" y="-1103.8" font-family="Handlee" font-size="14.00">[STUFF]</text>
</g>
<!-- knownEMails -->
<g id="node4" class="node">
<title>knownEMails</title>
<polygon fill="none" stroke="black" points="228,-1057 228,-1103 341,-1103 341,-1057 228,-1057"/>
<text text-anchor="middle" x="284.5" y="-1087.8" font-family="Handlee" font-size="14.00">Known Emails</text>
<polyline fill="none" stroke="black" points="228,-1080 341,-1080 "/>
<text text-anchor="middle" x="284.5" y="-1064.8" font-family="Handlee" font-size="14.00">Email</text>
</g>
<!-- knownEMails&#45;&gt;doYouKnowMe -->
<g id="edge1" class="edge">
<title>knownEMails&#45;&gt;doYouKnowMe</title>
<path fill="none" stroke="black" d="M341.18,-1075.87C465.49,-1066.65 765.44,-1044.4 902.52,-1034.23"/>
<polygon fill="black" stroke="black" points="903.18,-1037.69 912.9,-1033.46 902.66,-1030.71 903.18,-1037.69"/>
</g>
<!-- doYouKnowMe&#45;&gt;doYouKnowMeOutput -->
<g id="edge3" class="edge">
<title>doYouKnowMe&#45;&gt;doYouKnowMeOutput</title>
<path fill="none" stroke="black" d="M1035.98,-1028.62C1085.34,-1030.54 1155.49,-1038.42 1210.69,-1065 1220.13,-1069.55 1218.84,-1075.91 1228,-1081 1272.73,-1105.86 1328.25,-1121.13 1372.52,-1130.17"/>
<polygon fill="black" stroke="black" points="1371.88,-1133.61 1382.37,-1132.11 1373.24,-1126.74 1371.88,-1133.61"/>
</g>
<!-- otpWaitList -->
<g id="node6" class="node">
<title>otpWaitList</title>
<polygon fill="none" stroke="black" points="1820.5,-1051.5 1820.5,-1150.5 1903.5,-1150.5 1903.5,-1051.5 1820.5,-1051.5"/>
<text text-anchor="middle" x="1862" y="-1135.3" font-family="Handlee" font-size="14.00">One&#45;Time</text>
<text text-anchor="middle" x="1862" y="-1120.3" font-family="Handlee" font-size="14.00">Password</text>
<text text-anchor="middle" x="1862" y="-1105.3" font-family="Handlee" font-size="14.00">Waitlist</text>
<polyline fill="none" stroke="black" points="1820.5,-1097.5 1903.5,-1097.5 "/>
<text text-anchor="middle" x="1862" y="-1082.3" font-family="Handlee" font-size="14.00">Email</text>
<polyline fill="none" stroke="black" points="1820.5,-1074.5 1903.5,-1074.5 "/>
<text text-anchor="middle" x="1862" y="-1059.3" font-family="Handlee" font-size="14.00">Token</text>
</g>
<!-- doYouKnowMe&#45;&gt;otpWaitList -->
<g id="edge4" class="edge">
<title>doYouKnowMe&#45;&gt;otpWaitList</title>
<path fill="none" stroke="black" d="M1041.85,-1039.68C1096.8,-1048.08 1176.76,-1059.42 1247,-1066 1427.34,-1082.89 1473.19,-1076.22 1654,-1087 1707.2,-1090.17 1768.05,-1094.35 1809.94,-1097.32"/>
<polygon fill="black" stroke="black" points="1042.3,-1036.21 1031.89,-1038.15 1041.24,-1043.13 1042.3,-1036.21"/>
<polygon fill="black" stroke="black" points="1809.94,-1100.83 1820.16,-1098.04 1810.44,-1093.85 1809.94,-1100.83"/>
</g>
<!-- areYouSureItsMe -->
<g id="node9" class="node">
<title>areYouSureItsMe</title>
<ellipse fill="none" stroke="black" cx="1450.5" cy="-1030" rx="73.58" ry="26.74"/>
<text text-anchor="middle" x="1450.5" y="-1033.8" font-family="Handlee" font-size="14.00">Are you sure</text>
<text text-anchor="middle" x="1450.5" y="-1018.8" font-family="Handlee" font-size="14.00">it&#39;s me?</text>
</g>
<!-- doYouKnowMe&#45;&gt;areYouSureItsMe -->
<g id="edge16" class="edge">
<title>doYouKnowMe&#45;&gt;areYouSureItsMe</title>
<path fill="none" stroke="red" stroke-dasharray="1,5" d="M1035.58,-1029.13C1119.71,-1029.3 1272.21,-1029.63 1366.77,-1029.83"/>
<polygon fill="red" stroke="red" points="1366.86,-1033.33 1376.87,-1029.85 1366.88,-1026.33 1366.86,-1033.33"/>
</g>
<!-- whatTimesAreOpenForAnAppointment -->
<g id="node15" class="node">
<title>whatTimesAreOpenForAnAppointment</title>
<ellipse fill="none" stroke="black" cx="1450.5" cy="-744" rx="86.03" ry="37.45"/>
<text text-anchor="middle" x="1450.5" y="-755.3" font-family="Handlee" font-size="14.00">What times are</text>
<text text-anchor="middle" x="1450.5" y="-740.3" font-family="Handlee" font-size="14.00">open for an</text>
<text text-anchor="middle" x="1450.5" y="-725.3" font-family="Handlee" font-size="14.00">appointment?</text>
</g>
<!-- doYouKnowMe&#45;&gt;whatTimesAreOpenForAnAppointment -->
<g id="edge17" class="edge">
<title>doYouKnowMe&#45;&gt;whatTimesAreOpenForAnAppointment</title>
<path fill="none" stroke="red" stroke-dasharray="1,5" d="M1032.59,-1037.36C1086.04,-1041.61 1164.14,-1038.34 1210.69,-993 1276.03,-929.35 1184.14,-857.1 1247,-791 1274.4,-762.19 1315.71,-749.47 1353.89,-744.33"/>
<polygon fill="red" stroke="red" points="1354.52,-747.78 1364.04,-743.13 1353.7,-740.83 1354.52,-747.78"/>
</g>
<!-- canYouFitMeInForThisAppointment -->
<g id="node19" class="node">
<title>canYouFitMeInForThisAppointment</title>
<ellipse fill="none" stroke="black" cx="1450.5" cy="-948" rx="85.62" ry="37.45"/>
<text text-anchor="middle" x="1450.5" y="-959.3" font-family="Handlee" font-size="14.00">Can you fit me</text>
<text text-anchor="middle" x="1450.5" y="-944.3" font-family="Handlee" font-size="14.00">in for this</text>
<text text-anchor="middle" x="1450.5" y="-929.3" font-family="Handlee" font-size="14.00">appoointment?</text>
</g>
<!-- doYouKnowMe&#45;&gt;canYouFitMeInForThisAppointment -->
<g id="edge15" class="edge">
<title>doYouKnowMe&#45;&gt;canYouFitMeInForThisAppointment</title>
<path fill="none" stroke="red" stroke-dasharray="1,5" d="M1032.72,-1020.75C1080.49,-1013.79 1150.09,-1003.33 1210.69,-993 1260.95,-984.43 1316.98,-973.92 1362.13,-965.21"/>
<polygon fill="red" stroke="red" points="1363.03,-968.61 1372.18,-963.27 1361.7,-961.73 1363.03,-968.61"/>
</g>
<!-- areYouSureItsMeInput -->
<g id="node7" class="node">
<title>areYouSureItsMeInput</title>
<polygon fill="none" stroke="black" points="938.5,-1074.5 938.5,-1143.5 1009.5,-1143.5 1009.5,-1074.5 938.5,-1074.5"/>
<text text-anchor="middle" x="974" y="-1128.3" font-family="Handlee" font-size="14.00">Email</text>
<polyline fill="none" stroke="black" points="938.5,-1120.5 1009.5,-1120.5 "/>
<text text-anchor="middle" x="974" y="-1105.3" font-family="Handlee" font-size="14.00">OTP</text>
<polyline fill="none" stroke="black" points="938.5,-1097.5 1009.5,-1097.5 "/>
<text text-anchor="middle" x="974" y="-1082.3" font-family="Handlee" font-size="14.00">[STUFF]</text>
</g>
<!-- areYouSureItsMeInput&#45;&gt;areYouSureItsMe -->
<g id="edge6" class="edge">
<title>areYouSureItsMeInput&#45;&gt;areYouSureItsMe</title>
<path fill="none" stroke="black" d="M1009.51,-1103.25C1085.46,-1090.61 1268.64,-1060.11 1373.12,-1042.72"/>
<polygon fill="black" stroke="black" points="1374,-1046.12 1383.29,-1041.02 1372.85,-1039.21 1374,-1046.12"/>
</g>
<!-- areYouSureItsMeOutput -->
<g id="node8" class="node">
<title>areYouSureItsMeOutput</title>
<polygon fill="none" stroke="black" points="1816,-963.5 1816,-1032.5 1908,-1032.5 1908,-963.5 1816,-963.5"/>
<text text-anchor="middle" x="1840" y="-1017.3" font-family="Handlee" font-size="14.00">Yes</text>
<polyline fill="none" stroke="black" points="1864,-1009.5 1864,-1032.5 "/>
<text text-anchor="middle" x="1886" y="-1017.3" font-family="Handlee" font-size="14.00">No</text>
<polyline fill="none" stroke="black" points="1816,-1009.5 1908,-1009.5 "/>
<text text-anchor="middle" x="1862" y="-994.3" font-family="Handlee" font-size="14.00">TempToken</text>
<polyline fill="none" stroke="black" points="1816,-986.5 1908,-986.5 "/>
<text text-anchor="middle" x="1862" y="-971.3" font-family="Handlee" font-size="14.00">[STUFF]</text>
</g>
<!-- areYouSureItsMe&#45;&gt;otpWaitList -->
<g id="edge5" class="edge">
<title>areYouSureItsMe&#45;&gt;otpWaitList</title>
<path fill="none" stroke="black" d="M1527.32,-1043.15C1609.76,-1057.44 1739.22,-1079.89 1810.22,-1092.2"/>
<polygon fill="black" stroke="black" points="1527.74,-1039.67 1517.29,-1041.41 1526.55,-1046.56 1527.74,-1039.67"/>
<polygon fill="black" stroke="black" points="1809.81,-1095.68 1820.26,-1093.94 1811,-1088.78 1809.81,-1095.68"/>
</g>
<!-- areYouSureItsMe&#45;&gt;areYouSureItsMeOutput -->
<g id="edge7" class="edge">
<title>areYouSureItsMe&#45;&gt;areYouSureItsMeOutput</title>
<path fill="none" stroke="black" d="M1522.83,-1024.43C1603.2,-1018.15 1732.16,-1008.07 1805.42,-1002.34"/>
<polygon fill="black" stroke="black" points="1806.11,-1005.8 1815.81,-1001.53 1805.57,-998.82 1806.11,-1005.8"/>
</g>
<!-- canISeeTheDoctorNowInput -->
<g id="node10" class="node">
<title>canISeeTheDoctorNowInput</title>
<polygon fill="none" stroke="black" points="238.5,-867.5 238.5,-936.5 330.5,-936.5 330.5,-867.5 238.5,-867.5"/>
<text text-anchor="middle" x="284.5" y="-921.3" font-family="Handlee" font-size="14.00">EMail</text>
<polyline fill="none" stroke="black" points="238.5,-913.5 330.5,-913.5 "/>
<text text-anchor="middle" x="284.5" y="-898.3" font-family="Handlee" font-size="14.00">TempToken</text>
<polyline fill="none" stroke="black" points="238.5,-890.5 330.5,-890.5 "/>
<text text-anchor="middle" x="284.5" y="-875.3" font-family="Handlee" font-size="14.00">[STUFF]</text>
</g>
<!-- canISeeTheDoctorNow -->
<g id="node12" class="node">
<title>canISeeTheDoctorNow</title>
<ellipse fill="none" stroke="black" cx="974" cy="-902" rx="94.51" ry="26.74"/>
<text text-anchor="middle" x="974" y="-905.8" font-family="Handlee" font-size="14.00">Can I See</text>
<text text-anchor="middle" x="974" y="-890.8" font-family="Handlee" font-size="14.00">The Doctor Now?</text>
</g>
<!-- canISeeTheDoctorNowInput&#45;&gt;canISeeTheDoctorNow -->
<g id="edge8" class="edge">
<title>canISeeTheDoctorNowInput&#45;&gt;canISeeTheDoctorNow</title>
<path fill="none" stroke="black" d="M330.61,-902C439.02,-902 716.49,-902 868.89,-902"/>
<polygon fill="black" stroke="black" points="869.2,-905.5 879.2,-902 869.2,-898.5 869.2,-905.5"/>
</g>
<!-- canISeeTheDoctorNowOutput -->
<g id="node11" class="node">
<title>canISeeTheDoctorNowOutput</title>
<polygon fill="none" stroke="black" points="1247,-800 1247,-892 1654,-892 1654,-800 1247,-800"/>
<text text-anchor="middle" x="1266.5" y="-876.8" font-family="Handlee" font-size="14.00">Yes</text>
<polyline fill="none" stroke="black" points="1286,-869 1286,-892 "/>
<text text-anchor="middle" x="1351" y="-876.8" font-family="Handlee" font-size="14.00">No Appointment</text>
<polyline fill="none" stroke="black" points="1416,-869 1416,-892 "/>
<text text-anchor="middle" x="1479.5" y="-876.8" font-family="Handlee" font-size="14.00">No Our Problem</text>
<polyline fill="none" stroke="black" points="1543,-869 1543,-892 "/>
<text text-anchor="middle" x="1598.5" y="-876.8" font-family="Handlee" font-size="14.00">Who Are You?</text>
<polyline fill="none" stroke="black" points="1247,-869 1654,-869 "/>
<text text-anchor="middle" x="1450.5" y="-853.8" font-family="Handlee" font-size="14.00">EMail</text>
<polyline fill="none" stroke="black" points="1247,-846 1654,-846 "/>
<text text-anchor="middle" x="1450.5" y="-830.8" font-family="Handlee" font-size="14.00">TempToken</text>
<polyline fill="none" stroke="black" points="1247,-823 1654,-823 "/>
<text text-anchor="middle" x="1450.5" y="-807.8" font-family="Handlee" font-size="14.00">[STUFF]</text>
</g>
<!-- canISeeTheDoctorNow&#45;&gt;areYouSureItsMe -->
<g id="edge18" class="edge">
<title>canISeeTheDoctorNow&#45;&gt;areYouSureItsMe</title>
<path fill="none" stroke="red" stroke-dasharray="1,5" d="M1068.26,-898.85C1114.34,-901.41 1168.88,-910.99 1210.69,-938 1235.6,-954.1 1222.28,-977.6 1247,-994 1281.96,-1017.19 1327.49,-1026.68 1366.52,-1030.16"/>
<polygon fill="red" stroke="red" points="1366.58,-1033.67 1376.82,-1030.95 1367.11,-1026.69 1366.58,-1033.67"/>
</g>
<!-- canISeeTheDoctorNow&#45;&gt;canISeeTheDoctorNowOutput -->
<g id="edge9" class="edge">
<title>canISeeTheDoctorNow&#45;&gt;canISeeTheDoctorNowOutput</title>
<path fill="none" stroke="black" d="M1061.75,-891.76C1110.96,-885.95 1174.88,-878.41 1236.58,-871.13"/>
<polygon fill="black" stroke="black" points="1237.34,-874.56 1246.86,-869.91 1236.52,-867.61 1237.34,-874.56"/>
</g>
<!-- docSchedule -->
<g id="node13" class="node">
<title>docSchedule</title>
<polygon fill="none" stroke="black" points="901,-795.5 901,-856.5 1047,-856.5 1047,-795.5 901,-795.5"/>
<text text-anchor="middle" x="974" y="-841.3" font-family="Handlee" font-size="14.00">Doctors&#39;</text>
<text text-anchor="middle" x="974" y="-826.3" font-family="Handlee" font-size="14.00">Schedules</text>
<polyline fill="none" stroke="black" points="901,-818.5 1047,-818.5 "/>
<text text-anchor="middle" x="943" y="-803.3" font-family="Handlee" font-size="14.00">Timespan</text>
<polyline fill="none" stroke="black" points="985,-795.5 985,-818.5 "/>
<text text-anchor="middle" x="1016" y="-803.3" font-family="Handlee" font-size="14.00">Doctor</text>
</g>
<!-- docSchedule&#45;&gt;whatTimesAreOpenForAnAppointment -->
<g id="edge12" class="edge">
<title>docSchedule&#45;&gt;whatTimesAreOpenForAnAppointment</title>
<path fill="none" stroke="black" d="M1047.23,-813.86C1093.88,-805.98 1155.89,-795.47 1210.69,-786 1260.24,-777.44 1315.55,-767.72 1360.46,-759.79"/>
<polygon fill="black" stroke="black" points="1361.22,-763.21 1370.46,-758.02 1360,-756.32 1361.22,-763.21"/>
</g>
<!-- whatTimesAreOpenForAnAppointmentInput -->
<g id="node14" class="node">
<title>whatTimesAreOpenForAnAppointmentInput</title>
<polygon fill="none" stroke="black" points="804,-707.5 804,-776.5 1144,-776.5 1144,-707.5 804,-707.5"/>
<text text-anchor="middle" x="831.5" y="-738.3" font-family="Handlee" font-size="14.00">Email</text>
<polyline fill="none" stroke="black" points="859,-707.5 859,-776.5 "/>
<text text-anchor="middle" x="887" y="-738.3" font-family="Handlee" font-size="14.00">Token</text>
<polyline fill="none" stroke="black" points="915,-707.5 915,-776.5 "/>
<text text-anchor="middle" x="961.5" y="-738.3" font-family="Handlee" font-size="14.00">[StartDate]</text>
<polyline fill="none" stroke="black" points="1008,-707.5 1008,-776.5 "/>
<text text-anchor="middle" x="1040.5" y="-761.3" font-family="Handlee" font-size="14.00">[DAY</text>
<polyline fill="none" stroke="black" points="1008,-753.5 1073,-753.5 "/>
<text text-anchor="middle" x="1040.5" y="-738.3" font-family="Handlee" font-size="14.00">Week</text>
<polyline fill="none" stroke="black" points="1008,-730.5 1073,-730.5 "/>
<text text-anchor="middle" x="1040.5" y="-715.3" font-family="Handlee" font-size="14.00">Month]</text>
<polyline fill="none" stroke="black" points="1073,-707.5 1073,-776.5 "/>
<text text-anchor="middle" x="1108.5" y="-738.3" font-family="Handlee" font-size="14.00">[STUFF]</text>
</g>
<!-- whatTimesAreOpenForAnAppointmentInput&#45;&gt;whatTimesAreOpenForAnAppointment -->
<g id="edge10" class="edge">
<title>whatTimesAreOpenForAnAppointmentInput&#45;&gt;whatTimesAreOpenForAnAppointment</title>
<path fill="none" stroke="black" d="M1144.3,-742.71C1214.74,-743.01 1293.92,-743.34 1353.97,-743.6"/>
<polygon fill="black" stroke="black" points="1354.18,-747.1 1364.2,-743.64 1354.21,-740.1 1354.18,-747.1"/>
</g>
<!-- whatTimesAreOpenForAnAppointmentOutput -->
<g id="node16" class="node">
<title>whatTimesAreOpenForAnAppointmentOutput</title>
<polygon fill="none" stroke="black" points="1691,-726 1691,-762 2033,-762 2033,-726 1691,-726"/>
<text text-anchor="middle" x="1718.5" y="-740.3" font-family="Handlee" font-size="14.00">Email</text>
<polyline fill="none" stroke="black" points="1746,-726 1746,-762 "/>
<text text-anchor="middle" x="1774" y="-740.3" font-family="Handlee" font-size="14.00">Token</text>
<polyline fill="none" stroke="black" points="1802,-726 1802,-762 "/>
<text text-anchor="middle" x="1833" y="-740.3" font-family="Handlee" font-size="14.00">Doctor</text>
<polyline fill="none" stroke="black" points="1864,-726 1864,-762 "/>
<text text-anchor="middle" x="1889" y="-740.3" font-family="Handlee" font-size="14.00">Start</text>
<polyline fill="none" stroke="black" points="1914,-726 1914,-762 "/>
<text text-anchor="middle" x="1938" y="-740.3" font-family="Handlee" font-size="14.00">Stop</text>
<polyline fill="none" stroke="black" points="1962,-726 1962,-762 "/>
<text text-anchor="middle" x="1997.5" y="-740.3" font-family="Handlee" font-size="14.00">[STUFF]</text>
</g>
<!-- whatTimesAreOpenForAnAppointment&#45;&gt;whatTimesAreOpenForAnAppointmentOutput -->
<g id="edge11" class="edge">
<title>whatTimesAreOpenForAnAppointment&#45;&gt;whatTimesAreOpenForAnAppointmentOutput</title>
<path fill="none" stroke="black" d="M1536.85,-744C1578.62,-744 1630.59,-744 1680.59,-744"/>
<polygon fill="black" stroke="black" points="1680.9,-747.5 1690.9,-744 1680.9,-740.5 1680.9,-747.5"/>
</g>
<!-- canYouFitMeInForThisAppointmentInput -->
<g id="node17" class="node">
<title>canYouFitMeInForThisAppointmentInput</title>
<polygon fill="none" stroke="black" points="803,-947 803,-983 1145,-983 1145,-947 803,-947"/>
<text text-anchor="middle" x="830.5" y="-961.3" font-family="Handlee" font-size="14.00">Email</text>
<polyline fill="none" stroke="black" points="858,-947 858,-983 "/>
<text text-anchor="middle" x="886" y="-961.3" font-family="Handlee" font-size="14.00">Token</text>
<polyline fill="none" stroke="black" points="914,-947 914,-983 "/>
<text text-anchor="middle" x="945" y="-961.3" font-family="Handlee" font-size="14.00">Doctor</text>
<polyline fill="none" stroke="black" points="976,-947 976,-983 "/>
<text text-anchor="middle" x="1001" y="-961.3" font-family="Handlee" font-size="14.00">Start</text>
<polyline fill="none" stroke="black" points="1026,-947 1026,-983 "/>
<text text-anchor="middle" x="1050" y="-961.3" font-family="Handlee" font-size="14.00">Stop</text>
<polyline fill="none" stroke="black" points="1074,-947 1074,-983 "/>
<text text-anchor="middle" x="1109.5" y="-961.3" font-family="Handlee" font-size="14.00">[STUFF]</text>
</g>
<!-- canYouFitMeInForThisAppointmentInput&#45;&gt;canYouFitMeInForThisAppointment -->
<g id="edge13" class="edge">
<title>canYouFitMeInForThisAppointmentInput&#45;&gt;canYouFitMeInForThisAppointment</title>
<path fill="none" stroke="black" d="M1145.3,-958.9C1215.78,-956.37 1294.85,-953.54 1354.71,-951.4"/>
<polygon fill="black" stroke="black" points="1355.03,-954.89 1364.9,-951.03 1354.78,-947.89 1355.03,-954.89"/>
</g>
<!-- canYouFitMeInForThisAppointmentOutput -->
<g id="node18" class="node">
<title>canYouFitMeInForThisAppointmentOutput</title>
<polygon fill="none" stroke="black" points="1799.5,-852 1799.5,-944 1924.5,-944 1924.5,-852 1799.5,-852"/>
<text text-anchor="middle" x="1831.5" y="-928.8" font-family="Handlee" font-size="14.00">Yes</text>
<polyline fill="none" stroke="black" points="1863.5,-921 1863.5,-944 "/>
<text text-anchor="middle" x="1894" y="-928.8" font-family="Handlee" font-size="14.00">No</text>
<polyline fill="none" stroke="black" points="1799.5,-921 1924.5,-921 "/>
<text text-anchor="middle" x="1862" y="-905.8" font-family="Handlee" font-size="14.00">Token</text>
<polyline fill="none" stroke="black" points="1799.5,-898 1924.5,-898 "/>
<text text-anchor="middle" x="1862" y="-882.8" font-family="Handlee" font-size="14.00">Confirmation ID</text>
<polyline fill="none" stroke="black" points="1799.5,-875 1924.5,-875 "/>
<text text-anchor="middle" x="1862" y="-859.8" font-family="Handlee" font-size="14.00">[STUFF]</text>
</g>
<!-- canYouFitMeInForThisAppointment&#45;&gt;canYouFitMeInForThisAppointmentOutput -->
<g id="edge14" class="edge">
<title>canYouFitMeInForThisAppointment&#45;&gt;canYouFitMeInForThisAppointmentOutput</title>
<path fill="none" stroke="black" d="M1533.38,-938C1608.13,-928.88 1717.55,-915.52 1789.02,-906.79"/>
<polygon fill="black" stroke="black" points="1789.78,-910.22 1799.28,-905.54 1788.93,-903.27 1789.78,-910.22"/>
</g>
<!-- getBillingInfo -->
<g id="node21" class="node">
<title>getBillingInfo</title>
<ellipse fill="none" stroke="black" cx="974" cy="-564" rx="103.48" ry="26.74"/>
<text text-anchor="middle" x="974" y="-567.8" font-family="Handlee" font-size="14.00">What&#39;s your billing</text>
<text text-anchor="middle" x="974" y="-552.8" font-family="Handlee" font-size="14.00">information?</text>
</g>
<!-- recommendTest -->
<g id="node22" class="node">
<title>recommendTest</title>
<ellipse fill="none" stroke="black" cx="974" cy="-501" rx="87.18" ry="18"/>
<text text-anchor="middle" x="974" y="-497.3" font-family="Handlee" font-size="14.00">Recommend Test</text>
</g>
<!-- initialAssessment -->
<g id="node23" class="node">
<title>initialAssessment</title>
<ellipse fill="none" stroke="black" cx="974" cy="-447" rx="92.88" ry="18"/>
<text text-anchor="middle" x="974" y="-443.3" font-family="Handlee" font-size="14.00">Initial Assessment</text>
</g>
<!-- getVisitCompletionPaperwork -->
<g id="node24" class="node">
<title>getVisitCompletionPaperwork</title>
<ellipse fill="none" stroke="black" cx="974" cy="-374" rx="108.38" ry="37.45"/>
<text text-anchor="middle" x="974" y="-385.3" font-family="Handlee" font-size="14.00">Can you give me</text>
<text text-anchor="middle" x="974" y="-370.3" font-family="Handlee" font-size="14.00">the visit completion</text>
<text text-anchor="middle" x="974" y="-355.3" font-family="Handlee" font-size="14.00">paperwork?</text>
</g>
<!-- ProcessAreaCompleteVetVisit -->
<!-- getBill -->
<g id="node26" class="node">
<title>getBill</title>
<ellipse fill="none" stroke="black" cx="974" cy="-203" rx="42.79" ry="18"/>
<text text-anchor="middle" x="974" y="-199.3" font-family="Handlee" font-size="14.00">Get Bill</text>
</g>
<!-- payBill -->
<g id="node27" class="node">
<title>payBill</title>
<ellipse fill="none" stroke="black" cx="974" cy="-149" rx="42.79" ry="18"/>
<text text-anchor="middle" x="974" y="-145.3" font-family="Handlee" font-size="14.00">Pay Bill</text>
</g>
<!-- createFollowupAppointments -->
<g id="node28" class="node">
<title>createFollowupAppointments</title>
<ellipse fill="none" stroke="black" cx="974" cy="-76" rx="79.81" ry="37.45"/>
<text text-anchor="middle" x="974" y="-87.3" font-family="Handlee" font-size="14.00">Create</text>
<text text-anchor="middle" x="974" y="-72.3" font-family="Handlee" font-size="14.00">follow&#45;up</text>
<text text-anchor="middle" x="974" y="-57.3" font-family="Handlee" font-size="14.00">appointments</text>
</g>
<!-- ProcessAreaVeterinaryClinicAdministration -->
<!-- ProcessAreaVeterinaryClinicAdministration&#45;&gt;ProcessAreaVisitVet -->
<g id="edge21" class="edge">
<title>ProcessAreaVeterinaryClinicAdministration&#45;&gt;ProcessAreaVisitVet</title>
<path fill="none" stroke="red" stroke-width="7" stroke-dasharray="1,5" d="M491.1,-539C568.03,-561.02 656.59,-584.12 738.31,-600 767.66,-605.7 799.32,-610.35 829.61,-614.07"/>
<polygon fill="red" stroke="red" stroke-width="7" points="829.16,-620.19 839.82,-615.3 830.62,-608.03 829.16,-620.19"/>
</g>
<!-- ProcessAreaVeterinaryClinicAdministration&#45;&gt;ProcessAreaCompleteVetVisit -->
<g id="edge20" class="edge">
<title>ProcessAreaVeterinaryClinicAdministration&#45;&gt;ProcessAreaCompleteVetVisit</title>
<path fill="none" stroke="red" stroke-width="7" stroke-dasharray="1,5" d="M494.63,-467.9C520.16,-463.31 545.5,-456.89 569,-448 653.02,-416.22 654.75,-369.23 737.61,-325.61"/>
<polygon fill="red" stroke="red" stroke-width="7" points="740.57,-330.98 746.72,-321 735.03,-320.06 740.57,-330.98"/>
</g>
<!-- changeAvailabilityTime -->
<g id="node30" class="node">
<title>changeAvailabilityTime</title>
<ellipse fill="none" stroke="black" cx="284.5" cy="-412" rx="138.69" ry="26.74"/>
<text text-anchor="middle" x="284.5" y="-415.8" font-family="Handlee" font-size="14.00">Can I change whether I&#39;m</text>
<text text-anchor="middle" x="284.5" y="-400.8" font-family="Handlee" font-size="14.00">Working at this time?</text>
</g>
<!-- hirePerson -->
<g id="node31" class="node">
<title>hirePerson</title>
<ellipse fill="none" stroke="black" cx="284.5" cy="-349" rx="112.38" ry="18"/>
<text text-anchor="middle" x="284.5" y="-345.3" font-family="Handlee" font-size="14.00">Can I hire this person?</text>
</g>
<!-- firePerson -->
<g id="node32" class="node">
<title>firePerson</title>
<ellipse fill="none" stroke="black" cx="284.5" cy="-295" rx="89.88" ry="18"/>
<text text-anchor="middle" x="284.5" y="-291.3" font-family="Handlee" font-size="14.00">I fire this person?</text>
</g>
<!-- systemLog -->
<g id="node33" class="node">
<title>systemLog</title>
<polygon fill="none" stroke="black" points="0,-1243 0,-1289 569,-1289 569,-1243 0,-1243"/>
<text text-anchor="middle" x="284.5" y="-1273.8" font-family="Handlee" font-size="14.00">System Log</text>
<polyline fill="none" stroke="black" points="0,-1266 569,-1266 "/>
<text text-anchor="middle" x="41.5" y="-1250.8" font-family="Handlee" font-size="14.00">DateTime</text>
<polyline fill="none" stroke="black" points="83,-1243 83,-1266 "/>
<text text-anchor="middle" x="154.5" y="-1250.8" font-family="Handlee" font-size="14.00">MicroserviceName</text>
<polyline fill="none" stroke="black" points="226,-1243 226,-1266 "/>
<text text-anchor="middle" x="274" y="-1250.8" font-family="Handlee" font-size="14.00">StatusCode</text>
<polyline fill="none" stroke="black" points="322,-1243 322,-1266 "/>
<text text-anchor="middle" x="369.5" y="-1250.8" font-family="Handlee" font-size="14.00">CallerEmail</text>
<polyline fill="none" stroke="black" points="417,-1243 417,-1266 "/>
<text text-anchor="middle" x="468.5" y="-1250.8" font-family="Handlee" font-size="14.00">ServerName</text>
<polyline fill="none" stroke="black" points="520,-1243 520,-1266 "/>
<text text-anchor="middle" x="544.5" y="-1250.8" font-family="Handlee" font-size="14.00">Note</text>
</g>
</g>
</svg>
