<?xml version="1.0" encoding="UTF-8" standalone="no"?>
<!DOCTYPE svg PUBLIC "-//W3C//DTD SVG 1.1//EN"
 "http://www.w3.org/Graphics/SVG/1.1/DTD/svg11.dtd">
<!-- Generated by graphviz version 2.43.0 (0)
 -->
<!-- Title: VeterinaryClinic Pages: 1 -->
<svg width="1879pt" height="1298pt"
 viewBox="0.00 0.00 1879.00 1297.50" xmlns="http://www.w3.org/2000/svg" xmlns:xlink="http://www.w3.org/1999/xlink">
<g id="graph0" class="graph" transform="scale(1 1) rotate(0) translate(4 1293.5)">
<title>VeterinaryClinic</title>
<polygon fill="white" stroke="transparent" points="-4,4 -4,-1293.5 1875,-1293.5 1875,4 -4,4"/>
<text text-anchor="middle" x="935.5" y="-7.8" font-family="Times,serif" font-size="14.00">Daniel&#39;s Veterinary Clinic</text>
<g id="clust1" class="cluster">
<title>cluster_StartVetVisit</title>
<polygon fill="none" stroke="black" points="129.81,-699 129.81,-1235 1863,-1235 1863,-699 129.81,-699"/>
<text text-anchor="middle" x="996.4" y="-1219.8" font-family="Times,serif" font-size="14.00">Start Vet Visit</text>
<text text-anchor="middle" x="996.4" y="-1204.8" font-family="Times,serif" font-size="14.00">I Am Able To Start Getting Help From The Vet</text>
</g>
<g id="clust2" class="cluster">
<title>cluster_VisitVet</title>
<polygon fill="none" stroke="black" points="741.31,-329 741.31,-691 1009.69,-691 1009.69,-329 741.31,-329"/>
<text text-anchor="middle" x="875.5" y="-675.8" font-family="Times,serif" font-size="14.00">Visit Vet</text>
<text text-anchor="middle" x="875.5" y="-660.8" font-family="Times,serif" font-size="14.00">The Vet Is Helping Me With My Pet</text>
</g>
<g id="clust3" class="cluster">
<title>cluster_CompleteVetVisit</title>
<polygon fill="none" stroke="black" points="639.21,-31 639.21,-321 1111.79,-321 1111.79,-31 639.21,-31"/>
<text text-anchor="middle" x="875.5" y="-305.8" font-family="Times,serif" font-size="14.00">Complete Vet Visit</text>
<text text-anchor="middle" x="875.5" y="-290.8" font-family="Times,serif" font-size="14.00">I Am Prepared To Continue My Relationship With The Clinic/Vet</text>
</g>
<g id="clust4" class="cluster">
<title>cluster_VeterinaryClinicAdministration</title>
<polygon fill="none" stroke="black" points="66.12,-269 66.12,-539 427.88,-539 427.88,-269 66.12,-269"/>
<text text-anchor="middle" x="247" y="-523.8" font-family="Times,serif" font-size="14.00">Veterinary Clinic Administration</text>
<text text-anchor="middle" x="247" y="-508.8" font-family="Times,serif" font-size="14.00">We Are Able To Treat Patients</text>
</g>
<!-- ProcessAreaStartVetVisit -->
<!-- ProcessAreaVisitVet -->
<!-- ProcessAreaStartVetVisit&#45;&gt;ProcessAreaVisitVet -->
<g id="edge19" class="edge">
<title>ProcessAreaStartVetVisit&#45;&gt;ProcessAreaVisitVet</title>
<path fill="none" stroke="red" stroke-width="7" stroke-dasharray="1,5" d="M414.06,-699C512.84,-683.54 636.87,-664.12 731.24,-649.35"/>
<polygon fill="red" stroke="red" stroke-width="7" points="732.38,-655.37 741.31,-647.77 730.48,-643.27 732.38,-655.37"/>
<polygon fill="none" stroke="red" points="512,-780.5 512,-805.5 622,-805.5 622,-780.5 512,-780.5"/>
<text text-anchor="start" x="530.5" y="-789.3" font-family="Handlee" font-size="14.00" fill="red">REQUIRED</text>
<polygon fill="none" stroke="red" points="512,-755.5 512,-780.5 622,-780.5 622,-755.5 512,-755.5"/>
<text text-anchor="start" x="551.5" y="-764.3" font-family="Handlee" font-size="14.00" fill="red">Email</text>
<polygon fill="none" stroke="red" points="512,-730.5 512,-755.5 622,-755.5 622,-730.5 512,-730.5"/>
<text text-anchor="start" x="536.5" y="-739.3" font-family="Handlee" font-size="14.00" fill="red">AuthToken</text>
<polygon fill="none" stroke="red" points="512,-705.5 512,-730.5 622,-730.5 622,-705.5 512,-705.5"/>
<text text-anchor="start" x="546.5" y="-714.3" font-family="Handlee" font-size="14.00" fill="red">Doctor</text>
<polygon fill="none" stroke="red" points="512,-680.5 512,-705.5 622,-705.5 622,-680.5 512,-680.5"/>
<text text-anchor="start" x="517" y="-689.3" font-family="Handlee" font-size="14.00" fill="red">AppointmentTime</text>
</g>
<!-- doYouKnowMeInput -->
<g id="node2" class="node">
<title>doYouKnowMeInput</title>
<polygon fill="none" stroke="black" points="211.5,-969.5 211.5,-1038.5 282.5,-1038.5 282.5,-969.5 211.5,-969.5"/>
<text text-anchor="middle" x="247" y="-1023.3" font-family="Handlee" font-size="14.00">Email</text>
<polyline fill="none" stroke="black" points="211.5,-1015.5 282.5,-1015.5 "/>
<text text-anchor="middle" x="247" y="-1000.3" font-family="Handlee" font-size="14.00">[OTP]</text>
<polyline fill="none" stroke="black" points="211.5,-992.5 282.5,-992.5 "/>
<text text-anchor="middle" x="247" y="-977.3" font-family="Handlee" font-size="14.00">[STUFF]</text>
</g>
<!-- doYouKnowMe -->
<g id="node5" class="node">
<title>doYouKnowMe</title>
<ellipse fill="none" stroke="black" cx="875" cy="-1029" rx="50.41" ry="26.74"/>
<text text-anchor="middle" x="875" y="-1032.8" font-family="Handlee" font-size="14.00">Do you</text>
<text text-anchor="middle" x="875" y="-1017.8" font-family="Handlee" font-size="14.00">know me?</text>
</g>
<!-- doYouKnowMeInput&#45;&gt;doYouKnowMe -->
<g id="edge2" class="edge">
<title>doYouKnowMeInput&#45;&gt;doYouKnowMe</title>
<path fill="none" stroke="black" d="M282.55,-1005.38C384.62,-1009.46 685.7,-1021.48 814.47,-1026.62"/>
<polygon fill="black" stroke="black" points="814.42,-1030.12 824.55,-1027.03 814.7,-1023.13 814.42,-1030.12"/>
</g>
<!-- doYouKnowMeOutput -->
<g id="node3" class="node">
<title>doYouKnowMeOutput</title>
<polygon fill="none" stroke="black" points="1263.5,-1096 1263.5,-1188 1386.5,-1188 1386.5,-1096 1263.5,-1096"/>
<text text-anchor="middle" x="1281.5" y="-1172.8" font-family="Handlee" font-size="14.00">Yes</text>
<polyline fill="none" stroke="black" points="1299.5,-1165 1299.5,-1188 "/>
<text text-anchor="middle" x="1316.5" y="-1172.8" font-family="Handlee" font-size="14.00">No</text>
<polyline fill="none" stroke="black" points="1333.5,-1165 1333.5,-1188 "/>
<text text-anchor="middle" x="1360" y="-1172.8" font-family="Handlee" font-size="14.00">Maybe</text>
<polyline fill="none" stroke="black" points="1263.5,-1165 1386.5,-1165 "/>
<text text-anchor="middle" x="1325" y="-1149.8" font-family="Handlee" font-size="14.00">Email</text>
<polyline fill="none" stroke="black" points="1263.5,-1142 1386.5,-1142 "/>
<text text-anchor="middle" x="1325" y="-1126.8" font-family="Handlee" font-size="14.00">[OTP]</text>
<polyline fill="none" stroke="black" points="1263.5,-1119 1386.5,-1119 "/>
<text text-anchor="middle" x="1325" y="-1103.8" font-family="Handlee" font-size="14.00">[STUFF]</text>
</g>
<!-- knownEMails -->
<g id="node4" class="node">
<title>knownEMails</title>
<polygon fill="none" stroke="black" points="196.11,-1057 297.89,-1057 334.14,-1093 159.86,-1093 196.11,-1057"/>
<text text-anchor="middle" x="247" y="-1071.3" font-family="Handlee" font-size="14.00">Known Emails</text>
</g>
<!-- knownEMails&#45;&gt;doYouKnowMe -->
<g id="edge1" class="edge">
<title>knownEMails&#45;&gt;doYouKnowMe</title>
<path fill="none" stroke="black" d="M311.47,-1070.34C432.91,-1061.41 696.58,-1042.04 814.7,-1033.36"/>
<polygon fill="black" stroke="black" points="815.27,-1036.83 824.98,-1032.6 814.75,-1029.84 815.27,-1036.83"/>
</g>
<!-- doYouKnowMe&#45;&gt;doYouKnowMeOutput -->
<g id="edge3" class="edge">
<title>doYouKnowMe&#45;&gt;doYouKnowMeOutput</title>
<path fill="none" stroke="black" d="M925.44,-1028.23C974.94,-1029.31 1052.14,-1036.17 1111.79,-1065 1121.19,-1069.55 1119.97,-1075.76 1129,-1081 1167.3,-1103.24 1214.62,-1118.29 1253.05,-1127.88"/>
<polygon fill="black" stroke="black" points="1252.59,-1131.37 1263.13,-1130.32 1254.23,-1124.57 1252.59,-1131.37"/>
</g>
<!-- otpWaitList -->
<g id="node6" class="node">
<title>otpWaitList</title>
<polygon fill="none" stroke="black" points="1646.11,-1067 1747.89,-1067 1784.14,-1103 1609.86,-1103 1646.11,-1067"/>
<text text-anchor="middle" x="1697" y="-1081.3" font-family="Handlee" font-size="14.00">OTP Waitlist</text>
</g>
<!-- doYouKnowMe&#45;&gt;otpWaitList -->
<g id="edge4" class="edge">
<title>doYouKnowMe&#45;&gt;otpWaitList</title>
<path fill="none" stroke="black" d="M932.9,-1038.44C987.8,-1047.14 1073.35,-1059.64 1148,-1066 1315.01,-1080.22 1511.51,-1083.87 1617.94,-1084.76"/>
<polygon fill="black" stroke="black" points="933.44,-1034.98 923.01,-1036.86 932.34,-1041.89 933.44,-1034.98"/>
<polygon fill="black" stroke="black" points="1617.92,-1088.26 1627.95,-1084.84 1617.98,-1081.26 1617.92,-1088.26"/>
</g>
<!-- areYouSureItsMe -->
<g id="node9" class="node">
<title>areYouSureItsMe</title>
<ellipse fill="none" stroke="black" cx="1325" cy="-1030" rx="62.87" ry="26.74"/>
<text text-anchor="middle" x="1325" y="-1033.8" font-family="Handlee" font-size="14.00">Are you sure</text>
<text text-anchor="middle" x="1325" y="-1018.8" font-family="Handlee" font-size="14.00">it&#39;s me?</text>
</g>
<!-- doYouKnowMe&#45;&gt;areYouSureItsMe -->
<g id="edge16" class="edge">
<title>doYouKnowMe&#45;&gt;areYouSureItsMe</title>
<path fill="none" stroke="red" stroke-dasharray="1,5" d="M925.23,-1029.11C1004.32,-1029.29 1160.08,-1029.63 1251.78,-1029.84"/>
<polygon fill="red" stroke="red" points="1251.81,-1033.34 1261.82,-1029.86 1251.82,-1026.34 1251.81,-1033.34"/>
</g>
<!-- whatTimesAreOpenForAnAppointment -->
<g id="node15" class="node">
<title>whatTimesAreOpenForAnAppointment</title>
<ellipse fill="none" stroke="black" cx="1325" cy="-744" rx="72.66" ry="37.45"/>
<text text-anchor="middle" x="1325" y="-755.3" font-family="Handlee" font-size="14.00">What times are</text>
<text text-anchor="middle" x="1325" y="-740.3" font-family="Handlee" font-size="14.00">open for an</text>
<text text-anchor="middle" x="1325" y="-725.3" font-family="Handlee" font-size="14.00">appointment?</text>
</g>
<!-- doYouKnowMe&#45;&gt;whatTimesAreOpenForAnAppointment -->
<g id="edge17" class="edge">
<title>doYouKnowMe&#45;&gt;whatTimesAreOpenForAnAppointment</title>
<path fill="none" stroke="red" stroke-dasharray="1,5" d="M923.72,-1036.47C977.01,-1041.88 1062.26,-1041.26 1111.79,-993 1177.11,-929.35 1086.26,-858.13 1148,-791 1171.86,-765.05 1208.32,-752.79 1241.87,-747.22"/>
<polygon fill="red" stroke="red" points="1242.79,-750.62 1252.17,-745.69 1241.77,-743.69 1242.79,-750.62"/>
</g>
<!-- canYouFitMeInForThisAppointment -->
<g id="node19" class="node">
<title>canYouFitMeInForThisAppointment</title>
<ellipse fill="none" stroke="black" cx="1325" cy="-948" rx="69.09" ry="37.45"/>
<text text-anchor="middle" x="1325" y="-959.3" font-family="Handlee" font-size="14.00">Can you fit me</text>
<text text-anchor="middle" x="1325" y="-944.3" font-family="Handlee" font-size="14.00">in for this</text>
<text text-anchor="middle" x="1325" y="-929.3" font-family="Handlee" font-size="14.00">appoointment?</text>
</g>
<!-- doYouKnowMe&#45;&gt;canYouFitMeInForThisAppointment -->
<g id="edge15" class="edge">
<title>doYouKnowMe&#45;&gt;canYouFitMeInForThisAppointment</title>
<path fill="none" stroke="red" stroke-dasharray="1,5" d="M924,-1022.49C971.74,-1015.83 1047.01,-1004.8 1111.79,-993 1158.17,-984.55 1209.93,-973.6 1250.72,-964.62"/>
<polygon fill="red" stroke="red" points="1251.57,-968.02 1260.58,-962.44 1250.06,-961.19 1251.57,-968.02"/>
</g>
<!-- areYouSureItsMeInput -->
<g id="node7" class="node">
<title>areYouSureItsMeInput</title>
<polygon fill="none" stroke="black" points="839.5,-1074.5 839.5,-1143.5 910.5,-1143.5 910.5,-1074.5 839.5,-1074.5"/>
<text text-anchor="middle" x="875" y="-1128.3" font-family="Handlee" font-size="14.00">Email</text>
<polyline fill="none" stroke="black" points="839.5,-1120.5 910.5,-1120.5 "/>
<text text-anchor="middle" x="875" y="-1105.3" font-family="Handlee" font-size="14.00">OTP</text>
<polyline fill="none" stroke="black" points="839.5,-1097.5 910.5,-1097.5 "/>
<text text-anchor="middle" x="875" y="-1082.3" font-family="Handlee" font-size="14.00">[STUFF]</text>
</g>
<!-- areYouSureItsMeInput&#45;&gt;areYouSureItsMe -->
<g id="edge6" class="edge">
<title>areYouSureItsMeInput&#45;&gt;areYouSureItsMe</title>
<path fill="none" stroke="black" d="M910.78,-1102.87C984.94,-1089.79 1159.72,-1058.97 1256.53,-1041.9"/>
<polygon fill="black" stroke="black" points="1257.26,-1045.32 1266.5,-1040.14 1256.05,-1038.43 1257.26,-1045.32"/>
</g>
<!-- areYouSureItsMeOutput -->
<g id="node8" class="node">
<title>areYouSureItsMeOutput</title>
<polygon fill="none" stroke="black" points="1658.5,-979.5 1658.5,-1048.5 1735.5,-1048.5 1735.5,-979.5 1658.5,-979.5"/>
<text text-anchor="middle" x="1678" y="-1033.3" font-family="Handlee" font-size="14.00">Yes</text>
<polyline fill="none" stroke="black" points="1697.5,-1025.5 1697.5,-1048.5 "/>
<text text-anchor="middle" x="1716.5" y="-1033.3" font-family="Handlee" font-size="14.00">No</text>
<polyline fill="none" stroke="black" points="1658.5,-1025.5 1735.5,-1025.5 "/>
<text text-anchor="middle" x="1697" y="-1010.3" font-family="Handlee" font-size="14.00">TempToken</text>
<polyline fill="none" stroke="black" points="1658.5,-1002.5 1735.5,-1002.5 "/>
<text text-anchor="middle" x="1697" y="-987.3" font-family="Handlee" font-size="14.00">[STUFF]</text>
</g>
<!-- areYouSureItsMe&#45;&gt;otpWaitList -->
<g id="edge5" class="edge">
<title>areYouSureItsMe&#45;&gt;otpWaitList</title>
<path fill="none" stroke="black" d="M1394.61,-1040.2C1460.78,-1050.04 1560.4,-1064.84 1626.78,-1074.71"/>
<polygon fill="black" stroke="black" points="1395.03,-1036.72 1384.63,-1038.71 1394,-1043.65 1395.03,-1036.72"/>
<polygon fill="black" stroke="black" points="1626.32,-1078.18 1636.73,-1076.19 1627.35,-1071.26 1626.32,-1078.18"/>
</g>
<!-- areYouSureItsMe&#45;&gt;areYouSureItsMeOutput -->
<g id="edge7" class="edge">
<title>areYouSureItsMe&#45;&gt;areYouSureItsMeOutput</title>
<path fill="none" stroke="black" d="M1387.93,-1027.32C1461.26,-1024.15 1581.79,-1018.94 1648.27,-1016.06"/>
<polygon fill="black" stroke="black" points="1648.62,-1019.55 1658.46,-1015.62 1648.32,-1012.56 1648.62,-1019.55"/>
</g>
<!-- canISeeTheDoctorNowInput -->
<g id="node10" class="node">
<title>canISeeTheDoctorNowInput</title>
<polygon fill="none" stroke="black" points="208.5,-867.5 208.5,-936.5 285.5,-936.5 285.5,-867.5 208.5,-867.5"/>
<text text-anchor="middle" x="247" y="-921.3" font-family="Handlee" font-size="14.00">EMail</text>
<polyline fill="none" stroke="black" points="208.5,-913.5 285.5,-913.5 "/>
<text text-anchor="middle" x="247" y="-898.3" font-family="Handlee" font-size="14.00">TempToken</text>
<polyline fill="none" stroke="black" points="208.5,-890.5 285.5,-890.5 "/>
<text text-anchor="middle" x="247" y="-875.3" font-family="Handlee" font-size="14.00">[STUFF]</text>
</g>
<!-- canISeeTheDoctorNow -->
<g id="node12" class="node">
<title>canISeeTheDoctorNow</title>
<ellipse fill="none" stroke="black" cx="875" cy="-902" rx="83.38" ry="26.74"/>
<text text-anchor="middle" x="875" y="-905.8" font-family="Handlee" font-size="14.00">Can I See</text>
<text text-anchor="middle" x="875" y="-890.8" font-family="Handlee" font-size="14.00">The Doctor Now?</text>
</g>
<!-- canISeeTheDoctorNowInput&#45;&gt;canISeeTheDoctorNow -->
<g id="edge8" class="edge">
<title>canISeeTheDoctorNowInput&#45;&gt;canISeeTheDoctorNow</title>
<path fill="none" stroke="black" d="M285.75,-902C382.46,-902 641.3,-902 781.2,-902"/>
<polygon fill="black" stroke="black" points="781.48,-905.5 791.48,-902 781.48,-898.5 781.48,-905.5"/>
</g>
<!-- canISeeTheDoctorNowOutput -->
<g id="node11" class="node">
<title>canISeeTheDoctorNowOutput</title>
<polygon fill="none" stroke="black" points="1148,-800 1148,-892 1502,-892 1502,-800 1148,-800"/>
<text text-anchor="middle" x="1166" y="-876.8" font-family="Handlee" font-size="14.00">Yes</text>
<polyline fill="none" stroke="black" points="1184,-869 1184,-892 "/>
<text text-anchor="middle" x="1239" y="-876.8" font-family="Handlee" font-size="14.00">No Appointment</text>
<polyline fill="none" stroke="black" points="1294,-869 1294,-892 "/>
<text text-anchor="middle" x="1349" y="-876.8" font-family="Handlee" font-size="14.00">No Our Problem</text>
<polyline fill="none" stroke="black" points="1404,-869 1404,-892 "/>
<text text-anchor="middle" x="1453" y="-876.8" font-family="Handlee" font-size="14.00">Who Are You?</text>
<polyline fill="none" stroke="black" points="1148,-869 1502,-869 "/>
<text text-anchor="middle" x="1325" y="-853.8" font-family="Handlee" font-size="14.00">EMail</text>
<polyline fill="none" stroke="black" points="1148,-846 1502,-846 "/>
<text text-anchor="middle" x="1325" y="-830.8" font-family="Handlee" font-size="14.00">TempToken</text>
<polyline fill="none" stroke="black" points="1148,-823 1502,-823 "/>
<text text-anchor="middle" x="1325" y="-807.8" font-family="Handlee" font-size="14.00">[STUFF]</text>
</g>
<!-- canISeeTheDoctorNow&#45;&gt;areYouSureItsMe -->
<g id="edge18" class="edge">
<title>canISeeTheDoctorNow&#45;&gt;areYouSureItsMe</title>
<path fill="none" stroke="red" stroke-dasharray="1,5" d="M957.73,-898.31C1006.03,-899.87 1066.41,-908.65 1111.79,-938 1136.68,-954.1 1123.53,-977.28 1148,-994 1178.22,-1014.65 1217.73,-1023.93 1251.65,-1027.93"/>
<polygon fill="red" stroke="red" points="1251.67,-1031.45 1261.98,-1029 1252.39,-1024.49 1251.67,-1031.45"/>
</g>
<!-- canISeeTheDoctorNow&#45;&gt;canISeeTheDoctorNowOutput -->
<g id="edge9" class="edge">
<title>canISeeTheDoctorNow&#45;&gt;canISeeTheDoctorNowOutput</title>
<path fill="none" stroke="black" d="M953.01,-892.37C1003.94,-886.01 1073.01,-877.37 1137.74,-869.28"/>
<polygon fill="black" stroke="black" points="1138.19,-872.75 1147.68,-868.04 1137.32,-865.81 1138.19,-872.75"/>
</g>
<!-- docSchedule -->
<g id="node13" class="node">
<title>docSchedule</title>
<polygon fill="none" stroke="black" points="811.5,-795.5 811.5,-856.5 938.5,-856.5 938.5,-795.5 811.5,-795.5"/>
<text text-anchor="middle" x="875" y="-841.3" font-family="Handlee" font-size="14.00">Doctors&#39;</text>
<text text-anchor="middle" x="875" y="-826.3" font-family="Handlee" font-size="14.00">Schedules</text>
<polyline fill="none" stroke="black" points="811.5,-818.5 938.5,-818.5 "/>
<text text-anchor="middle" x="846.5" y="-803.3" font-family="Handlee" font-size="14.00">Timespan</text>
<polyline fill="none" stroke="black" points="881.5,-795.5 881.5,-818.5 "/>
<text text-anchor="middle" x="910" y="-803.3" font-family="Handlee" font-size="14.00">Doctor</text>
</g>
<!-- docSchedule&#45;&gt;whatTimesAreOpenForAnAppointment -->
<g id="edge12" class="edge">
<title>docSchedule&#45;&gt;whatTimesAreOpenForAnAppointment</title>
<path fill="none" stroke="black" d="M938.63,-815.85C986.2,-808.03 1053.19,-796.77 1111.79,-786 1156.74,-777.74 1206.9,-767.84 1247.17,-759.73"/>
<polygon fill="black" stroke="black" points="1248.08,-763.12 1257.19,-757.71 1246.69,-756.26 1248.08,-763.12"/>
</g>
<!-- whatTimesAreOpenForAnAppointmentInput -->
<g id="node14" class="node">
<title>whatTimesAreOpenForAnAppointmentInput</title>
<polygon fill="none" stroke="black" points="718.5,-707.5 718.5,-776.5 1031.5,-776.5 1031.5,-707.5 718.5,-707.5"/>
<text text-anchor="middle" x="742" y="-738.3" font-family="Handlee" font-size="14.00">Email</text>
<polyline fill="none" stroke="black" points="765.5,-707.5 765.5,-776.5 "/>
<text text-anchor="middle" x="790.5" y="-738.3" font-family="Handlee" font-size="14.00">Token</text>
<polyline fill="none" stroke="black" points="815.5,-707.5 815.5,-776.5 "/>
<text text-anchor="middle" x="858.5" y="-738.3" font-family="Handlee" font-size="14.00">[StartDate]</text>
<polyline fill="none" stroke="black" points="901.5,-707.5 901.5,-776.5 "/>
<text text-anchor="middle" x="931" y="-761.3" font-family="Handlee" font-size="14.00">[DAY</text>
<polyline fill="none" stroke="black" points="901.5,-753.5 960.5,-753.5 "/>
<text text-anchor="middle" x="931" y="-738.3" font-family="Handlee" font-size="14.00">Week</text>
<polyline fill="none" stroke="black" points="901.5,-730.5 960.5,-730.5 "/>
<text text-anchor="middle" x="931" y="-715.3" font-family="Handlee" font-size="14.00">Month]</text>
<polyline fill="none" stroke="black" points="960.5,-707.5 960.5,-776.5 "/>
<text text-anchor="middle" x="996" y="-738.3" font-family="Handlee" font-size="14.00">[STUFF]</text>
</g>
<!-- whatTimesAreOpenForAnAppointmentInput&#45;&gt;whatTimesAreOpenForAnAppointment -->
<g id="edge10" class="edge">
<title>whatTimesAreOpenForAnAppointmentInput&#45;&gt;whatTimesAreOpenForAnAppointment</title>
<path fill="none" stroke="black" d="M1031.75,-742.7C1102.41,-743.01 1183.08,-743.37 1241.75,-743.63"/>
<polygon fill="black" stroke="black" points="1242.05,-747.13 1252.07,-743.68 1242.08,-740.13 1242.05,-747.13"/>
</g>
<!-- whatTimesAreOpenForAnAppointmentOutput -->
<g id="node16" class="node">
<title>whatTimesAreOpenForAnAppointmentOutput</title>
<polygon fill="none" stroke="black" points="1539,-726 1539,-762 1855,-762 1855,-726 1539,-726"/>
<text text-anchor="middle" x="1562.5" y="-740.3" font-family="Handlee" font-size="14.00">Email</text>
<polyline fill="none" stroke="black" points="1586,-726 1586,-762 "/>
<text text-anchor="middle" x="1611" y="-740.3" font-family="Handlee" font-size="14.00">Token</text>
<polyline fill="none" stroke="black" points="1636,-726 1636,-762 "/>
<text text-anchor="middle" x="1664.5" y="-740.3" font-family="Handlee" font-size="14.00">Doctor</text>
<polyline fill="none" stroke="black" points="1693,-726 1693,-762 "/>
<text text-anchor="middle" x="1716.5" y="-740.3" font-family="Handlee" font-size="14.00">Start</text>
<polyline fill="none" stroke="black" points="1740,-726 1740,-762 "/>
<text text-anchor="middle" x="1762" y="-740.3" font-family="Handlee" font-size="14.00">Stop</text>
<polyline fill="none" stroke="black" points="1784,-726 1784,-762 "/>
<text text-anchor="middle" x="1819.5" y="-740.3" font-family="Handlee" font-size="14.00">[STUFF]</text>
</g>
<!-- whatTimesAreOpenForAnAppointment&#45;&gt;whatTimesAreOpenForAnAppointmentOutput -->
<g id="edge11" class="edge">
<title>whatTimesAreOpenForAnAppointment&#45;&gt;whatTimesAreOpenForAnAppointmentOutput</title>
<path fill="none" stroke="black" d="M1398.22,-744C1435.64,-744 1483.02,-744 1528.91,-744"/>
<polygon fill="black" stroke="black" points="1528.99,-747.5 1538.99,-744 1528.99,-740.5 1528.99,-747.5"/>
</g>
<!-- canYouFitMeInForThisAppointmentInput -->
<g id="node17" class="node">
<title>canYouFitMeInForThisAppointmentInput</title>
<polygon fill="none" stroke="black" points="717,-947 717,-983 1033,-983 1033,-947 717,-947"/>
<text text-anchor="middle" x="740.5" y="-961.3" font-family="Handlee" font-size="14.00">Email</text>
<polyline fill="none" stroke="black" points="764,-947 764,-983 "/>
<text text-anchor="middle" x="789" y="-961.3" font-family="Handlee" font-size="14.00">Token</text>
<polyline fill="none" stroke="black" points="814,-947 814,-983 "/>
<text text-anchor="middle" x="842.5" y="-961.3" font-family="Handlee" font-size="14.00">Doctor</text>
<polyline fill="none" stroke="black" points="871,-947 871,-983 "/>
<text text-anchor="middle" x="894.5" y="-961.3" font-family="Handlee" font-size="14.00">Start</text>
<polyline fill="none" stroke="black" points="918,-947 918,-983 "/>
<text text-anchor="middle" x="940" y="-961.3" font-family="Handlee" font-size="14.00">Stop</text>
<polyline fill="none" stroke="black" points="962,-947 962,-983 "/>
<text text-anchor="middle" x="997.5" y="-961.3" font-family="Handlee" font-size="14.00">[STUFF]</text>
</g>
<!-- canYouFitMeInForThisAppointmentInput&#45;&gt;canYouFitMeInForThisAppointment -->
<g id="edge13" class="edge">
<title>canYouFitMeInForThisAppointmentInput&#45;&gt;canYouFitMeInForThisAppointment</title>
<path fill="none" stroke="black" d="M1033,-959.04C1104.86,-956.32 1186.85,-953.2 1245.44,-950.98"/>
<polygon fill="black" stroke="black" points="1245.88,-954.47 1255.74,-950.59 1245.61,-947.47 1245.88,-954.47"/>
</g>
<!-- canYouFitMeInForThisAppointmentOutput -->
<g id="node18" class="node">
<title>canYouFitMeInForThisAppointmentOutput</title>
<polygon fill="none" stroke="black" points="1643.5,-868 1643.5,-960 1750.5,-960 1750.5,-868 1643.5,-868"/>
<text text-anchor="middle" x="1670.5" y="-944.8" font-family="Handlee" font-size="14.00">Yes</text>
<polyline fill="none" stroke="black" points="1697.5,-937 1697.5,-960 "/>
<text text-anchor="middle" x="1724" y="-944.8" font-family="Handlee" font-size="14.00">No</text>
<polyline fill="none" stroke="black" points="1643.5,-937 1750.5,-937 "/>
<text text-anchor="middle" x="1697" y="-921.8" font-family="Handlee" font-size="14.00">Token</text>
<polyline fill="none" stroke="black" points="1643.5,-914 1750.5,-914 "/>
<text text-anchor="middle" x="1697" y="-898.8" font-family="Handlee" font-size="14.00">Confirmation ID</text>
<polyline fill="none" stroke="black" points="1643.5,-891 1750.5,-891 "/>
<text text-anchor="middle" x="1697" y="-875.8" font-family="Handlee" font-size="14.00">[STUFF]</text>
</g>
<!-- canYouFitMeInForThisAppointment&#45;&gt;canYouFitMeInForThisAppointmentOutput -->
<g id="edge14" class="edge">
<title>canYouFitMeInForThisAppointment&#45;&gt;canYouFitMeInForThisAppointmentOutput</title>
<path fill="none" stroke="black" d="M1393.43,-941.8C1461.69,-935.53 1566.41,-925.91 1633.03,-919.79"/>
<polygon fill="black" stroke="black" points="1633.74,-923.24 1643.38,-918.84 1633.1,-916.27 1633.74,-923.24"/>
</g>
<!-- getBillingInfo -->
<g id="node21" class="node">
<title>getBillingInfo</title>
<ellipse fill="none" stroke="black" cx="875" cy="-564" rx="84.29" ry="26.74"/>
<text text-anchor="middle" x="875" y="-567.8" font-family="Handlee" font-size="14.00">What&#39;s your billing</text>
<text text-anchor="middle" x="875" y="-552.8" font-family="Handlee" font-size="14.00">information?</text>
</g>
<!-- recommendTest -->
<g id="node22" class="node">
<title>recommendTest</title>
<ellipse fill="none" stroke="black" cx="875" cy="-501" rx="72.59" ry="18"/>
<text text-anchor="middle" x="875" y="-497.3" font-family="Handlee" font-size="14.00">Recommend Test</text>
</g>
<!-- initialAssessment -->
<g id="node23" class="node">
<title>initialAssessment</title>
<ellipse fill="none" stroke="black" cx="875" cy="-447" rx="76.89" ry="18"/>
<text text-anchor="middle" x="875" y="-443.3" font-family="Handlee" font-size="14.00">Initial Assessment</text>
</g>
<!-- getVisitCompletionPaperwork -->
<g id="node24" class="node">
<title>getVisitCompletionPaperwork</title>
<ellipse fill="none" stroke="black" cx="875" cy="-374" rx="88.28" ry="37.45"/>
<text text-anchor="middle" x="875" y="-385.3" font-family="Handlee" font-size="14.00">Can you give me</text>
<text text-anchor="middle" x="875" y="-370.3" font-family="Handlee" font-size="14.00">the visit completion</text>
<text text-anchor="middle" x="875" y="-355.3" font-family="Handlee" font-size="14.00">paperwork?</text>
</g>
<!-- ProcessAreaCompleteVetVisit -->
<!-- getBill -->
<g id="node26" class="node">
<title>getBill</title>
<ellipse fill="none" stroke="black" cx="875" cy="-203" rx="39.79" ry="18"/>
<text text-anchor="middle" x="875" y="-199.3" font-family="Handlee" font-size="14.00">Get Bill</text>
</g>
<!-- payBill -->
<g id="node27" class="node">
<title>payBill</title>
<ellipse fill="none" stroke="black" cx="875" cy="-149" rx="38.19" ry="18"/>
<text text-anchor="middle" x="875" y="-145.3" font-family="Handlee" font-size="14.00">Pay Bill</text>
</g>
<!-- createFollowupAppointments -->
<g id="node28" class="node">
<title>createFollowupAppointments</title>
<ellipse fill="none" stroke="black" cx="875" cy="-76" rx="65.11" ry="37.45"/>
<text text-anchor="middle" x="875" y="-87.3" font-family="Handlee" font-size="14.00">Create</text>
<text text-anchor="middle" x="875" y="-72.3" font-family="Handlee" font-size="14.00">follow&#45;up</text>
<text text-anchor="middle" x="875" y="-57.3" font-family="Handlee" font-size="14.00">appointments</text>
</g>
<!-- ProcessAreaVeterinaryClinicAdministration -->
<!-- ProcessAreaVeterinaryClinicAdministration&#45;&gt;ProcessAreaVisitVet -->
<g id="edge21" class="edge">
<title>ProcessAreaVeterinaryClinicAdministration&#45;&gt;ProcessAreaVisitVet</title>
<path fill="none" stroke="red" stroke-width="7" stroke-dasharray="1,5" d="M423.16,-539C489.99,-561.28 567.38,-584.55 639.21,-600 668.67,-606.34 700.55,-611.26 731.03,-615.06"/>
<polygon fill="red" stroke="red" stroke-width="7" points="730.65,-621.18 741.31,-616.3 732.12,-609.02 730.65,-621.18"/>
</g>
<!-- ProcessAreaVeterinaryClinicAdministration&#45;&gt;ProcessAreaCompleteVetVisit -->
<g id="edge20" class="edge">
<title>ProcessAreaVeterinaryClinicAdministration&#45;&gt;ProcessAreaCompleteVetVisit</title>
<path fill="none" stroke="red" stroke-width="7" stroke-dasharray="1,5" d="M427.88,-467.84C450.68,-463.31 473.27,-456.91 494,-448 568.82,-415.83 565.08,-368.64 638.1,-325.92"/>
<polygon fill="red" stroke="red" stroke-width="7" points="641.16,-331.23 646.89,-321 635.18,-320.54 641.16,-331.23"/>
</g>
<!-- changeAvailabilityTime -->
<g id="node30" class="node">
<title>changeAvailabilityTime</title>
<ellipse fill="none" stroke="black" cx="247" cy="-412" rx="111.03" ry="26.74"/>
<text text-anchor="middle" x="247" y="-415.8" font-family="Handlee" font-size="14.00">Can I change whether I&#39;m</text>
<text text-anchor="middle" x="247" y="-400.8" font-family="Handlee" font-size="14.00">Working at this time?</text>
</g>
<!-- hirePerson -->
<g id="node31" class="node">
<title>hirePerson</title>
<ellipse fill="none" stroke="black" cx="247" cy="-349" rx="92.88" ry="18"/>
<text text-anchor="middle" x="247" y="-345.3" font-family="Handlee" font-size="14.00">Can I hire this person?</text>
</g>
<!-- firePerson -->
<g id="node32" class="node">
<title>firePerson</title>
<ellipse fill="none" stroke="black" cx="247" cy="-295" rx="74.19" ry="18"/>
<text text-anchor="middle" x="247" y="-291.3" font-family="Handlee" font-size="14.00">I fire this person?</text>
</g>
<!-- systemLog -->
<g id="node33" class="node">
<title>systemLog</title>
<polygon fill="none" stroke="black" points="0,-1243 0,-1289 494,-1289 494,-1243 0,-1243"/>
<text text-anchor="middle" x="247" y="-1273.8" font-family="Handlee" font-size="14.00">System Log</text>
<polyline fill="none" stroke="black" points="0,-1266 494,-1266 "/>
<text text-anchor="middle" x="35.5" y="-1250.8" font-family="Handlee" font-size="14.00">DateTime</text>
<polyline fill="none" stroke="black" points="71,-1243 71,-1266 "/>
<text text-anchor="middle" x="132" y="-1250.8" font-family="Handlee" font-size="14.00">MicroserviceName</text>
<polyline fill="none" stroke="black" points="193,-1243 193,-1266 "/>
<text text-anchor="middle" x="236" y="-1250.8" font-family="Handlee" font-size="14.00">StatusCode</text>
<polyline fill="none" stroke="black" points="279,-1243 279,-1266 "/>
<text text-anchor="middle" x="319.5" y="-1250.8" font-family="Handlee" font-size="14.00">CallerEmail</text>
<polyline fill="none" stroke="black" points="360,-1243 360,-1266 "/>
<text text-anchor="middle" x="404" y="-1250.8" font-family="Handlee" font-size="14.00">ServerName</text>
<polyline fill="none" stroke="black" points="448,-1243 448,-1266 "/>
<text text-anchor="middle" x="471" y="-1250.8" font-family="Handlee" font-size="14.00">Note</text>
</g>
</g>
</svg>
