<?xml version="1.0" encoding="UTF-8" standalone="no"?><svg xmlns="http://www.w3.org/2000/svg" xmlns:xlink="http://www.w3.org/1999/xlink" contentScriptType="application/ecmascript" contentStyleType="text/css" height="393px" preserveAspectRatio="none" style="width:635px;height:393px;background:#FFFFFF;" version="1.1" viewBox="0 0 635 393" width="635px" zoomAndPan="magnify"><defs><filter height="300%" id="fccrrpsdort22" width="300%" x="-1" y="-1"><feGaussianBlur result="blurOut" stdDeviation="2.0"/><feColorMatrix in="blurOut" result="blurOut2" type="matrix" values="0 0 0 0 0 0 0 0 0 0 0 0 0 0 0 0 0 0 .4 0"/><feOffset dx="4.0" dy="4.0" in="blurOut2" result="blurOut3"/><feBlend in="SourceGraphic" in2="blurOut3" mode="normal"/></filter></defs><g><!--MD5=[9cfa872a99fa8e70a8c023fe905238fd]
class Pet--><rect fill="#FEFECE" filter="url(#fccrrpsdort22)" height="48" id="Pet" style="stroke:#A80036;stroke-width:1.5;" width="53" x="111" y="223"/><ellipse cx="126" cy="239" fill="#ADD1B2" rx="11" ry="11" style="stroke:#A80036;stroke-width:1.0;"/><path d="M128.9688,244.6406 Q128.3906,244.9375 127.75,245.0781 Q127.1094,245.2344 126.4063,245.2344 Q123.9063,245.2344 122.5781,243.5938 Q121.2656,241.9375 121.2656,238.8125 Q121.2656,235.6875 122.5781,234.0313 Q123.9063,232.375 126.4063,232.375 Q127.1094,232.375 127.75,232.5313 Q128.4063,232.6875 128.9688,232.9844 L128.9688,235.7031 Q128.3438,235.125 127.75,234.8594 Q127.1563,234.5781 126.5313,234.5781 Q125.1875,234.5781 124.5,235.6563 Q123.8125,236.7188 123.8125,238.8125 Q123.8125,240.9063 124.5,241.9844 Q125.1875,243.0469 126.5313,243.0469 Q127.1563,243.0469 127.75,242.7813 Q128.3438,242.5 128.9688,241.9219 L128.9688,244.6406 Z " fill="#000000"/><text fill="#000000" font-family="sans-serif" font-size="12" lengthAdjust="spacing" textLength="21" x="140" y="243.1543">Pet</text><line style="stroke:#A80036;stroke-width:1.5;" x1="112" x2="163" y1="255" y2="255"/><line style="stroke:#A80036;stroke-width:1.5;" x1="112" x2="163" y1="263" y2="263"/><!--MD5=[08d6a551530ab71b272f9c2c40bfb385]
class Owner--><rect fill="#FEFECE" filter="url(#fccrrpsdort22)" height="48" id="Owner" style="stroke:#A80036;stroke-width:1.5;" width="71" x="142" y="331"/><ellipse cx="157" cy="347" fill="#ADD1B2" rx="11" ry="11" style="stroke:#A80036;stroke-width:1.0;"/><path d="M159.9688,352.6406 Q159.3906,352.9375 158.75,353.0781 Q158.1094,353.2344 157.4063,353.2344 Q154.9063,353.2344 153.5781,351.5938 Q152.2656,349.9375 152.2656,346.8125 Q152.2656,343.6875 153.5781,342.0313 Q154.9063,340.375 157.4063,340.375 Q158.1094,340.375 158.75,340.5313 Q159.4063,340.6875 159.9688,340.9844 L159.9688,343.7031 Q159.3438,343.125 158.75,342.8594 Q158.1563,342.5781 157.5313,342.5781 Q156.1875,342.5781 155.5,343.6563 Q154.8125,344.7188 154.8125,346.8125 Q154.8125,348.9063 155.5,349.9844 Q156.1875,351.0469 157.5313,351.0469 Q158.1563,351.0469 158.75,350.7813 Q159.3438,350.5 159.9688,349.9219 L159.9688,352.6406 Z " fill="#000000"/><text fill="#000000" font-family="sans-serif" font-size="12" lengthAdjust="spacing" textLength="39" x="171" y="351.1543">Owner</text><line style="stroke:#A80036;stroke-width:1.5;" x1="143" x2="212" y1="363" y2="363"/><line style="stroke:#A80036;stroke-width:1.5;" x1="143" x2="212" y1="371" y2="371"/><!--MD5=[e049a9fc6087ec9a0b5519edf8a49765]
class Visit--><rect fill="#FEFECE" filter="url(#fccrrpsdort22)" height="48" id="Visit" style="stroke:#A80036;stroke-width:1.5;" width="58" x="148.5" y="115"/><ellipse cx="163.5" cy="131" fill="#ADD1B2" rx="11" ry="11" style="stroke:#A80036;stroke-width:1.0;"/><path d="M166.4688,136.6406 Q165.8906,136.9375 165.25,137.0781 Q164.6094,137.2344 163.9063,137.2344 Q161.4063,137.2344 160.0781,135.5938 Q158.7656,133.9375 158.7656,130.8125 Q158.7656,127.6875 160.0781,126.0313 Q161.4063,124.375 163.9063,124.375 Q164.6094,124.375 165.25,124.5313 Q165.9063,124.6875 166.4688,124.9844 L166.4688,127.7031 Q165.8438,127.125 165.25,126.8594 Q164.6563,126.5781 164.0313,126.5781 Q162.6875,126.5781 162,127.6563 Q161.3125,128.7188 161.3125,130.8125 Q161.3125,132.9063 162,133.9844 Q162.6875,135.0469 164.0313,135.0469 Q164.6563,135.0469 165.25,134.7813 Q165.8438,134.5 166.4688,133.9219 L166.4688,136.6406 Z " fill="#000000"/><text fill="#000000" font-family="sans-serif" font-size="12" lengthAdjust="spacing" textLength="26" x="177.5" y="135.1543">Visit</text><line style="stroke:#A80036;stroke-width:1.5;" x1="149.5" x2="205.5" y1="147" y2="147"/><line style="stroke:#A80036;stroke-width:1.5;" x1="149.5" x2="205.5" y1="155" y2="155"/><!--MD5=[df3fc242ef91a47d9d4eb0969d2a8168]
class Procedure--><rect fill="#FEFECE" filter="url(#fccrrpsdort22)" height="48" id="Procedure" style="stroke:#A80036;stroke-width:1.5;" width="97" x="7" y="7"/><ellipse cx="22" cy="23" fill="#ADD1B2" rx="11" ry="11" style="stroke:#A80036;stroke-width:1.0;"/><path d="M24.9688,28.6406 Q24.3906,28.9375 23.75,29.0781 Q23.1094,29.2344 22.4063,29.2344 Q19.9063,29.2344 18.5781,27.5938 Q17.2656,25.9375 17.2656,22.8125 Q17.2656,19.6875 18.5781,18.0313 Q19.9063,16.375 22.4063,16.375 Q23.1094,16.375 23.75,16.5313 Q24.4063,16.6875 24.9688,16.9844 L24.9688,19.7031 Q24.3438,19.125 23.75,18.8594 Q23.1563,18.5781 22.5313,18.5781 Q21.1875,18.5781 20.5,19.6563 Q19.8125,20.7188 19.8125,22.8125 Q19.8125,24.9063 20.5,25.9844 Q21.1875,27.0469 22.5313,27.0469 Q23.1563,27.0469 23.75,26.7813 Q24.3438,26.5 24.9688,25.9219 L24.9688,28.6406 Z " fill="#000000"/><text fill="#000000" font-family="sans-serif" font-size="12" lengthAdjust="spacing" textLength="65" x="36" y="27.1543">Procedure</text><line style="stroke:#A80036;stroke-width:1.5;" x1="8" x2="103" y1="39" y2="39"/><line style="stroke:#A80036;stroke-width:1.5;" x1="8" x2="103" y1="47" y2="47"/><!--MD5=[dbb8b4f13c7b21394f9d757e58732f45]
class Service--><rect fill="#FEFECE" filter="url(#fccrrpsdort22)" height="48" id="Service" style="stroke:#A80036;stroke-width:1.5;" width="77" x="139" y="7"/><ellipse cx="154" cy="23" fill="#ADD1B2" rx="11" ry="11" style="stroke:#A80036;stroke-width:1.0;"/><path d="M156.9688,28.6406 Q156.3906,28.9375 155.75,29.0781 Q155.1094,29.2344 154.4063,29.2344 Q151.9063,29.2344 150.5781,27.5938 Q149.2656,25.9375 149.2656,22.8125 Q149.2656,19.6875 150.5781,18.0313 Q151.9063,16.375 154.4063,16.375 Q155.1094,16.375 155.75,16.5313 Q156.4063,16.6875 156.9688,16.9844 L156.9688,19.7031 Q156.3438,19.125 155.75,18.8594 Q155.1563,18.5781 154.5313,18.5781 Q153.1875,18.5781 152.5,19.6563 Q151.8125,20.7188 151.8125,22.8125 Q151.8125,24.9063 152.5,25.9844 Q153.1875,27.0469 154.5313,27.0469 Q155.1563,27.0469 155.75,26.7813 Q156.3438,26.5 156.9688,25.9219 L156.9688,28.6406 Z " fill="#000000"/><text fill="#000000" font-family="sans-serif" font-size="12" lengthAdjust="spacing" textLength="45" x="168" y="27.1543">Service</text><line style="stroke:#A80036;stroke-width:1.5;" x1="140" x2="215" y1="39" y2="39"/><line style="stroke:#A80036;stroke-width:1.5;" x1="140" x2="215" y1="47" y2="47"/><!--MD5=[df38be88ccee13e832d6fafd6288a4ca]
class Test--><rect fill="#FEFECE" filter="url(#fccrrpsdort22)" height="48" id="Test" style="stroke:#A80036;stroke-width:1.5;" width="59" x="251" y="7"/><ellipse cx="266" cy="23" fill="#ADD1B2" rx="11" ry="11" style="stroke:#A80036;stroke-width:1.0;"/><path d="M268.9688,28.6406 Q268.3906,28.9375 267.75,29.0781 Q267.1094,29.2344 266.4063,29.2344 Q263.9063,29.2344 262.5781,27.5938 Q261.2656,25.9375 261.2656,22.8125 Q261.2656,19.6875 262.5781,18.0313 Q263.9063,16.375 266.4063,16.375 Q267.1094,16.375 267.75,16.5313 Q268.4063,16.6875 268.9688,16.9844 L268.9688,19.7031 Q268.3438,19.125 267.75,18.8594 Q267.1563,18.5781 266.5313,18.5781 Q265.1875,18.5781 264.5,19.6563 Q263.8125,20.7188 263.8125,22.8125 Q263.8125,24.9063 264.5,25.9844 Q265.1875,27.0469 266.5313,27.0469 Q267.1563,27.0469 267.75,26.7813 Q268.3438,26.5 268.9688,25.9219 L268.9688,28.6406 Z " fill="#000000"/><text fill="#000000" font-family="sans-serif" font-size="12" lengthAdjust="spacing" textLength="27" x="280" y="27.1543">Test</text><line style="stroke:#A80036;stroke-width:1.5;" x1="252" x2="309" y1="39" y2="39"/><line style="stroke:#A80036;stroke-width:1.5;" x1="252" x2="309" y1="47" y2="47"/><!--MD5=[b4d8efdc349058f9c297360f3f0101b2]
class BillItem--><rect fill="#FEFECE" filter="url(#fccrrpsdort22)" height="48" id="BillItem" style="stroke:#A80036;stroke-width:1.5;" width="76" x="242.5" y="115"/><ellipse cx="257.5" cy="131" fill="#ADD1B2" rx="11" ry="11" style="stroke:#A80036;stroke-width:1.0;"/><path d="M260.4688,136.6406 Q259.8906,136.9375 259.25,137.0781 Q258.6094,137.2344 257.9063,137.2344 Q255.4063,137.2344 254.0781,135.5938 Q252.7656,133.9375 252.7656,130.8125 Q252.7656,127.6875 254.0781,126.0313 Q255.4063,124.375 257.9063,124.375 Q258.6094,124.375 259.25,124.5313 Q259.9063,124.6875 260.4688,124.9844 L260.4688,127.7031 Q259.8438,127.125 259.25,126.8594 Q258.6563,126.5781 258.0313,126.5781 Q256.6875,126.5781 256,127.6563 Q255.3125,128.7188 255.3125,130.8125 Q255.3125,132.9063 256,133.9844 Q256.6875,135.0469 258.0313,135.0469 Q258.6563,135.0469 259.25,134.7813 Q259.8438,134.5 260.4688,133.9219 L260.4688,136.6406 Z " fill="#000000"/><text fill="#000000" font-family="sans-serif" font-size="12" lengthAdjust="spacing" textLength="44" x="271.5" y="135.1543">BillItem</text><line style="stroke:#A80036;stroke-width:1.5;" x1="243.5" x2="317.5" y1="147" y2="147"/><line style="stroke:#A80036;stroke-width:1.5;" x1="243.5" x2="317.5" y1="155" y2="155"/><!--MD5=[c680266cf9e454ca06c2d1bb8b683e6b]
class Schedule--><rect fill="#FEFECE" filter="url(#fccrrpsdort22)" height="48" id="Schedule" style="stroke:#A80036;stroke-width:1.5;" width="90" x="429.5" y="7"/><ellipse cx="444.5" cy="23" fill="#ADD1B2" rx="11" ry="11" style="stroke:#A80036;stroke-width:1.0;"/><path d="M447.4688,28.6406 Q446.8906,28.9375 446.25,29.0781 Q445.6094,29.2344 444.9063,29.2344 Q442.4063,29.2344 441.0781,27.5938 Q439.7656,25.9375 439.7656,22.8125 Q439.7656,19.6875 441.0781,18.0313 Q442.4063,16.375 444.9063,16.375 Q445.6094,16.375 446.25,16.5313 Q446.9063,16.6875 447.4688,16.9844 L447.4688,19.7031 Q446.8438,19.125 446.25,18.8594 Q445.6563,18.5781 445.0313,18.5781 Q443.6875,18.5781 443,19.6563 Q442.3125,20.7188 442.3125,22.8125 Q442.3125,24.9063 443,25.9844 Q443.6875,27.0469 445.0313,27.0469 Q445.6563,27.0469 446.25,26.7813 Q446.8438,26.5 447.4688,25.9219 L447.4688,28.6406 Z " fill="#000000"/><text fill="#000000" font-family="sans-serif" font-size="12" lengthAdjust="spacing" textLength="58" x="458.5" y="27.1543">Schedule</text><line style="stroke:#A80036;stroke-width:1.5;" x1="430.5" x2="518.5" y1="39" y2="39"/><line style="stroke:#A80036;stroke-width:1.5;" x1="430.5" x2="518.5" y1="47" y2="47"/><!--MD5=[4d37ff7ba0ceae5cd2f46bdb37209993]
class Bill--><rect fill="#FEFECE" filter="url(#fccrrpsdort22)" height="48" id="Bill" style="stroke:#A80036;stroke-width:1.5;" width="49" x="345" y="7"/><ellipse cx="360" cy="23" fill="#ADD1B2" rx="11" ry="11" style="stroke:#A80036;stroke-width:1.0;"/><path d="M362.9688,28.6406 Q362.3906,28.9375 361.75,29.0781 Q361.1094,29.2344 360.4063,29.2344 Q357.9063,29.2344 356.5781,27.5938 Q355.2656,25.9375 355.2656,22.8125 Q355.2656,19.6875 356.5781,18.0313 Q357.9063,16.375 360.4063,16.375 Q361.1094,16.375 361.75,16.5313 Q362.4063,16.6875 362.9688,16.9844 L362.9688,19.7031 Q362.3438,19.125 361.75,18.8594 Q361.1563,18.5781 360.5313,18.5781 Q359.1875,18.5781 358.5,19.6563 Q357.8125,20.7188 357.8125,22.8125 Q357.8125,24.9063 358.5,25.9844 Q359.1875,27.0469 360.5313,27.0469 Q361.1563,27.0469 361.75,26.7813 Q362.3438,26.5 362.9688,25.9219 L362.9688,28.6406 Z " fill="#000000"/><text fill="#000000" font-family="sans-serif" font-size="12" lengthAdjust="spacing" textLength="17" x="374" y="27.1543">Bill</text><line style="stroke:#A80036;stroke-width:1.5;" x1="346" x2="393" y1="39" y2="39"/><line style="stroke:#A80036;stroke-width:1.5;" x1="346" x2="393" y1="47" y2="47"/><!--MD5=[cbbb7500188be00f33f6573a6ddae518]
class Veterinarian--><rect fill="#FEFECE" filter="url(#fccrrpsdort22)" height="48" id="Veterinarian" style="stroke:#A80036;stroke-width:1.5;" width="109" x="387" y="115"/><ellipse cx="402" cy="131" fill="#ADD1B2" rx="11" ry="11" style="stroke:#A80036;stroke-width:1.0;"/><path d="M404.9688,136.6406 Q404.3906,136.9375 403.75,137.0781 Q403.1094,137.2344 402.4063,137.2344 Q399.9063,137.2344 398.5781,135.5938 Q397.2656,133.9375 397.2656,130.8125 Q397.2656,127.6875 398.5781,126.0313 Q399.9063,124.375 402.4063,124.375 Q403.1094,124.375 403.75,124.5313 Q404.4063,124.6875 404.9688,124.9844 L404.9688,127.7031 Q404.3438,127.125 403.75,126.8594 Q403.1563,126.5781 402.5313,126.5781 Q401.1875,126.5781 400.5,127.6563 Q399.8125,128.7188 399.8125,130.8125 Q399.8125,132.9063 400.5,133.9844 Q401.1875,135.0469 402.5313,135.0469 Q403.1563,135.0469 403.75,134.7813 Q404.3438,134.5 404.9688,133.9219 L404.9688,136.6406 Z " fill="#000000"/><text fill="#000000" font-family="sans-serif" font-size="12" lengthAdjust="spacing" textLength="77" x="416" y="135.1543">Veterinarian</text><line style="stroke:#A80036;stroke-width:1.5;" x1="388" x2="495" y1="147" y2="147"/><line style="stroke:#A80036;stroke-width:1.5;" x1="388" x2="495" y1="155" y2="155"/><!--MD5=[1aaba361ec2a5ca678b589b68455fc02]
class Assistant--><rect fill="#FEFECE" filter="url(#fccrrpsdort22)" height="48" id="Assistant" style="stroke:#A80036;stroke-width:1.5;" width="90" x="531.5" y="115"/><ellipse cx="546.5" cy="131" fill="#ADD1B2" rx="11" ry="11" style="stroke:#A80036;stroke-width:1.0;"/><path d="M549.4688,136.6406 Q548.8906,136.9375 548.25,137.0781 Q547.6094,137.2344 546.9063,137.2344 Q544.4063,137.2344 543.0781,135.5938 Q541.7656,133.9375 541.7656,130.8125 Q541.7656,127.6875 543.0781,126.0313 Q544.4063,124.375 546.9063,124.375 Q547.6094,124.375 548.25,124.5313 Q548.9063,124.6875 549.4688,124.9844 L549.4688,127.7031 Q548.8438,127.125 548.25,126.8594 Q547.6563,126.5781 547.0313,126.5781 Q545.6875,126.5781 545,127.6563 Q544.3125,128.7188 544.3125,130.8125 Q544.3125,132.9063 545,133.9844 Q545.6875,135.0469 547.0313,135.0469 Q547.6563,135.0469 548.25,134.7813 Q548.8438,134.5 549.4688,133.9219 L549.4688,136.6406 Z " fill="#000000"/><text fill="#000000" font-family="sans-serif" font-size="12" lengthAdjust="spacing" textLength="58" x="560.5" y="135.1543">Assistant</text><line style="stroke:#A80036;stroke-width:1.5;" x1="532.5" x2="620.5" y1="147" y2="147"/><line style="stroke:#A80036;stroke-width:1.5;" x1="532.5" x2="620.5" y1="155" y2="155"/><!--MD5=[eabbe9c75356a366d44446f0b37968c0]
reverse link Pet to Owner--><path codeLine="2" d="M153.37,290.06 C158.59,303.89 164.2,318.76 168.7,330.68 " fill="none" id="Pet-backto-Owner" style="stroke:#A80036;stroke-width:1.0;"/><polygon fill="none" points="146.69,292.18,146.18,271,159.79,287.24,146.69,292.18" style="stroke:#A80036;stroke-width:1.0;"/><!--MD5=[04e6150a02051e0d9fbe15244a54fdc7]
reverse link Visit to Owner--><path codeLine="3" d="M180,183.67 C180.62,196.35 181.19,210.22 181.5,223 C182.01,244.33 182.01,249.67 181.5,271 C181.01,291.19 179.86,314.12 178.92,330.76 " fill="none" id="Visit-backto-Owner" style="stroke:#A80036;stroke-width:1.0;"/><polygon fill="none" points="172.99,183.59,178.92,163.24,186.97,182.85,172.99,183.59" style="stroke:#A80036;stroke-width:1.0;"/><!--MD5=[5724c2ea7ccd578769190e75c24c4341]
reverse link Procedure to Visit--><path codeLine="4" d="M97.32,68.34 C114.98,83.68 135.03,101.1 150.66,114.68 " fill="none" id="Procedure-backto-Visit" style="stroke:#A80036;stroke-width:1.0;"/><polygon fill="none" points="92.48,73.4,81.97,55,101.66,62.83,92.48,73.4" style="stroke:#A80036;stroke-width:1.0;"/><!--MD5=[ad936273808ec2eafdfd758e370a98e8]
reverse link Service to Visit--><path codeLine="5" d="M177.5,75.02 C177.5,88.58 177.5,103.04 177.5,114.68 " fill="none" id="Service-backto-Visit" style="stroke:#A80036;stroke-width:1.0;"/><polygon fill="none" points="170.5,75,177.5,55,184.5,75,170.5,75" style="stroke:#A80036;stroke-width:1.0;"/><!--MD5=[6c327f69fa83a8d1aa104478aa3a6270]
reverse link Test to Visit--><path codeLine="6" d="M243.82,69.75 C229.25,84.74 212.95,101.51 200.16,114.68 " fill="none" id="Test-backto-Visit" style="stroke:#A80036;stroke-width:1.0;"/><polygon fill="none" points="239.19,64.47,258.15,55,249.23,74.22,239.19,64.47" style="stroke:#A80036;stroke-width:1.0;"/><!--MD5=[a4d9e38540b530ded042eb0c6ea5315c]
reverse link Procedure to BillItem--><path codeLine="7" d="M122.2,63.42 C161.43,81.91 209.63,104.61 242.47,120.08 " fill="none" id="Procedure-backto-BillItem" style="stroke:#A80036;stroke-width:1.0;"/><polygon fill="none" points="119.15,69.73,104.04,54.87,125.12,57.06,119.15,69.73" style="stroke:#A80036;stroke-width:1.0;"/><!--MD5=[d292c2576324e936efd0a1a6e5daf064]
reverse link Service to BillItem--><path codeLine="8" d="M214.18,69.75 C228.75,84.74 245.05,101.51 257.84,114.68 " fill="none" id="Service-backto-BillItem" style="stroke:#A80036;stroke-width:1.0;"/><polygon fill="none" points="208.77,74.22,199.85,55,218.81,64.47,208.77,74.22" style="stroke:#A80036;stroke-width:1.0;"/><!--MD5=[74fe910db3759ba3a3c10f6e163dde26]
reverse link Test to BillItem--><path codeLine="9" d="M280.5,75.02 C280.5,88.58 280.5,103.04 280.5,114.68 " fill="none" id="Test-backto-BillItem" style="stroke:#A80036;stroke-width:1.0;"/><polygon fill="none" points="273.5,75,280.5,55,287.5,75,273.5,75" style="stroke:#A80036;stroke-width:1.0;"/><!--MD5=[6ea7aa38500f07bd6d07042007319175]
reverse link Schedule to BillItem--><path codeLine="10" d="M414.78,64.63 C383.43,81.76 345.95,102.24 318.57,117.2 " fill="none" id="Schedule-backto-BillItem" style="stroke:#A80036;stroke-width:1.0;"/><polygon fill="none" points="411.5,58.45,432.4,55,418.21,70.73,411.5,58.45" style="stroke:#A80036;stroke-width:1.0;"/><!--MD5=[a15b37fdc1cda3123863315a45b536ee]
reverse link Bill to BillItem--><path codeLine="11" d="M337,70.7 C324.62,85.45 310.9,101.79 300.08,114.68 " fill="none" id="Bill-backto-BillItem" style="stroke:#A80036;stroke-width:1.0;"/><polygon fill="none" points="331.97,65.82,350.19,55,342.69,74.82,331.97,65.82" style="stroke:#A80036;stroke-width:1.0;"/><!--MD5=[90e716b8cbdd14a6189929add5beb98e]
reverse link Visit to Pet--><path codeLine="12" d="M161.63,182.06 C156.41,195.89 150.8,210.76 146.3,222.68 " fill="none" id="Visit-backto-Pet" style="stroke:#A80036;stroke-width:1.0;"/><polygon fill="none" points="155.21,179.24,168.82,163,168.31,184.18,155.21,179.24" style="stroke:#A80036;stroke-width:1.0;"/><!--MD5=[a35658e20166e784bdf16f3f368cd577]
reverse link Schedule to Veterinarian--><path codeLine="13" d="M461.26,74.54 C456.99,88.23 452.43,102.9 448.76,114.68 " fill="none" id="Schedule-backto-Veterinarian" style="stroke:#A80036;stroke-width:1.0;"/><polygon fill="none" points="454.71,72.02,467.34,55,468.08,76.18,454.71,72.02" style="stroke:#A80036;stroke-width:1.0;"/><!--MD5=[176ee074b8e5d80f72c3c71d0d94bafa]
reverse link Schedule to Assistant--><path codeLine="14" d="M510.83,69.75 C525.25,84.74 541.39,101.51 554.06,114.68 " fill="none" id="Schedule-backto-Assistant" style="stroke:#A80036;stroke-width:1.0;"/><polygon fill="none" points="505.46,74.27,496.63,55,515.54,64.56,505.46,74.27" style="stroke:#A80036;stroke-width:1.0;"/><!--MD5=[8e8de68bd3077f7fe8eeecf92b4eceba]
@startuml blob

Pet<|- -Owner
Visit<|- -Owner
Procedure<|- -Visit
Service<|- -Visit
Test<|- -Visit 
Procedure<|- -BillItem 
Service<|- -BillItem 
Test<|- -BillItem 
Schedule<|- -BillItem 
Bill<|- -BillItem 
Visit<|- -Pet 
Schedule<|- -Veterinarian
Schedule<|- -Assistant
@enduml

PlantUML version 1.2021.14(Fri Nov 12 11:46:50 EST 2021)
(GPL source distribution)
Java Runtime: OpenJDK Runtime Environment
JVM: OpenJDK 64-Bit Server VM
Default Encoding: UTF-8
Language: en
Country: US
--></g></svg>