<?xml version="1.0" encoding="UTF-8" standalone="no"?>
<!DOCTYPE svg PUBLIC "-//W3C//DTD SVG 1.1//EN"
 "http://www.w3.org/Graphics/SVG/1.1/DTD/svg11.dtd">
<!-- Generated by graphviz version 2.43.0 (0)
 -->
<!-- Title: G Pages: 1 -->
<svg width="659pt" height="589pt"
 viewBox="0.00 0.00 658.79 589.34" xmlns="http://www.w3.org/2000/svg" xmlns:xlink="http://www.w3.org/1999/xlink">
<g id="graph0" class="graph" transform="scale(1 1) rotate(0) translate(4 585.34)">
<title>G</title>
<polygon fill="white" stroke="transparent" points="-4,4 -4,-585.34 654.79,-585.34 654.79,4 -4,4"/>
<!-- call -->
<g id="node1" class="node">
<title>call</title>
<ellipse fill="none" stroke="black" cx="76.69" cy="-543.86" rx="76.89" ry="18"/>
<text text-anchor="middle" x="76.69" y="-540.16" font-family="Handlee" font-size="14.00">Get Phone Call</text>
</g>
<!-- beginVisit -->
<g id="node4" class="node">
<title>beginVisit</title>
<ellipse fill="none" stroke="black" cx="212.69" cy="-451.39" rx="58.49" ry="18"/>
<text text-anchor="middle" x="212.69" y="-447.69" font-family="Handlee" font-size="14.00">Begin Visit</text>
</g>
<!-- call&#45;&gt;beginVisit -->
<g id="edge3" class="edge">
<title>call&#45;&gt;beginVisit</title>
<path fill="none" stroke="black" d="M101.01,-526.69C123.19,-511.93 156.13,-490.02 180.49,-473.81"/>
<polygon fill="black" stroke="black" points="182.66,-476.57 189.05,-468.12 178.78,-470.74 182.66,-476.57"/>
</g>
<!-- arrive -->
<g id="node2" class="node">
<title>arrive</title>
<ellipse fill="none" stroke="black" cx="212.69" cy="-543.86" rx="41.02" ry="37.45"/>
<text text-anchor="middle" x="212.69" y="-555.16" font-family="Handlee" font-size="14.00">Arrive</text>
<text text-anchor="middle" x="212.69" y="-540.16" font-family="Handlee" font-size="14.00">at</text>
<text text-anchor="middle" x="212.69" y="-525.16" font-family="Handlee" font-size="14.00">Vet</text>
</g>
<!-- arrive&#45;&gt;beginVisit -->
<g id="edge4" class="edge">
<title>arrive&#45;&gt;beginVisit</title>
<path fill="none" stroke="black" d="M212.69,-506.32C212.69,-497.36 212.69,-487.92 212.69,-479.49"/>
<polygon fill="black" stroke="black" points="216.19,-479.46 212.69,-469.46 209.19,-479.46 216.19,-479.46"/>
</g>
<!-- webVisit -->
<g id="node3" class="node">
<title>webVisit</title>
<ellipse fill="none" stroke="black" cx="314.69" cy="-543.86" rx="43.27" ry="37.45"/>
<text text-anchor="middle" x="314.69" y="-555.16" font-family="Handlee" font-size="14.00">Sign</text>
<text text-anchor="middle" x="314.69" y="-540.16" font-family="Handlee" font-size="14.00">Up On</text>
<text text-anchor="middle" x="314.69" y="-525.16" font-family="Handlee" font-size="14.00">Web</text>
</g>
<!-- webVisit&#45;&gt;beginVisit -->
<g id="edge2" class="edge">
<title>webVisit&#45;&gt;beginVisit</title>
<path fill="none" stroke="black" d="M284.92,-516.45C270.37,-503.54 253.01,-488.15 238.96,-475.69"/>
<polygon fill="black" stroke="black" points="240.92,-472.75 231.12,-468.73 236.28,-477.98 240.92,-472.75"/>
</g>
<!-- getMinimalLeadInfo -->
<g id="node5" class="node">
<title>getMinimalLeadInfo</title>
<ellipse fill="none" stroke="black" cx="212.69" cy="-369.52" rx="75.82" ry="26.74"/>
<text text-anchor="middle" x="212.69" y="-373.32" font-family="Handlee" font-size="14.00">Get minimal</text>
<text text-anchor="middle" x="212.69" y="-358.32" font-family="Handlee" font-size="14.00">Identification</text>
</g>
<!-- beginVisit&#45;&gt;getMinimalLeadInfo -->
<g id="edge5" class="edge">
<title>beginVisit&#45;&gt;getMinimalLeadInfo</title>
<path fill="none" stroke="black" d="M207.06,-433.45C206.2,-425.66 205.84,-416.11 205.97,-406.82"/>
<polygon fill="black" stroke="black" points="209.48,-406.67 206.32,-396.55 202.48,-406.43 209.48,-406.67"/>
</g>
<!-- newOrExistingAppointment -->
<g id="node9" class="node">
<title>newOrExistingAppointment</title>
<ellipse fill="none" stroke="black" cx="394.69" cy="-369.52" rx="88.28" ry="26.74"/>
<text text-anchor="middle" x="394.69" y="-373.32" font-family="Handlee" font-size="14.00">New or Existing</text>
<text text-anchor="middle" x="394.69" y="-358.32" font-family="Handlee" font-size="14.00">Appointment?</text>
</g>
<!-- beginVisit&#45;&gt;newOrExistingAppointment -->
<g id="edge1" class="edge">
<title>beginVisit&#45;&gt;newOrExistingAppointment</title>
<path fill="none" stroke="black" d="M244.81,-436.29C270.15,-425.17 306.17,-409.37 336.54,-396.04"/>
<polygon fill="black" stroke="black" points="338.02,-399.21 345.77,-391.99 335.21,-392.8 338.02,-399.21"/>
</g>
<!-- getMinimalLeadInfo&#45;&gt;beginVisit -->
<g id="edge6" class="edge">
<title>getMinimalLeadInfo&#45;&gt;beginVisit</title>
<path fill="none" stroke="black" d="M219.07,-396.55C219.55,-405.17 219.57,-414.76 219.12,-423.44"/>
<polygon fill="black" stroke="black" points="215.62,-423.21 218.33,-433.45 222.6,-423.75 215.62,-423.21"/>
</g>
<!-- knowThem -->
<g id="node6" class="node">
<title>knowThem</title>
<ellipse fill="none" stroke="black" cx="220.69" cy="-142.22" rx="62.87" ry="37.45"/>
<text text-anchor="middle" x="220.69" y="-153.52" font-family="Handlee" font-size="14.00">Are they</text>
<text text-anchor="middle" x="220.69" y="-138.52" font-family="Handlee" font-size="14.00">existing</text>
<text text-anchor="middle" x="220.69" y="-123.52" font-family="Handlee" font-size="14.00">customer?</text>
</g>
<!-- createVerifyCustomer -->
<g id="node8" class="node">
<title>createVerifyCustomer</title>
<ellipse fill="none" stroke="black" cx="220.69" cy="-26.87" rx="74.49" ry="26.74"/>
<text text-anchor="middle" x="220.69" y="-30.67" font-family="Handlee" font-size="14.00">Create/Verify</text>
<text text-anchor="middle" x="220.69" y="-15.67" font-family="Handlee" font-size="14.00">Customer</text>
</g>
<!-- knowThem&#45;&gt;createVerifyCustomer -->
<g id="edge7" class="edge">
<title>knowThem&#45;&gt;createVerifyCustomer</title>
<path fill="none" stroke="black" d="M192.76,-108.37C186.34,-97.02 182.48,-84.06 186.69,-71.74 187.92,-68.16 189.57,-64.64 191.49,-61.25"/>
<polygon fill="black" stroke="black" points="194.57,-62.93 197.07,-52.63 188.7,-59.12 194.57,-62.93"/>
<text text-anchor="middle" x="214.69" y="-75.54" font-family="Handlee" font-size="14.00">Existing</text>
</g>
<!-- createANewAppointment -->
<g id="node7" class="node">
<title>createANewAppointment</title>
<ellipse fill="none" stroke="black" cx="220.69" cy="-254.17" rx="80.72" ry="26.74"/>
<text text-anchor="middle" x="220.69" y="-257.97" font-family="Handlee" font-size="14.00">Create</text>
<text text-anchor="middle" x="220.69" y="-242.97" font-family="Handlee" font-size="14.00">Appointment?</text>
</g>
<!-- createANewAppointment&#45;&gt;knowThem -->
<g id="edge10" class="edge">
<title>createANewAppointment&#45;&gt;knowThem</title>
<path fill="none" stroke="black" d="M220.69,-227.11C220.69,-215.99 220.69,-202.66 220.69,-189.93"/>
<polygon fill="black" stroke="black" points="224.19,-189.9 220.69,-179.9 217.19,-189.9 224.19,-189.9"/>
</g>
<!-- createVerifyCustomer&#45;&gt;knowThem -->
<g id="edge8" class="edge">
<title>createVerifyCustomer&#45;&gt;knowThem</title>
<path fill="none" stroke="black" d="M236.04,-53.56C238.79,-59.35 241.24,-65.6 242.69,-71.74 244.6,-79.79 244.1,-88.27 242.29,-96.42"/>
<polygon fill="black" stroke="black" points="238.89,-95.58 239.51,-106.16 245.62,-97.5 238.89,-95.58"/>
</g>
<!-- newOrExistingAppointment&#45;&gt;createANewAppointment -->
<g id="edge9" class="edge">
<title>newOrExistingAppointment&#45;&gt;createANewAppointment</title>
<path fill="none" stroke="black" d="M358.22,-344.76C331.03,-327.05 293.78,-302.78 264.9,-283.97"/>
<polygon fill="black" stroke="black" points="266.52,-280.84 256.23,-278.32 262.7,-286.71 266.52,-280.84"/>
<text text-anchor="middle" x="338.19" y="-313.45" font-family="Handlee" font-size="14.00">New</text>
</g>
<!-- modifyAppointment -->
<g id="node10" class="node">
<title>modifyAppointment</title>
<ellipse fill="none" stroke="black" cx="394.69" cy="-254.17" rx="75.82" ry="37.45"/>
<text text-anchor="middle" x="394.69" y="-265.47" font-family="Handlee" font-size="14.00">Modify</text>
<text text-anchor="middle" x="394.69" y="-250.47" font-family="Handlee" font-size="14.00">Existing</text>
<text text-anchor="middle" x="394.69" y="-235.47" font-family="Handlee" font-size="14.00">Appointment</text>
</g>
<!-- newOrExistingAppointment&#45;&gt;modifyAppointment -->
<g id="edge12" class="edge">
<title>newOrExistingAppointment&#45;&gt;modifyAppointment</title>
<path fill="none" stroke="black" d="M394.69,-342.51C394.69,-330.53 394.69,-315.94 394.69,-302.14"/>
<polygon fill="black" stroke="black" points="398.19,-301.79 394.69,-291.79 391.19,-301.79 398.19,-301.79"/>
<text text-anchor="middle" x="421.69" y="-313.45" font-family="Handlee" font-size="14.00">Change</text>
</g>
<!-- appointmentCheckIn -->
<g id="node11" class="node">
<title>appointmentCheckIn</title>
<ellipse fill="none" stroke="black" cx="563.69" cy="-254.17" rx="75.82" ry="26.74"/>
<text text-anchor="middle" x="563.69" y="-257.97" font-family="Handlee" font-size="14.00">Appointment</text>
<text text-anchor="middle" x="563.69" y="-242.97" font-family="Handlee" font-size="14.00">Check&#45;In</text>
</g>
<!-- newOrExistingAppointment&#45;&gt;appointmentCheckIn -->
<g id="edge11" class="edge">
<title>newOrExistingAppointment&#45;&gt;appointmentCheckIn</title>
<path fill="none" stroke="black" d="M430.12,-344.76C456.52,-327.05 492.71,-302.78 520.76,-283.97"/>
<polygon fill="black" stroke="black" points="522.82,-286.8 529.18,-278.32 518.92,-280.98 522.82,-286.8"/>
<text text-anchor="middle" x="506.69" y="-313.45" font-family="Handlee" font-size="14.00">Existing</text>
</g>
<!-- recommendTest -->
<g id="node12" class="node">
<title>recommendTest</title>
<ellipse fill="lightgrey" stroke="black" cx="563.69" cy="-142.22" rx="87.18" ry="18"/>
<text text-anchor="middle" x="563.69" y="-138.52" font-family="Handlee" font-size="14.00">Recommend Test</text>
</g>
<!-- appointmentCheckIn&#45;&gt;recommendTest -->
<g id="edge13" class="edge">
<title>appointmentCheckIn&#45;&gt;recommendTest</title>
<path fill="none" stroke="black" d="M563.69,-227.11C563.69,-210.07 563.69,-187.85 563.69,-170.56"/>
<polygon fill="black" stroke="black" points="567.19,-170.52 563.69,-160.52 560.19,-170.52 567.19,-170.52"/>
</g>
<!-- doThing -->
<g id="node13" class="node">
<title>doThing</title>
<ellipse fill="lightgrey" stroke="black" cx="426.69" cy="-543.86" rx="51.19" ry="18"/>
<text text-anchor="middle" x="426.69" y="-540.16" font-family="Handlee" font-size="14.00">Do Thing</text>
</g>
</g>
</svg>
